<ttFont>
    <TTGlyph name="" xMin="-386" yMin="-193" xMax="-234" yMax="-30">
      <contour>
        <pt x="-234" y="-193" on="1"/>
        <pt x="-386" y="-193" on="1"/>
        <pt x="-386" y="-127" on="1"/>
        <pt x="-316" y="-127" on="1"/>
        <pt x="-316" y="-30" on="1"/>
        <pt x="-234" y="-30" on="1"/>
      </contour>
    </TTGlyph>
    <TTGlyph name=".notdef" xMin="50" yMin="0" xMax="500" yMax="520">
      <contour>
        <pt x="50" y="0" on="1"/>
        <pt x="50" y="520" on="1"/>
        <pt x="500" y="520" on="1"/>
        <pt x="500" y="0" on="1"/>
      </contour>
      <contour>
        <pt x="77" y="18" on="1"/>
        <pt x="473" y="18" on="1"/>
        <pt x="473" y="502" on="1"/>
        <pt x="77" y="502" on="1"/>
      </contour>
      <contour>
        <pt x="173" y="416" on="1"/>
        <pt x="190" y="426" on="0"/>
        <pt x="205" y="432" on="1"/>
        <pt x="233" y="443" on="0"/>
        <pt x="266" y="443" on="1"/>
        <pt x="316" y="443" on="0"/>
        <pt x="377" y="408" on="0"/>
        <pt x="377" y="379" on="1"/>
        <pt x="377" y="362" on="0"/>
        <pt x="352" y="326" on="0"/>
        <pt x="317" y="297" on="1"/>
        <pt x="283" y="268" on="0"/>
        <pt x="243" y="230" on="0"/>
        <pt x="243" y="213" on="1"/>
        <pt x="243" y="199" on="0"/>
        <pt x="256" y="165" on="1"/>
        <pt x="239" y="165" on="1"/>
        <pt x="220" y="200" on="0"/>
        <pt x="220" y="218" on="1"/>
        <pt x="220" y="246" on="0"/>
        <pt x="309" y="349" on="0"/>
        <pt x="309" y="376" on="1"/>
        <pt x="309" y="397" on="0"/>
        <pt x="273" y="421" on="0"/>
        <pt x="241" y="421" on="1"/>
        <pt x="220" y="421" on="0"/>
        <pt x="203" y="414" on="1"/>
        <pt x="189" y="409" on="0"/>
        <pt x="173" y="400" on="1"/>
      </contour>
      <contour>
        <pt x="208" y="121" on="1"/>
        <pt x="239" y="142" on="1"/>
        <pt x="245" y="146" on="0"/>
        <pt x="250" y="146" on="1"/>
        <pt x="255" y="146" on="0"/>
        <pt x="262" y="142" on="1"/>
        <pt x="292" y="120" on="1"/>
        <pt x="297" y="116" on="0"/>
        <pt x="297" y="113" on="1"/>
        <pt x="297" y="109" on="0"/>
        <pt x="292" y="105" on="1"/>
        <pt x="261" y="82" on="1"/>
        <pt x="254" y="77" on="0"/>
        <pt x="250" y="77" on="1"/>
        <pt x="244" y="77" on="0"/>
        <pt x="239" y="81" on="1"/>
        <pt x="206" y="107" on="1"/>
        <pt x="202" y="110" on="0"/>
        <pt x="202" y="113" on="1"/>
        <pt x="202" y="117" on="0"/>
      </contour>
    </TTGlyph>
    <TTGlyph name="u1000" xMin="50" yMin="0" xMax="833" yMax="520">
      <contour>
        <pt x="485" y="378" on="1"/>
        <pt x="500" y="328" on="0"/>
        <pt x="500" y="260" on="1"/>
        <pt x="500" y="42" on="0"/>
        <pt x="355" y="0" on="1"/>
        <pt x="328" y="64" on="1"/>
        <pt x="418" y="96" on="0"/>
        <pt x="418" y="260" on="1"/>
        <pt x="418" y="454" on="0"/>
        <pt x="275" y="454" on="1"/>
        <pt x="132" y="454" on="0"/>
        <pt x="132" y="260" on="1"/>
        <pt x="132" y="96" on="0"/>
        <pt x="222" y="64" on="1"/>
        <pt x="195" y="0" on="1"/>
        <pt x="50" y="42" on="0"/>
        <pt x="50" y="260" on="1"/>
        <pt x="50" y="520" on="0"/>
        <pt x="275" y="520" on="1"/>
        <pt x="385" y="520" on="0"/>
        <pt x="441" y="458" on="1"/>
        <pt x="498" y="520" on="0"/>
        <pt x="608" y="520" on="1"/>
        <pt x="833" y="520" on="0"/>
        <pt x="833" y="260" on="1"/>
        <pt x="833" y="0" on="0"/>
        <pt x="608" y="0" on="1"/>
        <pt x="608" y="66" on="1"/>
        <pt x="751" y="66" on="0"/>
        <pt x="751" y="260" on="1"/>
        <pt x="751" y="454" on="0"/>
        <pt x="608" y="454" on="1"/>
        <pt x="519" y="454" on="0"/>
      </contour>
    </TTGlyph>
    <TTGlyph name="u1001" xMin="50" yMin="0" xMax="500" yMax="520">
      <contour>
        <pt x="408" y="172" on="1"/>
        <pt x="418" y="209" on="0"/>
        <pt x="418" y="260" on="1"/>
        <pt x="418" y="454" on="0"/>
        <pt x="265" y="454" on="1"/>
        <pt x="159" y="454" on="0"/>
        <pt x="128" y="367" on="1"/>
        <pt x="50" y="392" on="1"/>
        <pt x="97" y="520" on="0"/>
        <pt x="265" y="520" on="1"/>
        <pt x="500" y="520" on="0"/>
        <pt x="500" y="260" on="1"/>
        <pt x="500" y="0" on="0"/>
        <pt x="265" y="0" on="1"/>
        <pt x="92" y="0" on="0"/>
        <pt x="50" y="156" on="1"/>
        <pt x="106" y="238" on="0"/>
        <pt x="209" y="238" on="1"/>
        <pt x="246" y="238" on="0"/>
        <pt x="290" y="227" on="1"/>
        <pt x="366" y="208" on="0"/>
      </contour>
      <contour>
        <pt x="137" y="135" on="1"/>
        <pt x="174" y="66" on="0"/>
        <pt x="265" y="66" on="1"/>
        <pt x="330" y="66" on="0"/>
        <pt x="368" y="101" on="1"/>
        <pt x="342" y="146" on="0"/>
        <pt x="274" y="163" on="1"/>
        <pt x="247" y="170" on="0"/>
        <pt x="223" y="170" on="1"/>
        <pt x="171" y="170" on="0"/>
      </contour>
    </TTGlyph>
    <TTGlyph name="u1002" xMin="50" yMin="0" xMax="500" yMax="520">
      <contour>
        <pt x="275" y="520" on="1"/>
        <pt x="500" y="520" on="0"/>
        <pt x="500" y="260" on="1"/>
        <pt x="500" y="42" on="0"/>
        <pt x="355" y="0" on="1"/>
        <pt x="328" y="64" on="1"/>
        <pt x="418" y="96" on="0"/>
        <pt x="418" y="260" on="1"/>
        <pt x="418" y="454" on="0"/>
        <pt x="275" y="454" on="1"/>
        <pt x="132" y="454" on="0"/>
        <pt x="132" y="260" on="1"/>
        <pt x="132" y="96" on="0"/>
        <pt x="222" y="64" on="1"/>
        <pt x="195" y="0" on="1"/>
        <pt x="50" y="42" on="0"/>
        <pt x="50" y="260" on="1"/>
        <pt x="50" y="520" on="0"/>
      </contour>
    </TTGlyph>
    <TTGlyph name="u1003" xMin="50" yMin="0" xMax="833" yMax="520">
      <contour>
        <pt x="113" y="507" on="1"/>
        <pt x="146" y="520" on="0"/>
        <pt x="172" y="520" on="1"/>
        <pt x="232" y="520" on="0"/>
        <pt x="257" y="453" on="1"/>
        <pt x="266" y="429" on="0"/>
        <pt x="266" y="408" on="1"/>
        <pt x="266" y="346" on="0"/>
        <pt x="185" y="314" on="1"/>
        <pt x="132" y="294" on="0"/>
        <pt x="132" y="260" on="1"/>
        <pt x="132" y="66" on="0"/>
        <pt x="275" y="66" on="1"/>
        <pt x="418" y="66" on="0"/>
        <pt x="418" y="260" on="1"/>
        <pt x="418" y="424" on="0"/>
        <pt x="328" y="456" on="1"/>
        <pt x="355" y="520" on="1"/>
        <pt x="500" y="478" on="0"/>
        <pt x="500" y="260" on="1"/>
        <pt x="500" y="192" on="0"/>
        <pt x="485" y="142" on="1"/>
        <pt x="519" y="66" on="0"/>
        <pt x="608" y="66" on="1"/>
        <pt x="751" y="66" on="0"/>
        <pt x="751" y="260" on="1"/>
        <pt x="751" y="454" on="0"/>
        <pt x="608" y="454" on="1"/>
        <pt x="608" y="520" on="1"/>
        <pt x="833" y="520" on="0"/>
        <pt x="833" y="260" on="1"/>
        <pt x="833" y="0" on="0"/>
        <pt x="608" y="0" on="1"/>
        <pt x="498" y="0" on="0"/>
        <pt x="441" y="62" on="1"/>
        <pt x="385" y="0" on="0"/>
        <pt x="275" y="0" on="1"/>
        <pt x="50" y="0" on="0"/>
        <pt x="50" y="260" on="1"/>
        <pt x="50" y="338" on="0"/>
        <pt x="161" y="377" on="1"/>
        <pt x="198" y="391" on="0"/>
        <pt x="198" y="416" on="1"/>
        <pt x="198" y="422" on="0"/>
        <pt x="196" y="429" on="1"/>
        <pt x="188" y="452" on="0"/>
        <pt x="166" y="452" on="1"/>
        <pt x="154" y="452" on="0"/>
        <pt x="138" y="445" on="1"/>
        <pt x="75" y="421" on="1"/>
        <pt x="50" y="481" on="1"/>
      </contour>
    </TTGlyph>
    <TTGlyph name="u1004" xMin="50" yMin="0" xMax="500" yMax="520">
      <contour>
        <pt x="50" y="520" on="0"/>
        <pt x="285" y="520" on="1"/>
        <pt x="453" y="520" on="0"/>
        <pt x="500" y="392" on="1"/>
        <pt x="422" y="367" on="1"/>
        <pt x="391" y="454" on="0"/>
        <pt x="285" y="454" on="1"/>
        <pt x="132" y="454" on="0"/>
        <pt x="132" y="260" on="1"/>
        <pt x="132" y="66" on="0"/>
        <pt x="285" y="66" on="1"/>
        <pt x="391" y="66" on="0"/>
        <pt x="422" y="153" on="1"/>
        <pt x="500" y="128" on="1"/>
        <pt x="453" y="0" on="0"/>
        <pt x="285" y="0" on="1"/>
        <pt x="50" y="0" on="0"/>
        <pt x="50" y="260" on="1"/>
      </contour>
    </TTGlyph>
    <TTGlyph name="u1005" xMin="50" yMin="0" xMax="500" yMax="520">
      <contour>
        <pt x="213" y="78" on="1"/>
        <pt x="240" y="66" on="0"/>
        <pt x="275" y="66" on="1"/>
        <pt x="418" y="66" on="0"/>
        <pt x="418" y="260" on="1"/>
        <pt x="418" y="454" on="0"/>
        <pt x="275" y="454" on="1"/>
        <pt x="240" y="454" on="0"/>
        <pt x="213" y="442" on="1"/>
        <pt x="295" y="387" on="0"/>
        <pt x="295" y="260" on="1"/>
        <pt x="295" y="133" on="0"/>
      </contour>
      <contour>
        <pt x="161" y="396" on="1"/>
        <pt x="132" y="348" on="0"/>
        <pt x="132" y="260" on="1"/>
        <pt x="132" y="173" on="0"/>
        <pt x="161" y="125" on="1"/>
        <pt x="229" y="165" on="0"/>
        <pt x="229" y="260" on="1"/>
        <pt x="229" y="356" on="0"/>
      </contour>
      <contour>
        <pt x="275" y="520" on="1"/>
        <pt x="500" y="520" on="0"/>
        <pt x="500" y="260" on="1"/>
        <pt x="500" y="0" on="0"/>
        <pt x="275" y="0" on="1"/>
        <pt x="50" y="0" on="0"/>
        <pt x="50" y="260" on="1"/>
        <pt x="50" y="520" on="0"/>
      </contour>
    </TTGlyph>
    <TTGlyph name="u1006" xMin="50" yMin="0" xMax="833" yMax="520">
      <contour>
        <pt x="137" y="135" on="1"/>
        <pt x="174" y="66" on="0"/>
        <pt x="265" y="66" on="1"/>
        <pt x="330" y="66" on="0"/>
        <pt x="368" y="101" on="1"/>
        <pt x="342" y="146" on="0"/>
        <pt x="274" y="163" on="1"/>
        <pt x="247" y="170" on="0"/>
        <pt x="223" y="170" on="1"/>
        <pt x="171" y="170" on="0"/>
      </contour>
      <contour>
        <pt x="484" y="143" on="1"/>
        <pt x="485" y="144" on="1"/>
        <pt x="518" y="66" on="0"/>
        <pt x="608" y="66" on="1"/>
        <pt x="751" y="66" on="0"/>
        <pt x="751" y="260" on="1"/>
        <pt x="751" y="454" on="0"/>
        <pt x="608" y="454" on="1"/>
        <pt x="519" y="454" on="0"/>
        <pt x="485" y="378" on="1"/>
        <pt x="500" y="328" on="0"/>
        <pt x="500" y="260" on="1"/>
        <pt x="500" y="192" on="0"/>
      </contour>
      <contour>
        <pt x="418" y="260" on="1"/>
        <pt x="418" y="454" on="0"/>
        <pt x="265" y="454" on="1"/>
        <pt x="159" y="454" on="0"/>
        <pt x="128" y="367" on="1"/>
        <pt x="50" y="392" on="1"/>
        <pt x="97" y="520" on="0"/>
        <pt x="265" y="520" on="1"/>
        <pt x="385" y="520" on="0"/>
        <pt x="441" y="458" on="1"/>
        <pt x="498" y="520" on="0"/>
        <pt x="608" y="520" on="1"/>
        <pt x="833" y="520" on="0"/>
        <pt x="833" y="260" on="1"/>
        <pt x="833" y="0" on="0"/>
        <pt x="608" y="0" on="1"/>
        <pt x="496" y="0" on="0"/>
        <pt x="440" y="64" on="1"/>
        <pt x="381" y="0" on="0"/>
        <pt x="265" y="0" on="1"/>
        <pt x="92" y="0" on="0"/>
        <pt x="50" y="156" on="1"/>
        <pt x="106" y="238" on="0"/>
        <pt x="209" y="238" on="1"/>
        <pt x="246" y="238" on="0"/>
        <pt x="290" y="227" on="1"/>
        <pt x="366" y="208" on="0"/>
        <pt x="408" y="172" on="1"/>
        <pt x="418" y="209" on="0"/>
      </contour>
    </TTGlyph>
    <TTGlyph name="u1007" xMin="50" yMin="0" xMax="548" yMax="520">
      <contour>
        <pt x="418" y="0" on="0"/>
        <pt x="285" y="0" on="1"/>
        <pt x="50" y="0" on="0"/>
        <pt x="50" y="260" on="1"/>
        <pt x="50" y="520" on="0"/>
        <pt x="285" y="520" on="1"/>
        <pt x="453" y="520" on="0"/>
        <pt x="500" y="392" on="1"/>
        <pt x="504" y="374" on="0"/>
        <pt x="504" y="352" on="1"/>
        <pt x="504" y="287" on="0"/>
        <pt x="461" y="264" on="1"/>
        <pt x="491" y="236" on="0"/>
        <pt x="527" y="236" on="1"/>
        <pt x="537" y="236" on="0"/>
        <pt x="548" y="238" on="1"/>
        <pt x="548" y="178" on="1"/>
        <pt x="538" y="177" on="0"/>
        <pt x="529" y="177" on="1"/>
        <pt x="454" y="177" on="0"/>
        <pt x="393" y="252" on="1"/>
        <pt x="304" y="258" on="0"/>
        <pt x="304" y="352" on="1"/>
        <pt x="304" y="421" on="0"/>
        <pt x="352" y="443" on="1"/>
        <pt x="323" y="454" on="0"/>
        <pt x="285" y="454" on="1"/>
        <pt x="132" y="454" on="0"/>
        <pt x="132" y="260" on="1"/>
        <pt x="132" y="66" on="0"/>
        <pt x="285" y="66" on="1"/>
        <pt x="369" y="66" on="0"/>
        <pt x="406" y="120" on="1"/>
        <pt x="475" y="80" on="1"/>
      </contour>
      <contour>
        <pt x="404" y="386" on="1"/>
        <pt x="370" y="386" on="0"/>
        <pt x="370" y="352" on="1"/>
        <pt x="370" y="318" on="0"/>
        <pt x="404" y="318" on="1"/>
        <pt x="438" y="318" on="0"/>
        <pt x="438" y="352" on="1"/>
        <pt x="438" y="386" on="0"/>
      </contour>
    </TTGlyph>
    <TTGlyph name="u1008" xMin="50" yMin="-273" xMax="682" yMax="520">
      <contour>
        <pt x="213" y="78" on="1"/>
        <pt x="240" y="66" on="0"/>
        <pt x="275" y="66" on="1"/>
        <pt x="418" y="66" on="0"/>
        <pt x="418" y="260" on="1"/>
        <pt x="418" y="454" on="0"/>
        <pt x="275" y="454" on="1"/>
        <pt x="240" y="454" on="0"/>
        <pt x="213" y="442" on="1"/>
        <pt x="295" y="387" on="0"/>
        <pt x="295" y="260" on="1"/>
        <pt x="295" y="133" on="0"/>
      </contour>
      <contour>
        <pt x="161" y="396" on="1"/>
        <pt x="132" y="348" on="0"/>
        <pt x="132" y="260" on="1"/>
        <pt x="132" y="173" on="0"/>
        <pt x="161" y="125" on="1"/>
        <pt x="229" y="165" on="0"/>
        <pt x="229" y="260" on="1"/>
        <pt x="229" y="356" on="0"/>
      </contour>
      <contour>
        <pt x="275" y="0" on="1"/>
        <pt x="50" y="0" on="0"/>
        <pt x="50" y="260" on="1"/>
        <pt x="50" y="520" on="0"/>
        <pt x="275" y="520" on="1"/>
        <pt x="500" y="520" on="0"/>
        <pt x="500" y="260" on="1"/>
        <pt x="500" y="53" on="0"/>
        <pt x="357" y="11" on="1"/>
        <pt x="357" y="-150" on="1"/>
        <pt x="357" y="-207" on="0"/>
        <pt x="418" y="-207" on="1"/>
        <pt x="540" y="-207" on="1"/>
        <pt x="600" y="-207" on="0"/>
        <pt x="600" y="-150" on="1"/>
        <pt x="600" y="520" on="1"/>
        <pt x="682" y="520" on="1"/>
        <pt x="682" y="-150" on="1"/>
        <pt x="682" y="-273" on="0"/>
        <pt x="540" y="-273" on="1"/>
        <pt x="418" y="-273" on="1"/>
        <pt x="275" y="-273" on="0"/>
        <pt x="275" y="-150" on="1"/>
      </contour>
    </TTGlyph>
    <TTGlyph name="u1009" xMin="50" yMin="-273" xMax="682" yMax="520">
      <contour>
        <pt x="529" y="-207" on="1"/>
        <pt x="600" y="-207" on="0"/>
        <pt x="600" y="-140" on="1"/>
        <pt x="600" y="-50" on="1"/>
        <pt x="682" y="-50" on="1"/>
        <pt x="682" y="-140" on="1"/>
        <pt x="682" y="-273" on="0"/>
        <pt x="529" y="-273" on="1"/>
        <pt x="204" y="-273" on="1"/>
        <pt x="50" y="-273" on="0"/>
        <pt x="50" y="-140" on="1"/>
        <pt x="50" y="128" on="1"/>
        <pt x="128" y="153" on="1"/>
        <pt x="159" y="66" on="0"/>
        <pt x="265" y="66" on="1"/>
        <pt x="418" y="66" on="0"/>
        <pt x="418" y="260" on="1"/>
        <pt x="418" y="454" on="0"/>
        <pt x="265" y="454" on="1"/>
        <pt x="159" y="454" on="0"/>
        <pt x="128" y="367" on="1"/>
        <pt x="50" y="392" on="1"/>
        <pt x="97" y="520" on="0"/>
        <pt x="265" y="520" on="1"/>
        <pt x="500" y="520" on="0"/>
        <pt x="500" y="260" on="1"/>
        <pt x="500" y="0" on="0"/>
        <pt x="265" y="0" on="1"/>
        <pt x="185" y="0" on="0"/>
        <pt x="132" y="29" on="1"/>
        <pt x="132" y="-140" on="1"/>
        <pt x="132" y="-207" on="0"/>
        <pt x="204" y="-207" on="1"/>
      </contour>
    </TTGlyph>
    <TTGlyph name="u100A" xMin="50" yMin="-273" xMax="833" yMax="520">
      <contour>
        <pt x="680" y="-207" on="1"/>
        <pt x="751" y="-207" on="0"/>
        <pt x="751" y="-140" on="1"/>
        <pt x="751" y="-50" on="1"/>
        <pt x="833" y="-50" on="1"/>
        <pt x="833" y="-140" on="1"/>
        <pt x="833" y="-273" on="0"/>
        <pt x="680" y="-273" on="1"/>
        <pt x="204" y="-273" on="1"/>
        <pt x="50" y="-273" on="0"/>
        <pt x="50" y="-140" on="1"/>
        <pt x="50" y="128" on="1"/>
        <pt x="128" y="153" on="1"/>
        <pt x="159" y="66" on="0"/>
        <pt x="265" y="66" on="1"/>
        <pt x="418" y="66" on="0"/>
        <pt x="418" y="260" on="1"/>
        <pt x="418" y="454" on="0"/>
        <pt x="265" y="454" on="1"/>
        <pt x="159" y="454" on="0"/>
        <pt x="128" y="367" on="1"/>
        <pt x="50" y="392" on="1"/>
        <pt x="97" y="520" on="0"/>
        <pt x="265" y="520" on="1"/>
        <pt x="500" y="520" on="0"/>
        <pt x="500" y="260" on="1"/>
        <pt x="500" y="192" on="0"/>
        <pt x="485" y="142" on="1"/>
        <pt x="519" y="66" on="0"/>
        <pt x="608" y="66" on="1"/>
        <pt x="751" y="66" on="0"/>
        <pt x="751" y="260" on="1"/>
        <pt x="751" y="454" on="0"/>
        <pt x="608" y="454" on="1"/>
        <pt x="608" y="520" on="1"/>
        <pt x="833" y="520" on="0"/>
        <pt x="833" y="260" on="1"/>
        <pt x="833" y="0" on="0"/>
        <pt x="608" y="0" on="1"/>
        <pt x="498" y="0" on="0"/>
        <pt x="441" y="62" on="1"/>
        <pt x="385" y="0" on="0"/>
        <pt x="265" y="0" on="1"/>
        <pt x="185" y="0" on="0"/>
        <pt x="132" y="29" on="1"/>
        <pt x="132" y="-140" on="1"/>
        <pt x="132" y="-207" on="0"/>
        <pt x="204" y="-207" on="1"/>
      </contour>
    </TTGlyph>
    <TTGlyph name="u100A_alt" xMin="49" yMin="-273" xMax="832" yMax="520">
      <contour>
        <pt x="481" y="-273" on="1"/>
        <pt x="203" y="-273" on="1"/>
        <pt x="49" y="-273" on="0"/>
        <pt x="49" y="-140" on="1"/>
        <pt x="49" y="128" on="1"/>
        <pt x="127" y="153" on="1"/>
        <pt x="158" y="66" on="0"/>
        <pt x="264" y="66" on="1"/>
        <pt x="417" y="66" on="0"/>
        <pt x="417" y="260" on="1"/>
        <pt x="417" y="454" on="0"/>
        <pt x="264" y="454" on="1"/>
        <pt x="158" y="454" on="0"/>
        <pt x="127" y="367" on="1"/>
        <pt x="49" y="392" on="1"/>
        <pt x="96" y="520" on="0"/>
        <pt x="264" y="520" on="1"/>
        <pt x="499" y="520" on="0"/>
        <pt x="499" y="260" on="1"/>
        <pt x="499" y="192" on="0"/>
        <pt x="484" y="142" on="1"/>
        <pt x="518" y="66" on="0"/>
        <pt x="607" y="66" on="1"/>
        <pt x="750" y="66" on="0"/>
        <pt x="750" y="260" on="1"/>
        <pt x="750" y="454" on="0"/>
        <pt x="607" y="454" on="1"/>
        <pt x="607" y="520" on="1"/>
        <pt x="832" y="520" on="0"/>
        <pt x="832" y="260" on="1"/>
        <pt x="832" y="0" on="0"/>
        <pt x="607" y="0" on="1"/>
        <pt x="497" y="0" on="0"/>
        <pt x="440" y="62" on="1"/>
        <pt x="384" y="0" on="0"/>
        <pt x="264" y="0" on="1"/>
        <pt x="184" y="0" on="0"/>
        <pt x="131" y="29" on="1"/>
        <pt x="131" y="-140" on="1"/>
        <pt x="131" y="-207" on="0"/>
        <pt x="203" y="-207" on="1"/>
        <pt x="481" y="-207" on="1"/>
      </contour>
    </TTGlyph>
    <TTGlyph name="u100B" xMin="50" yMin="-273" xMax="550" yMax="520">
      <contour>
        <pt x="500" y="-207" on="1"/>
        <pt x="550" y="-207" on="1"/>
        <pt x="550" y="-273" on="1"/>
        <pt x="418" y="-273" on="1"/>
        <pt x="418" y="-184" on="1"/>
        <pt x="353" y="-200" on="0"/>
        <pt x="275" y="-200" on="1"/>
        <pt x="142" y="-200" on="0"/>
        <pt x="50" y="-155" on="1"/>
        <pt x="50" y="-30" on="1"/>
        <pt x="117" y="0" on="1"/>
        <pt x="178" y="-40" on="0"/>
        <pt x="275" y="-40" on="1"/>
        <pt x="360" y="-40" on="0"/>
        <pt x="418" y="-9" on="1"/>
        <pt x="418" y="29" on="1"/>
        <pt x="365" y="0" on="0"/>
        <pt x="285" y="0" on="1"/>
        <pt x="50" y="0" on="0"/>
        <pt x="50" y="260" on="1"/>
        <pt x="50" y="520" on="0"/>
        <pt x="285" y="520" on="1"/>
        <pt x="453" y="520" on="0"/>
        <pt x="500" y="392" on="1"/>
        <pt x="422" y="367" on="1"/>
        <pt x="391" y="454" on="0"/>
        <pt x="285" y="454" on="1"/>
        <pt x="132" y="454" on="0"/>
        <pt x="132" y="260" on="1"/>
        <pt x="132" y="66" on="0"/>
        <pt x="285" y="66" on="1"/>
        <pt x="391" y="66" on="0"/>
        <pt x="422" y="153" on="1"/>
        <pt x="500" y="128" on="1"/>
        <pt x="500" y="-29" on="1"/>
        <pt x="419" y="-100" on="0"/>
        <pt x="275" y="-100" on="1"/>
        <pt x="193" y="-100" on="0"/>
        <pt x="132" y="-77" on="1"/>
        <pt x="132" y="-121" on="1"/>
        <pt x="195" y="-140" on="0"/>
        <pt x="275" y="-140" on="1"/>
        <pt x="390" y="-140" on="0"/>
        <pt x="469" y="-100" on="1"/>
        <pt x="500" y="-112" on="1"/>
      </contour>
    </TTGlyph>
    <TTGlyph name="u100B_1039_100B" xMin="50" yMin="-273" xMax="550" yMax="520">
      <contour>
        <pt x="67" y="-183" on="1"/>
        <pt x="133" y="-228" on="0"/>
        <pt x="213" y="-228" on="1"/>
        <pt x="304" y="-228" on="0"/>
        <pt x="353" y="-182" on="1"/>
        <pt x="367" y="-182" on="1"/>
        <pt x="367" y="-231" on="1"/>
        <pt x="367" y="-242" on="0"/>
        <pt x="389" y="-242" on="1"/>
        <pt x="400" y="-242" on="1"/>
        <pt x="400" y="-273" on="1"/>
        <pt x="389" y="-273" on="1"/>
        <pt x="328" y="-273" on="0"/>
        <pt x="328" y="-241" on="1"/>
        <pt x="328" y="-237" on="1"/>
        <pt x="280" y="-259" on="0"/>
        <pt x="213" y="-259" on="1"/>
        <pt x="115" y="-259" on="0"/>
        <pt x="58" y="-214" on="1"/>
      </contour>
      <contour>
        <pt x="125" y="-110" on="1"/>
        <pt x="125" y="-156" on="0"/>
        <pt x="219" y="-156" on="1"/>
        <pt x="285" y="-156" on="0"/>
        <pt x="305" y="-128" on="1"/>
        <pt x="358" y="-148" on="1"/>
        <pt x="328" y="-201" on="0"/>
        <pt x="219" y="-201" on="1"/>
        <pt x="68" y="-201" on="0"/>
        <pt x="68" y="-110" on="1"/>
        <pt x="68" y="-18" on="0"/>
        <pt x="219" y="-18" on="1"/>
        <pt x="328" y="-18" on="0"/>
        <pt x="358" y="-71" on="1"/>
        <pt x="305" y="-92" on="1"/>
        <pt x="285" y="-63" on="0"/>
        <pt x="219" y="-63" on="1"/>
        <pt x="125" y="-63" on="0"/>
      </contour>
      <contour>
        <pt x="418" y="12" on="1"/>
        <pt x="353" y="0" on="0"/>
        <pt x="275" y="0" on="1"/>
        <pt x="142" y="0" on="0"/>
        <pt x="50" y="33" on="1"/>
        <pt x="50" y="123" on="1"/>
        <pt x="117" y="145" on="1"/>
        <pt x="178" y="116" on="0"/>
        <pt x="275" y="116" on="1"/>
        <pt x="360" y="116" on="0"/>
        <pt x="418" y="138" on="1"/>
        <pt x="418" y="175" on="1"/>
        <pt x="365" y="145" on="0"/>
        <pt x="285" y="145" on="1"/>
        <pt x="50" y="145" on="0"/>
        <pt x="50" y="332" on="1"/>
        <pt x="50" y="520" on="0"/>
        <pt x="285" y="520" on="1"/>
        <pt x="453" y="520" on="0"/>
        <pt x="500" y="428" on="1"/>
        <pt x="432" y="390" on="1"/>
        <pt x="391" y="454" on="0"/>
        <pt x="285" y="454" on="1"/>
        <pt x="132" y="454" on="0"/>
        <pt x="132" y="332" on="1"/>
        <pt x="132" y="202" on="0"/>
        <pt x="285" y="202" on="1"/>
        <pt x="391" y="202" on="0"/>
        <pt x="432" y="275" on="1"/>
        <pt x="500" y="237" on="1"/>
        <pt x="500" y="124" on="1"/>
        <pt x="419" y="72" on="0"/>
        <pt x="275" y="72" on="1"/>
        <pt x="193" y="72" on="0"/>
        <pt x="132" y="89" on="1"/>
        <pt x="132" y="57" on="1"/>
        <pt x="195" y="43" on="0"/>
        <pt x="275" y="43" on="1"/>
        <pt x="390" y="43" on="0"/>
        <pt x="469" y="72" on="1"/>
        <pt x="500" y="64" on="1"/>
        <pt x="500" y="-207" on="1"/>
        <pt x="550" y="-207" on="1"/>
        <pt x="550" y="-273" on="1"/>
        <pt x="418" y="-273" on="1"/>
      </contour>
    </TTGlyph>
    <TTGlyph name="u100B_1039_100C" xMin="50" yMin="-273" xMax="500" yMax="520">
      <contour>
        <pt x="50" y="520" on="0"/>
        <pt x="285" y="520" on="1"/>
        <pt x="453" y="520" on="0"/>
        <pt x="500" y="392" on="1"/>
        <pt x="422" y="367" on="1"/>
        <pt x="391" y="454" on="0"/>
        <pt x="285" y="454" on="1"/>
        <pt x="132" y="454" on="0"/>
        <pt x="132" y="96" on="0"/>
        <pt x="285" y="96" on="1"/>
        <pt x="391" y="96" on="0"/>
        <pt x="422" y="183" on="1"/>
        <pt x="500" y="158" on="1"/>
        <pt x="453" y="30" on="0"/>
        <pt x="285" y="30" on="1"/>
        <pt x="50" y="30" on="0"/>
      </contour>
      <contour>
        <pt x="500" y="-140" on="1"/>
        <pt x="500" y="-273" on="0"/>
        <pt x="346" y="-273" on="1"/>
        <pt x="200" y="-273" on="1"/>
        <pt x="50" y="-273" on="0"/>
        <pt x="50" y="-90" on="0"/>
        <pt x="200" y="-90" on="1"/>
        <pt x="262" y="-90" on="1"/>
        <pt x="262" y="-156" on="1"/>
        <pt x="200" y="-156" on="1"/>
        <pt x="132" y="-156" on="0"/>
        <pt x="132" y="-207" on="0"/>
        <pt x="200" y="-207" on="1"/>
        <pt x="346" y="-207" on="1"/>
        <pt x="418" y="-207" on="0"/>
        <pt x="418" y="-140" on="1"/>
        <pt x="418" y="-37" on="1"/>
        <pt x="357" y="-60" on="0"/>
        <pt x="275" y="-60" on="1"/>
        <pt x="123" y="-60" on="0"/>
        <pt x="50" y="10" on="1"/>
        <pt x="86" y="55" on="1"/>
        <pt x="178" y="0" on="0"/>
        <pt x="275" y="0" on="1"/>
        <pt x="360" y="0" on="0"/>
        <pt x="458" y="41" on="1"/>
        <pt x="500" y="11" on="1"/>
      </contour>
    </TTGlyph>
    <TTGlyph name="u100C" xMin="50" yMin="-273" xMax="500" yMax="520">
      <contour>
        <pt x="418" y="29" on="1"/>
        <pt x="365" y="0" on="0"/>
        <pt x="285" y="0" on="1"/>
        <pt x="50" y="0" on="0"/>
        <pt x="50" y="260" on="1"/>
        <pt x="50" y="520" on="0"/>
        <pt x="285" y="520" on="1"/>
        <pt x="453" y="520" on="0"/>
        <pt x="500" y="392" on="1"/>
        <pt x="422" y="367" on="1"/>
        <pt x="391" y="454" on="0"/>
        <pt x="285" y="454" on="1"/>
        <pt x="132" y="454" on="0"/>
        <pt x="132" y="260" on="1"/>
        <pt x="132" y="66" on="0"/>
        <pt x="285" y="66" on="1"/>
        <pt x="391" y="66" on="0"/>
        <pt x="422" y="153" on="1"/>
        <pt x="500" y="128" on="1"/>
        <pt x="500" y="-140" on="1"/>
        <pt x="500" y="-273" on="0"/>
        <pt x="346" y="-273" on="1"/>
        <pt x="200" y="-273" on="1"/>
        <pt x="50" y="-273" on="0"/>
        <pt x="50" y="-166" on="1"/>
        <pt x="50" y="-60" on="0"/>
        <pt x="200" y="-60" on="1"/>
        <pt x="262" y="-60" on="1"/>
        <pt x="262" y="-126" on="1"/>
        <pt x="200" y="-126" on="1"/>
        <pt x="132" y="-126" on="0"/>
        <pt x="132" y="-166" on="1"/>
        <pt x="132" y="-207" on="0"/>
        <pt x="200" y="-207" on="1"/>
        <pt x="346" y="-207" on="1"/>
        <pt x="418" y="-207" on="0"/>
        <pt x="418" y="-140" on="1"/>
      </contour>
    </TTGlyph>
    <TTGlyph name="u100D" xMin="50" yMin="-273" xMax="550" yMax="520">
      <contour>
        <pt x="418" y="-87" on="1"/>
        <pt x="357" y="-110" on="0"/>
        <pt x="275" y="-110" on="1"/>
        <pt x="131" y="-110" on="0"/>
        <pt x="50" y="-39" on="1"/>
        <pt x="50" y="128" on="1"/>
        <pt x="128" y="153" on="1"/>
        <pt x="159" y="66" on="0"/>
        <pt x="265" y="66" on="1"/>
        <pt x="418" y="66" on="0"/>
        <pt x="418" y="260" on="1"/>
        <pt x="418" y="454" on="0"/>
        <pt x="265" y="454" on="1"/>
        <pt x="159" y="454" on="0"/>
        <pt x="128" y="367" on="1"/>
        <pt x="50" y="392" on="1"/>
        <pt x="97" y="520" on="0"/>
        <pt x="265" y="520" on="1"/>
        <pt x="500" y="520" on="0"/>
        <pt x="500" y="260" on="1"/>
        <pt x="500" y="0" on="0"/>
        <pt x="265" y="0" on="1"/>
        <pt x="185" y="0" on="0"/>
        <pt x="132" y="29" on="1"/>
        <pt x="132" y="-19" on="1"/>
        <pt x="190" y="-50" on="0"/>
        <pt x="275" y="-50" on="1"/>
        <pt x="372" y="-50" on="0"/>
        <pt x="433" y="0" on="1"/>
        <pt x="500" y="-30" on="1"/>
        <pt x="500" y="-207" on="1"/>
        <pt x="550" y="-207" on="1"/>
        <pt x="550" y="-273" on="1"/>
        <pt x="418" y="-273" on="1"/>
      </contour>
    </TTGlyph>
    <TTGlyph name="u100D_1039_100D" xMin="50" yMin="-273" xMax="550" yMax="520">
      <contour>
        <pt x="70" y="-148" on="1"/>
        <pt x="123" y="-128" on="1"/>
        <pt x="143" y="-156" on="0"/>
        <pt x="209" y="-156" on="1"/>
        <pt x="303" y="-156" on="0"/>
        <pt x="303" y="-110" on="1"/>
        <pt x="303" y="-63" on="0"/>
        <pt x="209" y="-63" on="1"/>
        <pt x="143" y="-63" on="0"/>
        <pt x="123" y="-92" on="1"/>
        <pt x="70" y="-71" on="1"/>
        <pt x="100" y="-18" on="0"/>
        <pt x="209" y="-18" on="1"/>
        <pt x="360" y="-18" on="0"/>
        <pt x="360" y="-110" on="1"/>
        <pt x="360" y="-201" on="0"/>
        <pt x="209" y="-201" on="1"/>
        <pt x="146" y="-201" on="0"/>
        <pt x="109" y="-183" on="1"/>
        <pt x="109" y="-206" on="1"/>
        <pt x="158" y="-228" on="0"/>
        <pt x="213" y="-228" on="1"/>
        <pt x="304" y="-228" on="0"/>
        <pt x="353" y="-182" on="1"/>
        <pt x="367" y="-182" on="1"/>
        <pt x="367" y="-231" on="1"/>
        <pt x="367" y="-242" on="0"/>
        <pt x="389" y="-242" on="1"/>
        <pt x="400" y="-242" on="1"/>
        <pt x="400" y="-273" on="1"/>
        <pt x="389" y="-273" on="1"/>
        <pt x="328" y="-273" on="0"/>
        <pt x="328" y="-241" on="1"/>
        <pt x="328" y="-237" on="1"/>
        <pt x="280" y="-259" on="0"/>
        <pt x="213" y="-259" on="1"/>
        <pt x="123" y="-259" on="0"/>
        <pt x="70" y="-221" on="1"/>
      </contour>
      <contour>
        <pt x="500" y="-207" on="1"/>
        <pt x="550" y="-207" on="1"/>
        <pt x="550" y="-273" on="1"/>
        <pt x="418" y="-273" on="1"/>
        <pt x="418" y="19" on="1"/>
        <pt x="357" y="0" on="0"/>
        <pt x="275" y="0" on="1"/>
        <pt x="131" y="0" on="0"/>
        <pt x="50" y="59" on="1"/>
        <pt x="50" y="206" on="1"/>
        <pt x="128" y="227" on="1"/>
        <pt x="159" y="155" on="0"/>
        <pt x="265" y="155" on="1"/>
        <pt x="418" y="155" on="0"/>
        <pt x="418" y="305" on="1"/>
        <pt x="418" y="454" on="0"/>
        <pt x="265" y="454" on="1"/>
        <pt x="159" y="454" on="0"/>
        <pt x="128" y="384" on="1"/>
        <pt x="50" y="404" on="1"/>
        <pt x="97" y="520" on="0"/>
        <pt x="265" y="520" on="1"/>
        <pt x="500" y="520" on="0"/>
        <pt x="500" y="305" on="1"/>
        <pt x="500" y="91" on="0"/>
        <pt x="265" y="91" on="1"/>
        <pt x="185" y="91" on="0"/>
        <pt x="132" y="115" on="1"/>
        <pt x="132" y="75" on="1"/>
        <pt x="190" y="50" on="0"/>
        <pt x="275" y="50" on="1"/>
        <pt x="372" y="50" on="0"/>
        <pt x="433" y="91" on="1"/>
        <pt x="500" y="66" on="1"/>
      </contour>
    </TTGlyph>
    <TTGlyph name="u100E" xMin="50" yMin="0" xMax="500" yMax="520">
      <contour>
        <pt x="132" y="260" on="1"/>
        <pt x="132" y="66" on="0"/>
        <pt x="275" y="66" on="1"/>
        <pt x="418" y="66" on="0"/>
        <pt x="418" y="260" on="1"/>
        <pt x="418" y="424" on="0"/>
        <pt x="328" y="456" on="1"/>
        <pt x="355" y="520" on="1"/>
        <pt x="500" y="478" on="0"/>
        <pt x="500" y="260" on="1"/>
        <pt x="500" y="0" on="0"/>
        <pt x="275" y="0" on="1"/>
        <pt x="50" y="0" on="0"/>
        <pt x="50" y="260" on="1"/>
        <pt x="50" y="338" on="0"/>
        <pt x="161" y="377" on="1"/>
        <pt x="198" y="391" on="0"/>
        <pt x="198" y="416" on="1"/>
        <pt x="198" y="422" on="0"/>
        <pt x="196" y="429" on="1"/>
        <pt x="188" y="452" on="0"/>
        <pt x="166" y="452" on="1"/>
        <pt x="154" y="452" on="0"/>
        <pt x="138" y="445" on="1"/>
        <pt x="75" y="421" on="1"/>
        <pt x="50" y="481" on="1"/>
        <pt x="113" y="507" on="1"/>
        <pt x="146" y="520" on="0"/>
        <pt x="172" y="520" on="1"/>
        <pt x="232" y="520" on="0"/>
        <pt x="257" y="453" on="1"/>
        <pt x="266" y="429" on="0"/>
        <pt x="266" y="408" on="1"/>
        <pt x="266" y="346" on="0"/>
        <pt x="185" y="314" on="1"/>
        <pt x="132" y="294" on="0"/>
      </contour>
    </TTGlyph>
    <TTGlyph name="u100E_1039_100D" xMin="49" yMin="-103" xMax="599" yMax="520">
      <contour>
        <pt x="439" y="15" on="1"/>
        <pt x="389" y="0" on="0"/>
        <pt x="324" y="0" on="1"/>
        <pt x="49" y="0" on="0"/>
        <pt x="49" y="260" on="1"/>
        <pt x="49" y="338" on="0"/>
        <pt x="160" y="377" on="1"/>
        <pt x="197" y="391" on="0"/>
        <pt x="197" y="416" on="1"/>
        <pt x="197" y="422" on="0"/>
        <pt x="195" y="429" on="1"/>
        <pt x="187" y="452" on="0"/>
        <pt x="165" y="452" on="1"/>
        <pt x="153" y="452" on="0"/>
        <pt x="137" y="445" on="1"/>
        <pt x="74" y="421" on="1"/>
        <pt x="49" y="481" on="1"/>
        <pt x="112" y="507" on="1"/>
        <pt x="145" y="520" on="0"/>
        <pt x="171" y="520" on="1"/>
        <pt x="231" y="520" on="0"/>
        <pt x="256" y="453" on="1"/>
        <pt x="265" y="429" on="0"/>
        <pt x="265" y="408" on="1"/>
        <pt x="265" y="346" on="0"/>
        <pt x="184" y="314" on="1"/>
        <pt x="131" y="294" on="0"/>
        <pt x="131" y="260" on="1"/>
        <pt x="131" y="66" on="0"/>
        <pt x="324" y="66" on="1"/>
        <pt x="394" y="66" on="0"/>
        <pt x="439" y="92" on="1"/>
        <pt x="439" y="116" on="1"/>
        <pt x="391" y="95" on="0"/>
        <pt x="324" y="95" on="1"/>
        <pt x="226" y="95" on="0"/>
        <pt x="169" y="138" on="1"/>
        <pt x="178" y="169" on="1"/>
        <pt x="244" y="125" on="0"/>
        <pt x="324" y="125" on="1"/>
        <pt x="415" y="125" on="0"/>
        <pt x="464" y="170" on="1"/>
        <pt x="478" y="170" on="1"/>
        <pt x="478" y="125" on="1"/>
        <pt x="517" y="173" on="0"/>
        <pt x="517" y="260" on="1"/>
        <pt x="517" y="424" on="0"/>
        <pt x="427" y="456" on="1"/>
        <pt x="454" y="520" on="1"/>
        <pt x="599" y="478" on="0"/>
        <pt x="599" y="260" on="1"/>
        <pt x="599" y="88" on="0"/>
        <pt x="478" y="29" on="1"/>
        <pt x="478" y="-59" on="1"/>
        <pt x="478" y="-70" on="0"/>
        <pt x="500" y="-70" on="1"/>
        <pt x="511" y="-70" on="1"/>
        <pt x="511" y="-103" on="1"/>
        <pt x="500" y="-103" on="1"/>
        <pt x="439" y="-103" on="0"/>
        <pt x="439" y="-69" on="1"/>
      </contour>
      <contour>
        <pt x="320" y="287" on="1"/>
        <pt x="254" y="287" on="0"/>
        <pt x="234" y="259" on="1"/>
        <pt x="181" y="279" on="1"/>
        <pt x="211" y="331" on="0"/>
        <pt x="320" y="331" on="1"/>
        <pt x="471" y="331" on="0"/>
        <pt x="471" y="241" on="1"/>
        <pt x="471" y="151" on="0"/>
        <pt x="320" y="151" on="1"/>
        <pt x="211" y="151" on="0"/>
        <pt x="181" y="203" on="1"/>
        <pt x="234" y="224" on="1"/>
        <pt x="254" y="196" on="0"/>
        <pt x="320" y="196" on="1"/>
        <pt x="414" y="196" on="0"/>
        <pt x="414" y="241" on="1"/>
        <pt x="414" y="287" on="0"/>
      </contour>
    </TTGlyph>
    <TTGlyph name="u100F" xMin="50" yMin="0" xMax="1030" yMax="520">
      <contour>
        <pt x="655" y="473" on="1"/>
        <pt x="710" y="520" on="0"/>
        <pt x="805" y="520" on="1"/>
        <pt x="1030" y="520" on="0"/>
        <pt x="1030" y="260" on="1"/>
        <pt x="1030" y="42" on="0"/>
        <pt x="885" y="0" on="1"/>
        <pt x="858" y="64" on="1"/>
        <pt x="948" y="96" on="0"/>
        <pt x="948" y="260" on="1"/>
        <pt x="948" y="454" on="0"/>
        <pt x="805" y="454" on="1"/>
        <pt x="662" y="454" on="0"/>
        <pt x="662" y="260" on="1"/>
        <pt x="662" y="198" on="0"/>
        <pt x="666" y="173" on="1"/>
        <pt x="667" y="161" on="1"/>
        <pt x="676" y="128" on="0"/>
        <pt x="676" y="103" on="1"/>
        <pt x="676" y="0" on="0"/>
        <pt x="540" y="0" on="1"/>
        <pt x="404" y="0" on="0"/>
        <pt x="404" y="103" on="1"/>
        <pt x="404" y="128" on="0"/>
        <pt x="413" y="161" on="1"/>
        <pt x="415" y="173" on="1"/>
        <pt x="418" y="198" on="0"/>
        <pt x="418" y="260" on="1"/>
        <pt x="418" y="454" on="0"/>
        <pt x="275" y="454" on="1"/>
        <pt x="132" y="454" on="0"/>
        <pt x="132" y="260" on="1"/>
        <pt x="132" y="96" on="0"/>
        <pt x="222" y="64" on="1"/>
        <pt x="195" y="0" on="1"/>
        <pt x="50" y="42" on="0"/>
        <pt x="50" y="260" on="1"/>
        <pt x="50" y="520" on="0"/>
        <pt x="275" y="520" on="1"/>
        <pt x="370" y="520" on="0"/>
        <pt x="425" y="473" on="1"/>
        <pt x="456" y="520" on="0"/>
        <pt x="540" y="520" on="1"/>
        <pt x="624" y="520" on="0"/>
      </contour>
      <contour>
        <pt x="580" y="260" on="1"/>
        <pt x="580" y="356" on="0"/>
        <pt x="610" y="416" on="1"/>
        <pt x="596" y="454" on="0"/>
        <pt x="540" y="454" on="1"/>
        <pt x="484" y="454" on="0"/>
        <pt x="470" y="416" on="1"/>
        <pt x="500" y="356" on="0"/>
        <pt x="500" y="260" on="1"/>
        <pt x="500" y="198" on="0"/>
        <pt x="488" y="150" on="1"/>
        <pt x="479" y="127" on="0"/>
        <pt x="479" y="110" on="1"/>
        <pt x="479" y="66" on="0"/>
        <pt x="540" y="66" on="1"/>
        <pt x="601" y="66" on="0"/>
        <pt x="601" y="110" on="1"/>
        <pt x="601" y="127" on="0"/>
        <pt x="592" y="150" on="1"/>
        <pt x="580" y="198" on="0"/>
      </contour>
    </TTGlyph>
    <TTGlyph name="u100F_100D" xMin="50" yMin="-271" xMax="1030" yMax="520">
      <contour>
        <pt x="580" y="260" on="1"/>
        <pt x="580" y="356" on="0"/>
        <pt x="610" y="416" on="1"/>
        <pt x="596" y="454" on="0"/>
        <pt x="540" y="454" on="1"/>
        <pt x="484" y="454" on="0"/>
        <pt x="470" y="416" on="1"/>
        <pt x="500" y="356" on="0"/>
        <pt x="500" y="260" on="1"/>
        <pt x="500" y="198" on="0"/>
        <pt x="488" y="150" on="1"/>
        <pt x="479" y="127" on="0"/>
        <pt x="479" y="110" on="1"/>
        <pt x="479" y="66" on="0"/>
        <pt x="540" y="66" on="1"/>
        <pt x="601" y="66" on="0"/>
        <pt x="601" y="110" on="1"/>
        <pt x="601" y="127" on="0"/>
        <pt x="592" y="150" on="1"/>
        <pt x="580" y="198" on="0"/>
      </contour>
      <contour>
        <pt x="881" y="9" on="1"/>
        <pt x="858" y="64" on="1"/>
        <pt x="948" y="96" on="0"/>
        <pt x="948" y="260" on="1"/>
        <pt x="948" y="454" on="0"/>
        <pt x="805" y="454" on="1"/>
        <pt x="662" y="454" on="0"/>
        <pt x="662" y="260" on="1"/>
        <pt x="662" y="198" on="0"/>
        <pt x="666" y="173" on="1"/>
        <pt x="667" y="161" on="1"/>
        <pt x="676" y="128" on="0"/>
        <pt x="676" y="103" on="1"/>
        <pt x="676" y="0" on="0"/>
        <pt x="540" y="0" on="1"/>
        <pt x="404" y="0" on="0"/>
        <pt x="404" y="103" on="1"/>
        <pt x="404" y="128" on="0"/>
        <pt x="413" y="161" on="1"/>
        <pt x="415" y="173" on="1"/>
        <pt x="418" y="198" on="0"/>
        <pt x="418" y="260" on="1"/>
        <pt x="418" y="454" on="0"/>
        <pt x="275" y="454" on="1"/>
        <pt x="132" y="454" on="0"/>
        <pt x="132" y="260" on="1"/>
        <pt x="132" y="96" on="0"/>
        <pt x="222" y="64" on="1"/>
        <pt x="195" y="0" on="1"/>
        <pt x="50" y="42" on="0"/>
        <pt x="50" y="260" on="1"/>
        <pt x="50" y="520" on="0"/>
        <pt x="275" y="520" on="1"/>
        <pt x="370" y="520" on="0"/>
        <pt x="425" y="473" on="1"/>
        <pt x="456" y="520" on="0"/>
        <pt x="540" y="520" on="1"/>
        <pt x="624" y="520" on="0"/>
        <pt x="655" y="473" on="1"/>
        <pt x="710" y="520" on="0"/>
        <pt x="805" y="520" on="1"/>
        <pt x="1030" y="520" on="0"/>
        <pt x="1030" y="260" on="1"/>
        <pt x="1030" y="74" on="0"/>
        <pt x="924" y="16" on="1"/>
        <pt x="947" y="16" on="1"/>
        <pt x="947" y="-70" on="1"/>
        <pt x="761" y="-70" on="1"/>
        <pt x="784" y="-95" on="0"/>
        <pt x="784" y="-142" on="1"/>
        <pt x="784" y="-225" on="0"/>
        <pt x="713" y="-271" on="1"/>
        <pt x="546" y="-271" on="1"/>
        <pt x="521" y="-227" on="1"/>
        <pt x="608" y="-209" on="0"/>
        <pt x="608" y="-148" on="1"/>
        <pt x="608" y="-70" on="0"/>
        <pt x="414" y="-70" on="1"/>
        <pt x="220" y="-70" on="0"/>
        <pt x="220" y="-148" on="1"/>
        <pt x="220" y="-199" on="0"/>
        <pt x="307" y="-217" on="1"/>
        <pt x="282" y="-271" on="1"/>
        <pt x="154" y="-245" on="0"/>
        <pt x="154" y="-148" on="1"/>
        <pt x="154" y="-13" on="0"/>
        <pt x="414" y="-13" on="1"/>
        <pt x="674" y="-13" on="0"/>
        <pt x="674" y="-148" on="1"/>
        <pt x="674" y="-194" on="0"/>
        <pt x="645" y="-214" on="1"/>
        <pt x="693" y="-214" on="1"/>
        <pt x="724" y="-191" on="0"/>
        <pt x="724" y="-142" on="1"/>
        <pt x="724" y="-87" on="0"/>
        <pt x="674" y="-52" on="1"/>
        <pt x="704" y="-13" on="1"/>
        <pt x="881" y="-13" on="1"/>
      </contour>
    </TTGlyph>
    <TTGlyph name="u1010" xMin="50" yMin="0" xMax="833" yMax="520">
      <contour>
        <pt x="50" y="260" on="1"/>
        <pt x="50" y="520" on="0"/>
        <pt x="275" y="520" on="1"/>
        <pt x="385" y="520" on="0"/>
        <pt x="441" y="458" on="1"/>
        <pt x="498" y="520" on="0"/>
        <pt x="608" y="520" on="1"/>
        <pt x="833" y="520" on="0"/>
        <pt x="833" y="260" on="1"/>
        <pt x="833" y="0" on="0"/>
        <pt x="608" y="0" on="1"/>
        <pt x="608" y="66" on="1"/>
        <pt x="751" y="66" on="0"/>
        <pt x="751" y="260" on="1"/>
        <pt x="751" y="454" on="0"/>
        <pt x="608" y="454" on="1"/>
        <pt x="519" y="454" on="0"/>
        <pt x="485" y="378" on="1"/>
        <pt x="500" y="328" on="0"/>
        <pt x="500" y="260" on="1"/>
        <pt x="500" y="0" on="0"/>
        <pt x="275" y="0" on="1"/>
        <pt x="50" y="0" on="0"/>
      </contour>
      <contour>
        <pt x="418" y="260" on="1"/>
        <pt x="418" y="454" on="0"/>
        <pt x="275" y="454" on="1"/>
        <pt x="132" y="454" on="0"/>
        <pt x="132" y="260" on="1"/>
        <pt x="132" y="66" on="0"/>
        <pt x="275" y="66" on="1"/>
        <pt x="418" y="66" on="0"/>
      </contour>
    </TTGlyph>
    <TTGlyph name="u1011" xMin="50" yMin="0" xMax="833" yMax="520">
      <contour>
        <pt x="275" y="0" on="1"/>
        <pt x="50" y="0" on="0"/>
        <pt x="50" y="260" on="1"/>
        <pt x="50" y="520" on="0"/>
        <pt x="275" y="520" on="1"/>
        <pt x="385" y="520" on="0"/>
        <pt x="441" y="458" on="1"/>
        <pt x="498" y="520" on="0"/>
        <pt x="608" y="520" on="1"/>
        <pt x="833" y="520" on="0"/>
        <pt x="833" y="260" on="1"/>
        <pt x="833" y="0" on="0"/>
        <pt x="608" y="0" on="1"/>
        <pt x="498" y="0" on="0"/>
        <pt x="441" y="62" on="1"/>
        <pt x="385" y="0" on="0"/>
      </contour>
      <contour>
        <pt x="608" y="66" on="1"/>
        <pt x="751" y="66" on="0"/>
        <pt x="751" y="260" on="1"/>
        <pt x="751" y="454" on="0"/>
        <pt x="608" y="454" on="1"/>
        <pt x="519" y="454" on="0"/>
        <pt x="485" y="378" on="1"/>
        <pt x="500" y="328" on="0"/>
        <pt x="500" y="260" on="1"/>
        <pt x="500" y="192" on="0"/>
        <pt x="485" y="142" on="1"/>
        <pt x="519" y="66" on="0"/>
      </contour>
      <contour>
        <pt x="418" y="260" on="1"/>
        <pt x="418" y="454" on="0"/>
        <pt x="275" y="454" on="1"/>
        <pt x="132" y="454" on="0"/>
        <pt x="132" y="260" on="1"/>
        <pt x="132" y="66" on="0"/>
        <pt x="275" y="66" on="1"/>
        <pt x="418" y="66" on="0"/>
      </contour>
    </TTGlyph>
    <TTGlyph name="u1012" xMin="50" yMin="0" xMax="500" yMax="520">
      <contour>
        <pt x="97" y="0" on="0"/>
        <pt x="50" y="128" on="1"/>
        <pt x="128" y="153" on="1"/>
        <pt x="159" y="66" on="0"/>
        <pt x="275" y="66" on="1"/>
        <pt x="418" y="66" on="0"/>
        <pt x="418" y="150" on="1"/>
        <pt x="418" y="227" on="0"/>
        <pt x="306" y="227" on="1"/>
        <pt x="306" y="293" on="1"/>
        <pt x="418" y="293" on="0"/>
        <pt x="418" y="370" on="1"/>
        <pt x="418" y="454" on="0"/>
        <pt x="275" y="454" on="1"/>
        <pt x="132" y="454" on="0"/>
        <pt x="132" y="370" on="1"/>
        <pt x="132" y="336" on="0"/>
        <pt x="180" y="336" on="1"/>
        <pt x="180" y="270" on="1"/>
        <pt x="50" y="270" on="0"/>
        <pt x="50" y="370" on="1"/>
        <pt x="50" y="520" on="0"/>
        <pt x="275" y="520" on="1"/>
        <pt x="500" y="520" on="0"/>
        <pt x="500" y="370" on="1"/>
        <pt x="500" y="296" on="0"/>
        <pt x="440" y="260" on="1"/>
        <pt x="500" y="224" on="0"/>
        <pt x="500" y="150" on="1"/>
        <pt x="500" y="0" on="0"/>
        <pt x="275" y="0" on="1"/>
      </contour>
    </TTGlyph>
    <TTGlyph name="u1013" xMin="50" yMin="0" xMax="500" yMax="520">
      <contour>
        <pt x="416" y="221" on="1"/>
        <pt x="418" y="239" on="0"/>
        <pt x="418" y="260" on="1"/>
        <pt x="418" y="454" on="0"/>
        <pt x="275" y="454" on="1"/>
        <pt x="132" y="454" on="0"/>
        <pt x="132" y="260" on="1"/>
        <pt x="132" y="239" on="0"/>
        <pt x="134" y="220" on="1"/>
        <pt x="187" y="260" on="0"/>
        <pt x="275" y="260" on="1"/>
        <pt x="363" y="260" on="0"/>
      </contour>
      <contour>
        <pt x="158" y="130" on="1"/>
        <pt x="193" y="66" on="0"/>
        <pt x="275" y="66" on="1"/>
        <pt x="357" y="66" on="0"/>
        <pt x="392" y="130" on="1"/>
        <pt x="357" y="194" on="0"/>
        <pt x="275" y="194" on="1"/>
        <pt x="193" y="194" on="0"/>
      </contour>
      <contour>
        <pt x="275" y="520" on="1"/>
        <pt x="500" y="520" on="0"/>
        <pt x="500" y="260" on="1"/>
        <pt x="500" y="0" on="0"/>
        <pt x="275" y="0" on="1"/>
        <pt x="50" y="0" on="0"/>
        <pt x="50" y="260" on="1"/>
        <pt x="50" y="520" on="0"/>
      </contour>
    </TTGlyph>
    <TTGlyph name="u1014" xMin="50" yMin="-273" xMax="500" yMax="520">
      <contour>
        <pt x="258" y="66" on="1"/>
        <pt x="258" y="100" on="1"/>
        <pt x="258" y="164" on="0"/>
        <pt x="175" y="164" on="1"/>
        <pt x="132" y="164" on="0"/>
        <pt x="132" y="120" on="1"/>
        <pt x="132" y="69" on="0"/>
      </contour>
      <contour>
        <pt x="340" y="4" on="1"/>
        <pt x="340" y="-273" on="1"/>
        <pt x="258" y="-273" on="1"/>
        <pt x="258" y="0" on="1"/>
        <pt x="50" y="5" on="0"/>
        <pt x="50" y="120" on="1"/>
        <pt x="50" y="230" on="0"/>
        <pt x="175" y="230" on="1"/>
        <pt x="340" y="230" on="0"/>
        <pt x="340" y="100" on="1"/>
        <pt x="340" y="72" on="1"/>
        <pt x="418" y="91" on="0"/>
        <pt x="418" y="160" on="1"/>
        <pt x="418" y="235" on="0"/>
        <pt x="286" y="271" on="1"/>
        <pt x="110" y="319" on="0"/>
        <pt x="110" y="410" on="1"/>
        <pt x="110" y="520" on="0"/>
        <pt x="275" y="520" on="1"/>
        <pt x="386" y="520" on="0"/>
        <pt x="440" y="433" on="1"/>
        <pt x="372" y="390" on="1"/>
        <pt x="337" y="454" on="0"/>
        <pt x="275" y="454" on="1"/>
        <pt x="192" y="454" on="0"/>
        <pt x="192" y="410" on="1"/>
        <pt x="192" y="365" on="0"/>
        <pt x="303" y="335" on="1"/>
        <pt x="500" y="281" on="0"/>
        <pt x="500" y="160" on="1"/>
        <pt x="500" y="25" on="0"/>
      </contour>
    </TTGlyph>
    <TTGlyph name="u1014_alt" xMin="50" yMin="0" xMax="500" yMax="520">
      <contour>
        <pt x="258" y="66" on="1"/>
        <pt x="258" y="100" on="1"/>
        <pt x="258" y="164" on="0"/>
        <pt x="175" y="164" on="1"/>
        <pt x="132" y="164" on="0"/>
        <pt x="132" y="120" on="1"/>
        <pt x="132" y="69" on="0"/>
      </contour>
      <contour>
        <pt x="275" y="0" on="1"/>
        <pt x="50" y="0" on="0"/>
        <pt x="50" y="120" on="1"/>
        <pt x="50" y="230" on="0"/>
        <pt x="175" y="230" on="1"/>
        <pt x="340" y="230" on="0"/>
        <pt x="340" y="100" on="1"/>
        <pt x="340" y="72" on="1"/>
        <pt x="418" y="91" on="0"/>
        <pt x="418" y="160" on="1"/>
        <pt x="418" y="235" on="0"/>
        <pt x="286" y="271" on="1"/>
        <pt x="110" y="319" on="0"/>
        <pt x="110" y="410" on="1"/>
        <pt x="110" y="520" on="0"/>
        <pt x="275" y="520" on="1"/>
        <pt x="386" y="520" on="0"/>
        <pt x="440" y="433" on="1"/>
        <pt x="372" y="390" on="1"/>
        <pt x="337" y="454" on="0"/>
        <pt x="275" y="454" on="1"/>
        <pt x="192" y="454" on="0"/>
        <pt x="192" y="410" on="1"/>
        <pt x="192" y="365" on="0"/>
        <pt x="303" y="335" on="1"/>
        <pt x="500" y="281" on="0"/>
        <pt x="500" y="160" on="1"/>
        <pt x="500" y="0" on="0"/>
      </contour>
    </TTGlyph>
    <TTGlyph name="u1015" xMin="50" yMin="0" xMax="500" yMax="520">
      <contour>
        <pt x="50" y="0" on="0"/>
        <pt x="50" y="260" on="1"/>
        <pt x="50" y="478" on="0"/>
        <pt x="195" y="520" on="1"/>
        <pt x="222" y="456" on="1"/>
        <pt x="132" y="424" on="0"/>
        <pt x="132" y="260" on="1"/>
        <pt x="132" y="66" on="0"/>
        <pt x="275" y="66" on="1"/>
        <pt x="418" y="66" on="0"/>
        <pt x="418" y="260" on="1"/>
        <pt x="418" y="424" on="0"/>
        <pt x="328" y="456" on="1"/>
        <pt x="355" y="520" on="1"/>
        <pt x="500" y="478" on="0"/>
        <pt x="500" y="260" on="1"/>
        <pt x="500" y="0" on="0"/>
        <pt x="275" y="0" on="1"/>
      </contour>
    </TTGlyph>
    <TTGlyph name="u1016" xMin="50" yMin="0" xMax="500" yMax="520">
      <contour>
        <pt x="355" y="520" on="1"/>
        <pt x="500" y="478" on="0"/>
        <pt x="500" y="260" on="1"/>
        <pt x="500" y="0" on="0"/>
        <pt x="275" y="0" on="1"/>
        <pt x="50" y="0" on="0"/>
        <pt x="50" y="260" on="1"/>
        <pt x="50" y="478" on="0"/>
        <pt x="195" y="520" on="1"/>
        <pt x="222" y="456" on="1"/>
        <pt x="132" y="424" on="0"/>
        <pt x="132" y="260" on="1"/>
        <pt x="132" y="66" on="0"/>
        <pt x="275" y="66" on="1"/>
        <pt x="370" y="66" on="0"/>
        <pt x="402" y="152" on="1"/>
        <pt x="362" y="167" on="0"/>
        <pt x="330" y="201" on="1"/>
        <pt x="274" y="259" on="0"/>
        <pt x="274" y="342" on="1"/>
        <pt x="274" y="444" on="0"/>
      </contour>
      <contour>
        <pt x="370" y="429" on="1"/>
        <pt x="340" y="392" on="0"/>
        <pt x="340" y="342" on="1"/>
        <pt x="340" y="286" on="0"/>
        <pt x="377" y="247" on="1"/>
        <pt x="395" y="228" on="0"/>
        <pt x="416" y="218" on="1"/>
        <pt x="418" y="238" on="0"/>
        <pt x="418" y="260" on="1"/>
        <pt x="418" y="380" on="0"/>
      </contour>
    </TTGlyph>
    <TTGlyph name="u1017" xMin="50" yMin="0" xMax="500" yMax="520">
      <contour>
        <pt x="334" y="470" on="1"/>
        <pt x="355" y="520" on="1"/>
        <pt x="500" y="478" on="0"/>
        <pt x="500" y="260" on="1"/>
        <pt x="500" y="0" on="0"/>
        <pt x="275" y="0" on="1"/>
        <pt x="50" y="0" on="0"/>
        <pt x="50" y="260" on="1"/>
        <pt x="50" y="478" on="0"/>
        <pt x="195" y="520" on="1"/>
        <pt x="216" y="470" on="1"/>
        <pt x="216" y="445" on="1"/>
        <pt x="216" y="396" on="0"/>
        <pt x="275" y="396" on="1"/>
        <pt x="334" y="396" on="0"/>
        <pt x="334" y="445" on="1"/>
      </contour>
      <contour>
        <pt x="393" y="397" on="1"/>
        <pt x="370" y="330" on="0"/>
        <pt x="275" y="330" on="1"/>
        <pt x="180" y="330" on="0"/>
        <pt x="157" y="397" on="1"/>
        <pt x="132" y="347" on="0"/>
        <pt x="132" y="260" on="1"/>
        <pt x="132" y="66" on="0"/>
        <pt x="275" y="66" on="1"/>
        <pt x="418" y="66" on="0"/>
        <pt x="418" y="260" on="1"/>
        <pt x="418" y="347" on="0"/>
      </contour>
    </TTGlyph>
    <TTGlyph name="u1018" xMin="50" yMin="0" xMax="833" yMax="520">
      <contour>
        <pt x="500" y="260" on="1"/>
        <pt x="500" y="0" on="0"/>
        <pt x="265" y="0" on="1"/>
        <pt x="97" y="0" on="0"/>
        <pt x="50" y="128" on="1"/>
        <pt x="128" y="153" on="1"/>
        <pt x="159" y="66" on="0"/>
        <pt x="265" y="66" on="1"/>
        <pt x="418" y="66" on="0"/>
        <pt x="418" y="260" on="1"/>
        <pt x="418" y="454" on="0"/>
        <pt x="266" y="454" on="1"/>
        <pt x="160" y="454" on="0"/>
        <pt x="129" y="367" on="1"/>
        <pt x="51" y="392" on="1"/>
        <pt x="98" y="520" on="0"/>
        <pt x="266" y="520" on="1"/>
        <pt x="385" y="520" on="0"/>
        <pt x="441" y="458" on="1"/>
        <pt x="498" y="520" on="0"/>
        <pt x="608" y="520" on="1"/>
        <pt x="833" y="520" on="0"/>
        <pt x="833" y="260" on="1"/>
        <pt x="833" y="0" on="0"/>
        <pt x="608" y="0" on="1"/>
        <pt x="608" y="66" on="1"/>
        <pt x="751" y="66" on="0"/>
        <pt x="751" y="260" on="1"/>
        <pt x="751" y="454" on="0"/>
        <pt x="608" y="454" on="1"/>
        <pt x="519" y="454" on="0"/>
        <pt x="485" y="378" on="1"/>
        <pt x="500" y="328" on="0"/>
      </contour>
    </TTGlyph>
    <TTGlyph name="u1019" xMin="50" yMin="0" xMax="500" yMax="520">
      <contour>
        <pt x="158" y="130" on="1"/>
        <pt x="193" y="66" on="0"/>
        <pt x="275" y="66" on="1"/>
        <pt x="357" y="66" on="0"/>
        <pt x="392" y="130" on="1"/>
        <pt x="357" y="194" on="0"/>
        <pt x="275" y="194" on="1"/>
        <pt x="193" y="194" on="0"/>
      </contour>
      <contour>
        <pt x="50" y="260" on="1"/>
        <pt x="50" y="478" on="0"/>
        <pt x="195" y="520" on="1"/>
        <pt x="222" y="456" on="1"/>
        <pt x="132" y="424" on="0"/>
        <pt x="132" y="260" on="1"/>
        <pt x="132" y="239" on="0"/>
        <pt x="134" y="220" on="1"/>
        <pt x="187" y="260" on="0"/>
        <pt x="275" y="260" on="1"/>
        <pt x="363" y="260" on="0"/>
        <pt x="416" y="221" on="1"/>
        <pt x="418" y="239" on="0"/>
        <pt x="418" y="260" on="1"/>
        <pt x="418" y="424" on="0"/>
        <pt x="328" y="456" on="1"/>
        <pt x="355" y="520" on="1"/>
        <pt x="500" y="478" on="0"/>
        <pt x="500" y="260" on="1"/>
        <pt x="500" y="0" on="0"/>
        <pt x="275" y="0" on="1"/>
        <pt x="50" y="0" on="0"/>
      </contour>
    </TTGlyph>
    <TTGlyph name="u101A" xMin="50" yMin="0" xMax="833" yMax="520">
      <contour>
        <pt x="519" y="66" on="0"/>
        <pt x="608" y="66" on="1"/>
        <pt x="751" y="66" on="0"/>
        <pt x="751" y="260" on="1"/>
        <pt x="751" y="454" on="0"/>
        <pt x="608" y="454" on="1"/>
        <pt x="608" y="520" on="1"/>
        <pt x="833" y="520" on="0"/>
        <pt x="833" y="260" on="1"/>
        <pt x="833" y="0" on="0"/>
        <pt x="608" y="0" on="1"/>
        <pt x="498" y="0" on="0"/>
        <pt x="441" y="62" on="1"/>
        <pt x="385" y="0" on="0"/>
        <pt x="275" y="0" on="1"/>
        <pt x="50" y="0" on="0"/>
        <pt x="50" y="260" on="1"/>
        <pt x="50" y="478" on="0"/>
        <pt x="195" y="520" on="1"/>
        <pt x="222" y="456" on="1"/>
        <pt x="132" y="424" on="0"/>
        <pt x="132" y="260" on="1"/>
        <pt x="132" y="66" on="0"/>
        <pt x="275" y="66" on="1"/>
        <pt x="418" y="66" on="0"/>
        <pt x="418" y="260" on="1"/>
        <pt x="418" y="424" on="0"/>
        <pt x="328" y="456" on="1"/>
        <pt x="355" y="520" on="1"/>
        <pt x="500" y="478" on="0"/>
        <pt x="500" y="260" on="1"/>
        <pt x="500" y="192" on="0"/>
        <pt x="485" y="142" on="1"/>
      </contour>
    </TTGlyph>
    <TTGlyph name="u101B" xMin="50" yMin="-273" xMax="550" yMax="520">
      <contour>
        <pt x="275" y="0" on="1"/>
        <pt x="50" y="0" on="0"/>
        <pt x="50" y="260" on="1"/>
        <pt x="50" y="520" on="0"/>
        <pt x="275" y="520" on="1"/>
        <pt x="500" y="520" on="0"/>
        <pt x="500" y="260" on="1"/>
        <pt x="500" y="-207" on="1"/>
        <pt x="550" y="-207" on="1"/>
        <pt x="550" y="-273" on="1"/>
        <pt x="418" y="-273" on="1"/>
        <pt x="418" y="260" on="1"/>
        <pt x="418" y="454" on="0"/>
        <pt x="275" y="454" on="1"/>
        <pt x="160" y="454" on="0"/>
        <pt x="137" y="328" on="1"/>
        <pt x="161" y="324" on="0"/>
        <pt x="185" y="314" on="1"/>
        <pt x="259" y="283" on="0"/>
        <pt x="292" y="207" on="1"/>
        <pt x="309" y="168" on="0"/>
        <pt x="309" y="126" on="1"/>
        <pt x="309" y="66" on="0"/>
      </contour>
      <contour>
        <pt x="233" y="71" on="1"/>
        <pt x="242" y="103" on="0"/>
        <pt x="242" y="130" on="1"/>
        <pt x="242" y="158" on="0"/>
        <pt x="232" y="180" on="1"/>
        <pt x="210" y="232" on="0"/>
        <pt x="160" y="253" on="1"/>
        <pt x="146" y="259" on="0"/>
        <pt x="132" y="262" on="1"/>
        <pt x="132" y="260" on="1"/>
        <pt x="132" y="97" on="0"/>
      </contour>
    </TTGlyph>
    <TTGlyph name="u101B_alt" xMin="50" yMin="-173" xMax="500" yMax="520">
      <contour>
        <pt x="275" y="0" on="1"/>
        <pt x="50" y="0" on="0"/>
        <pt x="50" y="260" on="1"/>
        <pt x="50" y="520" on="0"/>
        <pt x="275" y="520" on="1"/>
        <pt x="500" y="520" on="0"/>
        <pt x="500" y="260" on="1"/>
        <pt x="500" y="-173" on="1"/>
        <pt x="418" y="-173" on="1"/>
        <pt x="418" y="260" on="1"/>
        <pt x="418" y="454" on="0"/>
        <pt x="275" y="454" on="1"/>
        <pt x="160" y="454" on="0"/>
        <pt x="137" y="328" on="1"/>
        <pt x="161" y="324" on="0"/>
        <pt x="185" y="314" on="1"/>
        <pt x="259" y="283" on="0"/>
        <pt x="292" y="207" on="1"/>
        <pt x="309" y="168" on="0"/>
        <pt x="309" y="126" on="1"/>
        <pt x="309" y="66" on="0"/>
      </contour>
      <contour>
        <pt x="233" y="71" on="1"/>
        <pt x="242" y="103" on="0"/>
        <pt x="242" y="130" on="1"/>
        <pt x="242" y="158" on="0"/>
        <pt x="232" y="180" on="1"/>
        <pt x="210" y="232" on="0"/>
        <pt x="160" y="253" on="1"/>
        <pt x="146" y="259" on="0"/>
        <pt x="132" y="262" on="1"/>
        <pt x="132" y="260" on="1"/>
        <pt x="132" y="97" on="0"/>
      </contour>
    </TTGlyph>
    <TTGlyph name="u101C" xMin="50" yMin="0" xMax="868" yMax="520">
      <contour>
        <pt x="868" y="260" on="1"/>
        <pt x="868" y="0" on="0"/>
        <pt x="643" y="0" on="1"/>
        <pt x="418" y="0" on="0"/>
        <pt x="418" y="260" on="1"/>
        <pt x="418" y="454" on="0"/>
        <pt x="275" y="454" on="1"/>
        <pt x="132" y="454" on="0"/>
        <pt x="132" y="260" on="1"/>
        <pt x="132" y="66" on="0"/>
        <pt x="275" y="66" on="1"/>
        <pt x="275" y="0" on="1"/>
        <pt x="50" y="0" on="0"/>
        <pt x="50" y="260" on="1"/>
        <pt x="50" y="520" on="0"/>
        <pt x="275" y="520" on="1"/>
        <pt x="500" y="520" on="0"/>
        <pt x="500" y="260" on="1"/>
        <pt x="500" y="66" on="0"/>
        <pt x="643" y="66" on="1"/>
        <pt x="786" y="66" on="0"/>
        <pt x="786" y="260" on="1"/>
        <pt x="786" y="454" on="0"/>
        <pt x="643" y="454" on="1"/>
        <pt x="643" y="520" on="1"/>
        <pt x="868" y="520" on="0"/>
      </contour>
    </TTGlyph>
    <TTGlyph name="u101D" xMin="50" yMin="0" xMax="500" yMax="520">
      <contour>
        <pt x="275" y="454" on="1"/>
        <pt x="132" y="454" on="0"/>
        <pt x="132" y="260" on="1"/>
        <pt x="132" y="66" on="0"/>
        <pt x="275" y="66" on="1"/>
        <pt x="418" y="66" on="0"/>
        <pt x="418" y="260" on="1"/>
        <pt x="418" y="454" on="0"/>
      </contour>
      <contour>
        <pt x="275" y="520" on="1"/>
        <pt x="500" y="520" on="0"/>
        <pt x="500" y="260" on="1"/>
        <pt x="500" y="0" on="0"/>
        <pt x="275" y="0" on="1"/>
        <pt x="50" y="0" on="0"/>
        <pt x="50" y="260" on="1"/>
        <pt x="50" y="520" on="0"/>
      </contour>
    </TTGlyph>
    <TTGlyph name="u101E" xMin="50" yMin="0" xMax="833" yMax="520">
      <contour>
        <pt x="500" y="192" on="0"/>
        <pt x="485" y="142" on="1"/>
        <pt x="519" y="66" on="0"/>
        <pt x="608" y="66" on="1"/>
        <pt x="751" y="66" on="0"/>
        <pt x="751" y="260" on="1"/>
        <pt x="751" y="454" on="0"/>
        <pt x="608" y="454" on="1"/>
        <pt x="608" y="520" on="1"/>
        <pt x="833" y="520" on="0"/>
        <pt x="833" y="260" on="1"/>
        <pt x="833" y="0" on="0"/>
        <pt x="608" y="0" on="1"/>
        <pt x="498" y="0" on="0"/>
        <pt x="441" y="62" on="1"/>
        <pt x="385" y="0" on="0"/>
        <pt x="266" y="0" on="1"/>
        <pt x="98" y="0" on="0"/>
        <pt x="51" y="128" on="1"/>
        <pt x="129" y="153" on="1"/>
        <pt x="160" y="66" on="0"/>
        <pt x="266" y="66" on="1"/>
        <pt x="418" y="66" on="0"/>
        <pt x="418" y="260" on="1"/>
        <pt x="418" y="454" on="0"/>
        <pt x="265" y="454" on="1"/>
        <pt x="159" y="454" on="0"/>
        <pt x="128" y="367" on="1"/>
        <pt x="50" y="392" on="1"/>
        <pt x="97" y="520" on="0"/>
        <pt x="265" y="520" on="1"/>
        <pt x="500" y="520" on="0"/>
        <pt x="500" y="260" on="1"/>
      </contour>
    </TTGlyph>
    <TTGlyph name="u101F" xMin="50" yMin="0" xMax="833" yMax="520">
      <contour>
        <pt x="445" y="462" on="1"/>
        <pt x="502" y="520" on="0"/>
        <pt x="608" y="520" on="1"/>
        <pt x="833" y="520" on="0"/>
        <pt x="833" y="260" on="1"/>
        <pt x="833" y="0" on="0"/>
        <pt x="608" y="0" on="1"/>
        <pt x="608" y="66" on="1"/>
        <pt x="751" y="66" on="0"/>
        <pt x="751" y="260" on="1"/>
        <pt x="751" y="454" on="0"/>
        <pt x="608" y="454" on="1"/>
        <pt x="520" y="454" on="0"/>
        <pt x="486" y="380" on="1"/>
        <pt x="500" y="328" on="0"/>
        <pt x="500" y="260" on="1"/>
        <pt x="500" y="0" on="0"/>
        <pt x="275" y="0" on="1"/>
        <pt x="50" y="0" on="0"/>
        <pt x="50" y="260" on="1"/>
        <pt x="50" y="478" on="0"/>
        <pt x="195" y="520" on="1"/>
        <pt x="222" y="456" on="1"/>
        <pt x="132" y="424" on="0"/>
        <pt x="132" y="260" on="1"/>
        <pt x="132" y="66" on="0"/>
        <pt x="275" y="66" on="1"/>
        <pt x="418" y="66" on="0"/>
        <pt x="418" y="260" on="1"/>
        <pt x="418" y="424" on="0"/>
        <pt x="328" y="456" on="1"/>
        <pt x="355" y="520" on="1"/>
        <pt x="411" y="504" on="0"/>
      </contour>
    </TTGlyph>
    <TTGlyph name="u1020" xMin="50" yMin="-273" xMax="500" yMax="520">
      <contour>
        <pt x="377" y="-207" on="1"/>
        <pt x="418" y="-207" on="0"/>
        <pt x="418" y="-170" on="1"/>
        <pt x="418" y="-130" on="1"/>
        <pt x="500" y="-130" on="1"/>
        <pt x="500" y="-170" on="1"/>
        <pt x="500" y="-273" on="0"/>
        <pt x="377" y="-273" on="1"/>
        <pt x="182" y="-273" on="1"/>
        <pt x="50" y="-273" on="0"/>
        <pt x="50" y="-170" on="1"/>
        <pt x="50" y="-30" on="1"/>
        <pt x="117" y="0" on="1"/>
        <pt x="178" y="-50" on="0"/>
        <pt x="275" y="-50" on="1"/>
        <pt x="360" y="-50" on="0"/>
        <pt x="418" y="-19" on="1"/>
        <pt x="418" y="29" on="1"/>
        <pt x="365" y="0" on="0"/>
        <pt x="285" y="0" on="1"/>
        <pt x="50" y="0" on="0"/>
        <pt x="50" y="260" on="1"/>
        <pt x="50" y="520" on="0"/>
        <pt x="285" y="520" on="1"/>
        <pt x="453" y="520" on="0"/>
        <pt x="500" y="392" on="1"/>
        <pt x="422" y="367" on="1"/>
        <pt x="391" y="454" on="0"/>
        <pt x="285" y="454" on="1"/>
        <pt x="132" y="454" on="0"/>
        <pt x="132" y="260" on="1"/>
        <pt x="132" y="66" on="0"/>
        <pt x="285" y="66" on="1"/>
        <pt x="391" y="66" on="0"/>
        <pt x="422" y="153" on="1"/>
        <pt x="500" y="128" on="1"/>
        <pt x="500" y="-39" on="1"/>
        <pt x="419" y="-110" on="0"/>
        <pt x="275" y="-110" on="1"/>
        <pt x="193" y="-110" on="0"/>
        <pt x="132" y="-87" on="1"/>
        <pt x="132" y="-170" on="1"/>
        <pt x="132" y="-207" on="0"/>
        <pt x="182" y="-207" on="1"/>
      </contour>
    </TTGlyph>
    <TTGlyph name="u1021" xMin="50" yMin="0" xMax="833" yMax="520">
      <contour>
        <pt x="751" y="260" on="1"/>
        <pt x="751" y="262" on="1"/>
        <pt x="737" y="259" on="0"/>
        <pt x="723" y="253" on="1"/>
        <pt x="673" y="232" on="0"/>
        <pt x="651" y="180" on="1"/>
        <pt x="641" y="158" on="0"/>
        <pt x="641" y="130" on="1"/>
        <pt x="641" y="103" on="0"/>
        <pt x="650" y="71" on="1"/>
        <pt x="751" y="97" on="0"/>
      </contour>
      <contour>
        <pt x="457" y="473" on="1"/>
        <pt x="512" y="520" on="0"/>
        <pt x="608" y="520" on="1"/>
        <pt x="833" y="520" on="0"/>
        <pt x="833" y="260" on="1"/>
        <pt x="833" y="0" on="0"/>
        <pt x="608" y="0" on="1"/>
        <pt x="574" y="66" on="0"/>
        <pt x="574" y="126" on="1"/>
        <pt x="574" y="168" on="0"/>
        <pt x="591" y="207" on="1"/>
        <pt x="624" y="283" on="0"/>
        <pt x="698" y="314" on="1"/>
        <pt x="722" y="324" on="0"/>
        <pt x="746" y="328" on="1"/>
        <pt x="723" y="454" on="0"/>
        <pt x="608" y="454" on="1"/>
        <pt x="533" y="454" on="0"/>
        <pt x="497" y="401" on="1"/>
        <pt x="500" y="387" on="0"/>
        <pt x="500" y="370" on="1"/>
        <pt x="500" y="296" on="0"/>
        <pt x="440" y="260" on="1"/>
        <pt x="500" y="224" on="0"/>
        <pt x="500" y="150" on="1"/>
        <pt x="500" y="0" on="0"/>
        <pt x="275" y="0" on="1"/>
        <pt x="97" y="0" on="0"/>
        <pt x="50" y="128" on="1"/>
        <pt x="128" y="153" on="1"/>
        <pt x="159" y="66" on="0"/>
        <pt x="275" y="66" on="1"/>
        <pt x="418" y="66" on="0"/>
        <pt x="418" y="150" on="1"/>
        <pt x="418" y="227" on="0"/>
        <pt x="306" y="227" on="1"/>
        <pt x="306" y="293" on="1"/>
        <pt x="418" y="293" on="0"/>
        <pt x="418" y="370" on="1"/>
        <pt x="418" y="454" on="0"/>
        <pt x="275" y="454" on="1"/>
        <pt x="132" y="454" on="0"/>
        <pt x="132" y="380" on="1"/>
        <pt x="132" y="356" on="0"/>
        <pt x="180" y="356" on="1"/>
        <pt x="180" y="290" on="1"/>
        <pt x="50" y="290" on="0"/>
        <pt x="50" y="380" on="1"/>
        <pt x="50" y="520" on="0"/>
        <pt x="275" y="520" on="1"/>
        <pt x="401" y="520" on="0"/>
      </contour>
    </TTGlyph>
    <TTGlyph name="u1022" xMin="50" yMin="0" xMax="833" yMax="520">
      <contour>
        <pt x="50" y="39" on="1"/>
        <pt x="75" y="99" on="1"/>
        <pt x="138" y="75" on="1"/>
        <pt x="154" y="68" on="0"/>
        <pt x="166" y="68" on="1"/>
        <pt x="188" y="68" on="0"/>
        <pt x="196" y="91" on="1"/>
        <pt x="198" y="98" on="0"/>
        <pt x="198" y="104" on="1"/>
        <pt x="198" y="129" on="0"/>
        <pt x="161" y="143" on="1"/>
        <pt x="50" y="182" on="0"/>
        <pt x="50" y="260" on="1"/>
        <pt x="50" y="520" on="0"/>
        <pt x="275" y="520" on="1"/>
        <pt x="385" y="520" on="0"/>
        <pt x="441" y="458" on="1"/>
        <pt x="498" y="520" on="0"/>
        <pt x="608" y="520" on="1"/>
        <pt x="833" y="520" on="0"/>
        <pt x="833" y="260" on="1"/>
        <pt x="833" y="0" on="0"/>
        <pt x="608" y="0" on="1"/>
        <pt x="608" y="66" on="1"/>
        <pt x="751" y="66" on="0"/>
        <pt x="751" y="260" on="1"/>
        <pt x="751" y="454" on="0"/>
        <pt x="608" y="454" on="1"/>
        <pt x="519" y="454" on="0"/>
        <pt x="485" y="378" on="1"/>
        <pt x="500" y="328" on="0"/>
        <pt x="500" y="260" on="1"/>
        <pt x="500" y="42" on="0"/>
        <pt x="355" y="0" on="1"/>
        <pt x="328" y="64" on="1"/>
        <pt x="418" y="96" on="0"/>
        <pt x="418" y="260" on="1"/>
        <pt x="418" y="454" on="0"/>
        <pt x="275" y="454" on="1"/>
        <pt x="132" y="454" on="0"/>
        <pt x="132" y="260" on="1"/>
        <pt x="132" y="226" on="0"/>
        <pt x="185" y="206" on="1"/>
        <pt x="266" y="174" on="0"/>
        <pt x="266" y="112" on="1"/>
        <pt x="266" y="91" on="0"/>
        <pt x="257" y="67" on="1"/>
        <pt x="232" y="0" on="0"/>
        <pt x="172" y="0" on="1"/>
        <pt x="146" y="0" on="0"/>
        <pt x="113" y="13" on="1"/>
      </contour>
    </TTGlyph>
    <TTGlyph name="u1023" xMin="50" yMin="-273" xMax="833" yMax="520">
      <contour>
        <pt x="485" y="378" on="1"/>
        <pt x="500" y="328" on="0"/>
        <pt x="500" y="260" on="1"/>
        <pt x="500" y="42" on="0"/>
        <pt x="355" y="0" on="1"/>
        <pt x="328" y="64" on="1"/>
        <pt x="418" y="96" on="0"/>
        <pt x="418" y="260" on="1"/>
        <pt x="418" y="454" on="0"/>
        <pt x="275" y="454" on="1"/>
        <pt x="132" y="454" on="0"/>
        <pt x="132" y="260" on="1"/>
        <pt x="132" y="96" on="0"/>
        <pt x="222" y="64" on="1"/>
        <pt x="195" y="0" on="1"/>
        <pt x="50" y="42" on="0"/>
        <pt x="50" y="260" on="1"/>
        <pt x="50" y="520" on="0"/>
        <pt x="275" y="520" on="1"/>
        <pt x="385" y="520" on="0"/>
        <pt x="441" y="458" on="1"/>
        <pt x="498" y="520" on="0"/>
        <pt x="608" y="520" on="1"/>
        <pt x="833" y="520" on="0"/>
        <pt x="833" y="260" on="1"/>
        <pt x="833" y="0" on="0"/>
        <pt x="608" y="0" on="1"/>
        <pt x="608" y="66" on="1"/>
        <pt x="751" y="66" on="0"/>
        <pt x="751" y="260" on="1"/>
        <pt x="751" y="454" on="0"/>
        <pt x="608" y="454" on="1"/>
        <pt x="519" y="454" on="0"/>
      </contour>
      <contour>
        <pt x="622" y="-273" on="1"/>
        <pt x="622" y="-223" on="1"/>
        <pt x="687" y="-223" on="0"/>
        <pt x="687" y="-148" on="1"/>
        <pt x="687" y="-73" on="0"/>
        <pt x="582" y="-73" on="1"/>
        <pt x="477" y="-73" on="0"/>
        <pt x="477" y="-148" on="1"/>
        <pt x="477" y="-252" on="0"/>
        <pt x="377" y="-273" on="1"/>
        <pt x="353" y="-227" on="1"/>
        <pt x="407" y="-212" on="0"/>
        <pt x="407" y="-148" on="1"/>
        <pt x="407" y="-73" on="0"/>
        <pt x="302" y="-73" on="1"/>
        <pt x="197" y="-73" on="0"/>
        <pt x="197" y="-148" on="1"/>
        <pt x="197" y="-212" on="0"/>
        <pt x="251" y="-227" on="1"/>
        <pt x="227" y="-273" on="1"/>
        <pt x="127" y="-252" on="0"/>
        <pt x="127" y="-148" on="1"/>
        <pt x="127" y="-23" on="0"/>
        <pt x="302" y="-23" on="1"/>
        <pt x="399" y="-23" on="0"/>
        <pt x="442" y="-61" on="1"/>
        <pt x="485" y="-23" on="0"/>
        <pt x="582" y="-23" on="1"/>
        <pt x="757" y="-23" on="0"/>
        <pt x="757" y="-148" on="1"/>
        <pt x="757" y="-194" on="0"/>
        <pt x="739" y="-223" on="1"/>
        <pt x="798" y="-223" on="1"/>
        <pt x="800" y="-273" on="1"/>
      </contour>
    </TTGlyph>
    <TTGlyph name="u1024" xMin="50" yMin="-273" xMax="1065" yMax="979">
      <contour>
        <pt x="200" y="-273" on="1"/>
        <pt x="50" y="-273" on="0"/>
        <pt x="50" y="-156" on="1"/>
        <pt x="50" y="-40" on="0"/>
        <pt x="200" y="-40" on="1"/>
        <pt x="401" y="-40" on="0"/>
        <pt x="602" y="-100" on="1"/>
        <pt x="602" y="-166" on="1"/>
        <pt x="401" y="-106" on="0"/>
        <pt x="200" y="-106" on="1"/>
        <pt x="132" y="-106" on="0"/>
        <pt x="132" y="-156" on="1"/>
        <pt x="132" y="-207" on="0"/>
        <pt x="200" y="-207" on="1"/>
        <pt x="691" y="-207" on="1"/>
        <pt x="751" y="-207" on="0"/>
        <pt x="751" y="-150" on="1"/>
        <pt x="751" y="260" on="1"/>
        <pt x="751" y="454" on="0"/>
        <pt x="608" y="454" on="1"/>
        <pt x="519" y="454" on="0"/>
        <pt x="485" y="378" on="1"/>
        <pt x="500" y="328" on="0"/>
        <pt x="500" y="260" on="1"/>
        <pt x="500" y="42" on="0"/>
        <pt x="355" y="0" on="1"/>
        <pt x="328" y="64" on="1"/>
        <pt x="418" y="96" on="0"/>
        <pt x="418" y="260" on="1"/>
        <pt x="418" y="454" on="0"/>
        <pt x="275" y="454" on="1"/>
        <pt x="132" y="454" on="0"/>
        <pt x="132" y="260" on="1"/>
        <pt x="132" y="96" on="0"/>
        <pt x="222" y="64" on="1"/>
        <pt x="195" y="0" on="1"/>
        <pt x="50" y="42" on="0"/>
        <pt x="50" y="260" on="1"/>
        <pt x="50" y="520" on="0"/>
        <pt x="275" y="520" on="1"/>
        <pt x="385" y="520" on="0"/>
        <pt x="441" y="458" on="1"/>
        <pt x="498" y="520" on="0"/>
        <pt x="608" y="520" on="1"/>
        <pt x="833" y="520" on="0"/>
        <pt x="833" y="260" on="1"/>
        <pt x="833" y="-150" on="1"/>
        <pt x="833" y="-273" on="0"/>
        <pt x="691" y="-273" on="1"/>
      </contour>
      <contour>
        <pt x="1015" y="300" on="1"/>
        <pt x="1015" y="-273" on="1"/>
        <pt x="933" y="-273" on="1"/>
        <pt x="933" y="300" on="1"/>
        <pt x="933" y="461" on="0"/>
        <pt x="789" y="530" on="1"/>
        <pt x="644" y="600" on="0"/>
        <pt x="644" y="754" on="1"/>
        <pt x="644" y="979" on="0"/>
        <pt x="869" y="979" on="1"/>
        <pt x="1022" y="979" on="0"/>
        <pt x="1065" y="868" on="1"/>
        <pt x="1012" y="838" on="1"/>
        <pt x="978" y="913" on="0"/>
        <pt x="869" y="913" on="1"/>
        <pt x="710" y="913" on="0"/>
        <pt x="710" y="754" on="1"/>
        <pt x="710" y="641" on="0"/>
        <pt x="817" y="590" on="1"/>
        <pt x="1015" y="495" on="0"/>
      </contour>
    </TTGlyph>
    <TTGlyph name="u1025" xMin="50" yMin="-273" xMax="500" yMax="520">
      <contour>
        <pt x="204" y="-273" on="1"/>
        <pt x="50" y="-273" on="0"/>
        <pt x="50" y="-140" on="1"/>
        <pt x="50" y="128" on="1"/>
        <pt x="128" y="153" on="1"/>
        <pt x="159" y="66" on="0"/>
        <pt x="265" y="66" on="1"/>
        <pt x="418" y="66" on="0"/>
        <pt x="418" y="260" on="1"/>
        <pt x="418" y="454" on="0"/>
        <pt x="265" y="454" on="1"/>
        <pt x="159" y="454" on="0"/>
        <pt x="128" y="367" on="1"/>
        <pt x="50" y="392" on="1"/>
        <pt x="97" y="520" on="0"/>
        <pt x="265" y="520" on="1"/>
        <pt x="500" y="520" on="0"/>
        <pt x="500" y="260" on="1"/>
        <pt x="500" y="0" on="0"/>
        <pt x="265" y="0" on="1"/>
        <pt x="185" y="0" on="0"/>
        <pt x="132" y="29" on="1"/>
        <pt x="132" y="-140" on="1"/>
        <pt x="132" y="-207" on="0"/>
        <pt x="204" y="-207" on="1"/>
        <pt x="350" y="-207" on="1"/>
        <pt x="418" y="-207" on="0"/>
        <pt x="418" y="-166" on="1"/>
        <pt x="418" y="-126" on="0"/>
        <pt x="350" y="-126" on="1"/>
        <pt x="288" y="-126" on="1"/>
        <pt x="288" y="-60" on="1"/>
        <pt x="350" y="-60" on="1"/>
        <pt x="500" y="-60" on="0"/>
        <pt x="500" y="-166" on="1"/>
        <pt x="500" y="-273" on="0"/>
        <pt x="350" y="-273" on="1"/>
      </contour>
    </TTGlyph>
    <TTGlyph name="u1025_alt" xMin="50" yMin="-273" xMax="500" yMax="520">
      <contour>
        <pt x="204" y="-273" on="1"/>
        <pt x="50" y="-273" on="0"/>
        <pt x="50" y="-140" on="1"/>
        <pt x="50" y="128" on="1"/>
        <pt x="128" y="153" on="1"/>
        <pt x="159" y="66" on="0"/>
        <pt x="265" y="66" on="1"/>
        <pt x="418" y="66" on="0"/>
        <pt x="418" y="260" on="1"/>
        <pt x="418" y="454" on="0"/>
        <pt x="265" y="454" on="1"/>
        <pt x="159" y="454" on="0"/>
        <pt x="128" y="367" on="1"/>
        <pt x="50" y="392" on="1"/>
        <pt x="97" y="520" on="0"/>
        <pt x="265" y="520" on="1"/>
        <pt x="500" y="520" on="0"/>
        <pt x="500" y="260" on="1"/>
        <pt x="500" y="0" on="0"/>
        <pt x="265" y="0" on="1"/>
        <pt x="185" y="0" on="0"/>
        <pt x="132" y="29" on="1"/>
        <pt x="132" y="-140" on="1"/>
        <pt x="132" y="-207" on="0"/>
        <pt x="204" y="-207" on="1"/>
      </contour>
    </TTGlyph>
    <TTGlyph name="u1026" xMin="50" yMin="-273" xMax="500" yMax="920">
      <contour>
        <pt x="204" y="-273" on="1"/>
        <pt x="50" y="-273" on="0"/>
        <pt x="50" y="-140" on="1"/>
        <pt x="50" y="128" on="1"/>
        <pt x="128" y="153" on="1"/>
        <pt x="159" y="66" on="0"/>
        <pt x="265" y="66" on="1"/>
        <pt x="418" y="66" on="0"/>
        <pt x="418" y="260" on="1"/>
        <pt x="418" y="454" on="0"/>
        <pt x="265" y="454" on="1"/>
        <pt x="159" y="454" on="0"/>
        <pt x="128" y="367" on="1"/>
        <pt x="50" y="392" on="1"/>
        <pt x="97" y="520" on="0"/>
        <pt x="265" y="520" on="1"/>
        <pt x="500" y="520" on="0"/>
        <pt x="500" y="260" on="1"/>
        <pt x="500" y="0" on="0"/>
        <pt x="265" y="0" on="1"/>
        <pt x="185" y="0" on="0"/>
        <pt x="132" y="29" on="1"/>
        <pt x="132" y="-140" on="1"/>
        <pt x="132" y="-207" on="0"/>
        <pt x="204" y="-207" on="1"/>
        <pt x="350" y="-207" on="1"/>
        <pt x="418" y="-207" on="0"/>
        <pt x="418" y="-166" on="1"/>
        <pt x="418" y="-126" on="0"/>
        <pt x="350" y="-126" on="1"/>
        <pt x="288" y="-126" on="1"/>
        <pt x="288" y="-60" on="1"/>
        <pt x="350" y="-60" on="1"/>
        <pt x="500" y="-60" on="0"/>
        <pt x="500" y="-166" on="1"/>
        <pt x="500" y="-273" on="0"/>
        <pt x="350" y="-273" on="1"/>
      </contour>
      <contour>
        <pt x="384" y="735" on="1"/>
        <pt x="384" y="745" on="1"/>
        <pt x="384" y="854" on="0"/>
        <pt x="275" y="854" on="1"/>
        <pt x="166" y="854" on="0"/>
        <pt x="166" y="745" on="1"/>
        <pt x="166" y="734" on="1"/>
        <pt x="212" y="760" on="0"/>
        <pt x="275" y="760" on="1"/>
        <pt x="338" y="760" on="0"/>
      </contour>
      <contour>
        <pt x="185" y="673" on="1"/>
        <pt x="212" y="636" on="0"/>
        <pt x="275" y="636" on="1"/>
        <pt x="338" y="636" on="0"/>
        <pt x="365" y="673" on="1"/>
        <pt x="331" y="701" on="0"/>
        <pt x="275" y="701" on="1"/>
        <pt x="219" y="701" on="0"/>
      </contour>
      <contour>
        <pt x="275" y="920" on="1"/>
        <pt x="450" y="920" on="0"/>
        <pt x="450" y="745" on="1"/>
        <pt x="450" y="570" on="0"/>
        <pt x="275" y="570" on="1"/>
        <pt x="100" y="570" on="0"/>
        <pt x="100" y="745" on="1"/>
        <pt x="100" y="920" on="0"/>
      </contour>
    </TTGlyph>
    <TTGlyph name="u1027" xMin="50" yMin="0" xMax="500" yMax="520">
      <contour>
        <pt x="379" y="350" on="0"/>
        <pt x="413" y="385" on="1"/>
        <pt x="376" y="454" on="0"/>
        <pt x="285" y="454" on="1"/>
        <pt x="220" y="454" on="0"/>
        <pt x="182" y="419" on="1"/>
        <pt x="208" y="374" on="0"/>
        <pt x="276" y="357" on="1"/>
        <pt x="303" y="350" on="0"/>
        <pt x="327" y="350" on="1"/>
      </contour>
      <contour>
        <pt x="379" y="170" on="0"/>
        <pt x="327" y="170" on="1"/>
        <pt x="303" y="170" on="0"/>
        <pt x="276" y="163" on="1"/>
        <pt x="208" y="146" on="0"/>
        <pt x="182" y="101" on="1"/>
        <pt x="220" y="66" on="0"/>
        <pt x="285" y="66" on="1"/>
        <pt x="376" y="66" on="0"/>
        <pt x="413" y="135" on="1"/>
      </contour>
      <contour>
        <pt x="132" y="209" on="0"/>
        <pt x="142" y="172" on="1"/>
        <pt x="184" y="208" on="0"/>
        <pt x="260" y="227" on="1"/>
        <pt x="304" y="238" on="0"/>
        <pt x="341" y="238" on="1"/>
        <pt x="444" y="238" on="0"/>
        <pt x="500" y="156" on="1"/>
        <pt x="458" y="0" on="0"/>
        <pt x="285" y="0" on="1"/>
        <pt x="50" y="0" on="0"/>
        <pt x="50" y="260" on="1"/>
        <pt x="50" y="520" on="0"/>
        <pt x="285" y="520" on="1"/>
        <pt x="458" y="520" on="0"/>
        <pt x="500" y="364" on="1"/>
        <pt x="444" y="282" on="0"/>
        <pt x="341" y="282" on="1"/>
        <pt x="304" y="282" on="0"/>
        <pt x="260" y="293" on="1"/>
        <pt x="184" y="312" on="0"/>
        <pt x="142" y="348" on="1"/>
        <pt x="132" y="311" on="0"/>
        <pt x="132" y="260" on="1"/>
      </contour>
    </TTGlyph>
    <TTGlyph name="u1028" xMin="50" yMin="-273" xMax="500" yMax="520">
      <contour>
        <pt x="452" y="-273" on="0"/>
        <pt x="275" y="-273" on="1"/>
        <pt x="50" y="-273" on="0"/>
        <pt x="50" y="-13" on="1"/>
        <pt x="50" y="260" on="1"/>
        <pt x="50" y="520" on="0"/>
        <pt x="275" y="520" on="1"/>
        <pt x="500" y="520" on="0"/>
        <pt x="500" y="260" on="1"/>
        <pt x="500" y="190" on="1"/>
        <pt x="500" y="0" on="0"/>
        <pt x="365" y="0" on="1"/>
        <pt x="230" y="0" on="0"/>
        <pt x="230" y="100" on="1"/>
        <pt x="230" y="177" on="0"/>
        <pt x="279" y="200" on="1"/>
        <pt x="309" y="214" on="0"/>
        <pt x="309" y="255" on="1"/>
        <pt x="309" y="289" on="0"/>
        <pt x="275" y="289" on="1"/>
        <pt x="241" y="289" on="0"/>
        <pt x="241" y="255" on="1"/>
        <pt x="175" y="255" on="1"/>
        <pt x="175" y="355" on="0"/>
        <pt x="275" y="355" on="1"/>
        <pt x="375" y="355" on="0"/>
        <pt x="375" y="255" on="1"/>
        <pt x="375" y="172" on="0"/>
        <pt x="320" y="146" on="1"/>
        <pt x="296" y="135" on="0"/>
        <pt x="296" y="100" on="1"/>
        <pt x="296" y="66" on="0"/>
        <pt x="365" y="66" on="1"/>
        <pt x="418" y="66" on="0"/>
        <pt x="418" y="190" on="1"/>
        <pt x="418" y="260" on="1"/>
        <pt x="418" y="454" on="0"/>
        <pt x="275" y="454" on="1"/>
        <pt x="132" y="454" on="0"/>
        <pt x="132" y="260" on="1"/>
        <pt x="132" y="-13" on="1"/>
        <pt x="132" y="-207" on="0"/>
        <pt x="275" y="-207" on="1"/>
        <pt x="387" y="-207" on="0"/>
        <pt x="411" y="-89" on="1"/>
        <pt x="490" y="-111" on="1"/>
      </contour>
    </TTGlyph>
    <TTGlyph name="u1029" xMin="50" yMin="-273" xMax="1015" yMax="893">
      <contour>
        <pt x="751" y="2" on="1"/>
        <pt x="669" y="12" on="0"/>
        <pt x="623" y="62" on="1"/>
        <pt x="567" y="0" on="0"/>
        <pt x="448" y="0" on="1"/>
        <pt x="280" y="0" on="0"/>
        <pt x="233" y="128" on="1"/>
        <pt x="311" y="153" on="1"/>
        <pt x="342" y="66" on="0"/>
        <pt x="448" y="66" on="1"/>
        <pt x="600" y="66" on="0"/>
        <pt x="600" y="260" on="1"/>
        <pt x="600" y="454" on="0"/>
        <pt x="447" y="454" on="1"/>
        <pt x="341" y="454" on="0"/>
        <pt x="310" y="367" on="1"/>
        <pt x="232" y="392" on="1"/>
        <pt x="279" y="520" on="0"/>
        <pt x="447" y="520" on="1"/>
        <pt x="682" y="520" on="0"/>
        <pt x="682" y="260" on="1"/>
        <pt x="682" y="192" on="0"/>
        <pt x="667" y="142" on="1"/>
        <pt x="701" y="66" on="0"/>
        <pt x="790" y="66" on="1"/>
        <pt x="933" y="66" on="0"/>
        <pt x="933" y="260" on="1"/>
        <pt x="933" y="454" on="0"/>
        <pt x="790" y="454" on="1"/>
        <pt x="790" y="520" on="1"/>
        <pt x="1015" y="520" on="0"/>
        <pt x="1015" y="260" on="1"/>
        <pt x="1015" y="26" on="0"/>
        <pt x="833" y="3" on="1"/>
        <pt x="833" y="-140" on="1"/>
        <pt x="833" y="-273" on="0"/>
        <pt x="680" y="-273" on="1"/>
        <pt x="204" y="-273" on="1"/>
        <pt x="50" y="-273" on="0"/>
        <pt x="50" y="-140" on="1"/>
        <pt x="50" y="760" on="1"/>
        <pt x="50" y="893" on="0"/>
        <pt x="204" y="893" on="1"/>
        <pt x="833" y="893" on="1"/>
        <pt x="833" y="827" on="1"/>
        <pt x="204" y="827" on="1"/>
        <pt x="132" y="827" on="0"/>
        <pt x="132" y="760" on="1"/>
        <pt x="132" y="-140" on="1"/>
        <pt x="132" y="-207" on="0"/>
        <pt x="204" y="-207" on="1"/>
        <pt x="680" y="-207" on="1"/>
        <pt x="751" y="-207" on="0"/>
        <pt x="751" y="-140" on="1"/>
      </contour>
    </TTGlyph>
    <TTGlyph name="u102A" xMin="50" yMin="-273" xMax="1898" yMax="920">
      <contour>
        <pt x="260" y="227" on="1"/>
        <pt x="304" y="238" on="0"/>
        <pt x="341" y="238" on="1"/>
        <pt x="444" y="238" on="0"/>
        <pt x="500" y="156" on="1"/>
        <pt x="458" y="0" on="0"/>
        <pt x="285" y="0" on="1"/>
        <pt x="50" y="0" on="0"/>
        <pt x="50" y="260" on="1"/>
        <pt x="50" y="520" on="0"/>
        <pt x="285" y="520" on="1"/>
        <pt x="453" y="520" on="0"/>
        <pt x="500" y="392" on="1"/>
        <pt x="422" y="367" on="1"/>
        <pt x="391" y="454" on="0"/>
        <pt x="285" y="454" on="1"/>
        <pt x="132" y="454" on="0"/>
        <pt x="132" y="260" on="1"/>
        <pt x="132" y="209" on="0"/>
        <pt x="142" y="172" on="1"/>
        <pt x="184" y="208" on="0"/>
      </contour>
      <contour>
        <pt x="327" y="170" on="1"/>
        <pt x="303" y="170" on="0"/>
        <pt x="276" y="163" on="1"/>
        <pt x="208" y="146" on="0"/>
        <pt x="182" y="101" on="1"/>
        <pt x="220" y="66" on="0"/>
        <pt x="285" y="66" on="1"/>
        <pt x="376" y="66" on="0"/>
        <pt x="413" y="135" on="1"/>
        <pt x="379" y="170" on="0"/>
      </contour>
      <contour>
        <pt x="1301" y="2" on="1"/>
        <pt x="1219" y="12" on="0"/>
        <pt x="1173" y="62" on="1"/>
        <pt x="1117" y="0" on="0"/>
        <pt x="998" y="0" on="1"/>
        <pt x="830" y="0" on="0"/>
        <pt x="783" y="128" on="1"/>
        <pt x="861" y="153" on="1"/>
        <pt x="892" y="66" on="0"/>
        <pt x="998" y="66" on="1"/>
        <pt x="1150" y="66" on="0"/>
        <pt x="1150" y="260" on="1"/>
        <pt x="1150" y="454" on="0"/>
        <pt x="997" y="454" on="1"/>
        <pt x="891" y="454" on="0"/>
        <pt x="860" y="367" on="1"/>
        <pt x="782" y="392" on="1"/>
        <pt x="829" y="520" on="0"/>
        <pt x="997" y="520" on="1"/>
        <pt x="1232" y="520" on="0"/>
        <pt x="1232" y="260" on="1"/>
        <pt x="1232" y="192" on="0"/>
        <pt x="1217" y="142" on="1"/>
        <pt x="1251" y="66" on="0"/>
        <pt x="1340" y="66" on="1"/>
        <pt x="1483" y="66" on="0"/>
        <pt x="1483" y="260" on="1"/>
        <pt x="1483" y="454" on="0"/>
        <pt x="1340" y="454" on="1"/>
        <pt x="1340" y="520" on="1"/>
        <pt x="1450" y="520" on="0"/>
        <pt x="1506" y="458" on="1"/>
        <pt x="1563" y="520" on="0"/>
        <pt x="1673" y="520" on="1"/>
        <pt x="1898" y="520" on="0"/>
        <pt x="1898" y="260" on="1"/>
        <pt x="1898" y="0" on="0"/>
        <pt x="1673" y="0" on="1"/>
        <pt x="1673" y="66" on="1"/>
        <pt x="1816" y="66" on="0"/>
        <pt x="1816" y="260" on="1"/>
        <pt x="1816" y="454" on="0"/>
        <pt x="1673" y="454" on="1"/>
        <pt x="1584" y="454" on="0"/>
        <pt x="1550" y="378" on="1"/>
        <pt x="1565" y="328" on="0"/>
        <pt x="1565" y="260" on="1"/>
        <pt x="1565" y="26" on="0"/>
        <pt x="1383" y="3" on="1"/>
        <pt x="1383" y="-140" on="1"/>
        <pt x="1383" y="-273" on="0"/>
        <pt x="1230" y="-273" on="1"/>
        <pt x="754" y="-273" on="1"/>
        <pt x="600" y="-273" on="0"/>
        <pt x="600" y="-140" on="1"/>
        <pt x="600" y="760" on="1"/>
        <pt x="600" y="893" on="0"/>
        <pt x="754" y="893" on="1"/>
        <pt x="1433" y="893" on="1"/>
        <pt x="1433" y="827" on="1"/>
        <pt x="754" y="827" on="1"/>
        <pt x="682" y="827" on="0"/>
        <pt x="682" y="760" on="1"/>
        <pt x="682" y="-140" on="1"/>
        <pt x="682" y="-207" on="0"/>
        <pt x="754" y="-207" on="1"/>
        <pt x="1230" y="-207" on="1"/>
        <pt x="1301" y="-207" on="0"/>
        <pt x="1301" y="-140" on="1"/>
      </contour>
      <contour>
        <pt x="1752" y="854" on="0"/>
        <pt x="1675" y="854" on="1"/>
        <pt x="1566" y="854" on="0"/>
        <pt x="1566" y="745" on="1"/>
        <pt x="1566" y="636" on="0"/>
        <pt x="1675" y="636" on="1"/>
        <pt x="1675" y="570" on="1"/>
        <pt x="1500" y="570" on="0"/>
        <pt x="1500" y="745" on="1"/>
        <pt x="1500" y="920" on="0"/>
        <pt x="1675" y="920" on="1"/>
        <pt x="1803" y="920" on="0"/>
        <pt x="1837" y="827" on="1"/>
        <pt x="1775" y="799" on="1"/>
      </contour>
    </TTGlyph>
    <TTGlyph name="u102B" xMin="-218" yMin="0" xMax="132" yMax="845">
      <contour>
        <pt x="132" y="0" on="1"/>
        <pt x="50" y="0" on="1"/>
        <pt x="50" y="670" on="1"/>
        <pt x="50" y="779" on="0"/>
        <pt x="-43" y="779" on="1"/>
        <pt x="-152" y="779" on="0"/>
        <pt x="-152" y="670" on="1"/>
        <pt x="-218" y="670" on="1"/>
        <pt x="-218" y="845" on="0"/>
        <pt x="-43" y="845" on="1"/>
        <pt x="132" y="845" on="0"/>
        <pt x="132" y="670" on="1"/>
      </contour>
    </TTGlyph>
    <TTGlyph name="u102B_103A" xMin="-218" yMin="0" xMax="400" yMax="745">
      <contour>
        <pt x="225" y="679" on="1"/>
        <pt x="132" y="679" on="0"/>
        <pt x="132" y="570" on="1"/>
        <pt x="132" y="0" on="1"/>
        <pt x="50" y="0" on="1"/>
        <pt x="50" y="570" on="1"/>
        <pt x="50" y="679" on="0"/>
        <pt x="-43" y="679" on="1"/>
        <pt x="-152" y="679" on="0"/>
        <pt x="-152" y="570" on="1"/>
        <pt x="-218" y="570" on="1"/>
        <pt x="-218" y="745" on="0"/>
        <pt x="-43" y="745" on="1"/>
        <pt x="47" y="745" on="0"/>
        <pt x="91" y="698" on="1"/>
        <pt x="135" y="745" on="0"/>
        <pt x="225" y="745" on="1"/>
        <pt x="400" y="745" on="0"/>
        <pt x="400" y="570" on="1"/>
        <pt x="334" y="570" on="1"/>
        <pt x="334" y="679" on="0"/>
      </contour>
    </TTGlyph>
    <TTGlyph name="u102C" xMin="-109" yMin="0" xMax="283" yMax="520">
      <contour>
        <pt x="-65" y="378" on="1"/>
        <pt x="-109" y="458" on="1"/>
        <pt x="-52" y="520" on="0"/>
        <pt x="58" y="520" on="1"/>
        <pt x="283" y="520" on="0"/>
        <pt x="283" y="260" on="1"/>
        <pt x="283" y="0" on="0"/>
        <pt x="58" y="0" on="1"/>
        <pt x="58" y="66" on="1"/>
        <pt x="201" y="66" on="0"/>
        <pt x="201" y="260" on="1"/>
        <pt x="201" y="454" on="0"/>
        <pt x="58" y="454" on="1"/>
        <pt x="-31" y="454" on="0"/>
      </contour>
    </TTGlyph>
    <TTGlyph name="u102D" xMin="-450" yMin="570" xMax="-100" yMax="920">
      <contour>
        <pt x="-275" y="920" on="1"/>
        <pt x="-100" y="920" on="0"/>
        <pt x="-100" y="745" on="1"/>
        <pt x="-100" y="570" on="0"/>
        <pt x="-275" y="570" on="1"/>
        <pt x="-450" y="570" on="0"/>
        <pt x="-450" y="745" on="1"/>
        <pt x="-450" y="920" on="0"/>
      </contour>
      <contour>
        <pt x="-166" y="745" on="1"/>
        <pt x="-166" y="854" on="0"/>
        <pt x="-275" y="854" on="1"/>
        <pt x="-384" y="854" on="0"/>
        <pt x="-384" y="745" on="1"/>
        <pt x="-384" y="636" on="0"/>
        <pt x="-275" y="636" on="1"/>
        <pt x="-166" y="636" on="0"/>
      </contour>
    </TTGlyph>
    <TTGlyph name="u102D_1036" xMin="-499" yMin="570" xMax="-49" yMax="920">
      <contour>
        <pt x="-240" y="920" on="0"/>
        <pt x="-240" y="745" on="1"/>
        <pt x="-240" y="570" on="0"/>
        <pt x="-499" y="570" on="0"/>
        <pt x="-499" y="745" on="1"/>
        <pt x="-499" y="920" on="0"/>
      </contour>
      <contour>
        <pt x="-301" y="745" on="1"/>
        <pt x="-301" y="854" on="0"/>
        <pt x="-438" y="854" on="0"/>
        <pt x="-438" y="745" on="1"/>
        <pt x="-438" y="636" on="0"/>
        <pt x="-301" y="636" on="0"/>
      </contour>
      <contour>
        <pt x="-133" y="836" on="1"/>
        <pt x="-49" y="836" on="0"/>
        <pt x="-49" y="745" on="1"/>
        <pt x="-49" y="654" on="0"/>
        <pt x="-133" y="654" on="1"/>
        <pt x="-217" y="654" on="0"/>
        <pt x="-217" y="745" on="1"/>
        <pt x="-217" y="836" on="0"/>
      </contour>
      <contour>
        <pt x="-105" y="745" on="1"/>
        <pt x="-105" y="775" on="0"/>
        <pt x="-133" y="775" on="1"/>
        <pt x="-161" y="775" on="0"/>
        <pt x="-161" y="745" on="1"/>
        <pt x="-161" y="715" on="0"/>
        <pt x="-133" y="715" on="1"/>
        <pt x="-105" y="715" on="0"/>
      </contour>
    </TTGlyph>
    <TTGlyph name="u102E" xMin="-450" yMin="570" xMax="-100" yMax="920">
      <contour>
        <pt x="-166" y="735" on="1"/>
        <pt x="-166" y="745" on="1"/>
        <pt x="-166" y="854" on="0"/>
        <pt x="-275" y="854" on="1"/>
        <pt x="-384" y="854" on="0"/>
        <pt x="-384" y="745" on="1"/>
        <pt x="-384" y="734" on="1"/>
        <pt x="-338" y="760" on="0"/>
        <pt x="-275" y="760" on="1"/>
        <pt x="-212" y="760" on="0"/>
      </contour>
      <contour>
        <pt x="-365" y="673" on="1"/>
        <pt x="-338" y="636" on="0"/>
        <pt x="-275" y="636" on="1"/>
        <pt x="-212" y="636" on="0"/>
        <pt x="-185" y="673" on="1"/>
        <pt x="-219" y="701" on="0"/>
        <pt x="-275" y="701" on="1"/>
        <pt x="-331" y="701" on="0"/>
      </contour>
      <contour>
        <pt x="-275" y="920" on="1"/>
        <pt x="-100" y="920" on="0"/>
        <pt x="-100" y="745" on="1"/>
        <pt x="-100" y="570" on="0"/>
        <pt x="-275" y="570" on="1"/>
        <pt x="-450" y="570" on="0"/>
        <pt x="-450" y="745" on="1"/>
        <pt x="-450" y="920" on="0"/>
      </contour>
    </TTGlyph>
    <TTGlyph name="u102F" xMin="-316" yMin="-273" xMax="-164" yMax="-30">
      <contour>
        <pt x="-234" y="-30" on="1"/>
        <pt x="-234" y="-207" on="1"/>
        <pt x="-164" y="-207" on="1"/>
        <pt x="-164" y="-273" on="1"/>
        <pt x="-316" y="-273" on="1"/>
        <pt x="-316" y="-30" on="1"/>
      </contour>
    </TTGlyph>
    <TTGlyph name="u102F_long" xMin="50" yMin="-273" xMax="232" yMax="520">
      <contour>
        <pt x="50" y="520" on="1"/>
        <pt x="132" y="520" on="1"/>
        <pt x="132" y="-207" on="1"/>
        <pt x="232" y="-207" on="1"/>
        <pt x="232" y="-273" on="1"/>
        <pt x="50" y="-273" on="1"/>
      </contour>
    </TTGlyph>
    <TTGlyph name="u1030" xMin="-381" yMin="-273" xMax="-99" yMax="-30">
      <contour>
        <pt x="-381" y="-30" on="1"/>
        <pt x="-299" y="-30" on="1"/>
        <pt x="-299" y="-273" on="1"/>
        <pt x="-381" y="-273" on="1"/>
      </contour>
      <contour>
        <pt x="-169" y="-207" on="1"/>
        <pt x="-99" y="-207" on="1"/>
        <pt x="-99" y="-273" on="1"/>
        <pt x="-251" y="-273" on="1"/>
        <pt x="-251" y="-30" on="1"/>
        <pt x="-169" y="-30" on="1"/>
      </contour>
    </TTGlyph>
    <TTGlyph name="u1030_long" xMin="50" yMin="-273" xMax="392" yMax="520">
      <contour>
        <pt x="50" y="520" on="1"/>
        <pt x="132" y="520" on="1"/>
        <pt x="132" y="-273" on="1"/>
        <pt x="50" y="-273" on="1"/>
      </contour>
      <contour>
        <pt x="210" y="520" on="1"/>
        <pt x="292" y="520" on="1"/>
        <pt x="292" y="-207" on="1"/>
        <pt x="392" y="-207" on="1"/>
        <pt x="392" y="-273" on="1"/>
        <pt x="210" y="-273" on="1"/>
      </contour>
    </TTGlyph>
    <TTGlyph name="u1031" xMin="50" yMin="0" xMax="500" yMax="520">
      <contour>
        <pt x="184" y="208" on="0"/>
        <pt x="260" y="227" on="1"/>
        <pt x="304" y="238" on="0"/>
        <pt x="341" y="238" on="1"/>
        <pt x="444" y="238" on="0"/>
        <pt x="500" y="156" on="1"/>
        <pt x="458" y="0" on="0"/>
        <pt x="285" y="0" on="1"/>
        <pt x="50" y="0" on="0"/>
        <pt x="50" y="260" on="1"/>
        <pt x="50" y="520" on="0"/>
        <pt x="285" y="520" on="1"/>
        <pt x="453" y="520" on="0"/>
        <pt x="500" y="392" on="1"/>
        <pt x="422" y="367" on="1"/>
        <pt x="391" y="454" on="0"/>
        <pt x="285" y="454" on="1"/>
        <pt x="132" y="454" on="0"/>
        <pt x="132" y="260" on="1"/>
        <pt x="132" y="209" on="0"/>
        <pt x="142" y="172" on="1"/>
      </contour>
      <contour>
        <pt x="379" y="170" on="0"/>
        <pt x="327" y="170" on="1"/>
        <pt x="303" y="170" on="0"/>
        <pt x="276" y="163" on="1"/>
        <pt x="208" y="146" on="0"/>
        <pt x="182" y="101" on="1"/>
        <pt x="220" y="66" on="0"/>
        <pt x="285" y="66" on="1"/>
        <pt x="376" y="66" on="0"/>
        <pt x="413" y="135" on="1"/>
      </contour>
    </TTGlyph>
    <TTGlyph name="u1032" xMin="-450" yMin="570" xMax="-100" yMax="920">
      <contour>
        <pt x="-403" y="920" on="1"/>
        <pt x="-100" y="617" on="1"/>
        <pt x="-147" y="570" on="1"/>
        <pt x="-450" y="872" on="1"/>
      </contour>
    </TTGlyph>
    <TTGlyph name="u1033" xMin="-450" yMin="570" xMax="-100" yMax="920">
      <contour>
        <pt x="-275" y="820" on="1"/>
        <pt x="-200" y="820" on="0"/>
        <pt x="-200" y="745" on="1"/>
        <pt x="-200" y="670" on="0"/>
        <pt x="-275" y="670" on="1"/>
        <pt x="-350" y="670" on="0"/>
        <pt x="-350" y="745" on="1"/>
        <pt x="-350" y="820" on="0"/>
      </contour>
      <contour>
        <pt x="-250" y="745" on="1"/>
        <pt x="-250" y="770" on="0"/>
        <pt x="-275" y="770" on="1"/>
        <pt x="-300" y="770" on="0"/>
        <pt x="-300" y="745" on="1"/>
        <pt x="-300" y="720" on="0"/>
        <pt x="-275" y="720" on="1"/>
        <pt x="-250" y="720" on="0"/>
      </contour>
      <contour>
        <pt x="-275" y="920" on="1"/>
        <pt x="-100" y="920" on="0"/>
        <pt x="-100" y="745" on="1"/>
        <pt x="-100" y="570" on="0"/>
        <pt x="-275" y="570" on="1"/>
        <pt x="-450" y="570" on="0"/>
        <pt x="-450" y="745" on="1"/>
        <pt x="-450" y="920" on="0"/>
      </contour>
      <contour>
        <pt x="-160" y="745" on="1"/>
        <pt x="-160" y="860" on="0"/>
        <pt x="-275" y="860" on="1"/>
        <pt x="-390" y="860" on="0"/>
        <pt x="-390" y="745" on="1"/>
        <pt x="-390" y="630" on="0"/>
        <pt x="-275" y="630" on="1"/>
        <pt x="-160" y="630" on="0"/>
      </contour>
    </TTGlyph>
    <TTGlyph name="u1034" xMin="-450" yMin="570" xMax="-100" yMax="920">
      <contour>
        <pt x="-100" y="872" on="1"/>
        <pt x="-403" y="570" on="1"/>
        <pt x="-450" y="617" on="1"/>
        <pt x="-147" y="920" on="1"/>
      </contour>
    </TTGlyph>
    <TTGlyph name="u1035" xMin="-450" yMin="570" xMax="-100" yMax="920">
      <contour>
        <pt x="-100" y="734" on="1"/>
        <pt x="-105" y="570" on="0"/>
        <pt x="-275" y="570" on="1"/>
        <pt x="-450" y="570" on="0"/>
        <pt x="-450" y="745" on="1"/>
        <pt x="-450" y="920" on="0"/>
        <pt x="-275" y="920" on="1"/>
        <pt x="-179" y="920" on="0"/>
        <pt x="-135" y="867" on="1"/>
        <pt x="-194" y="828" on="1"/>
        <pt x="-221" y="854" on="0"/>
        <pt x="-275" y="854" on="1"/>
        <pt x="-384" y="854" on="0"/>
        <pt x="-384" y="745" on="1"/>
        <pt x="-384" y="706" on="0"/>
        <pt x="-370" y="681" on="1"/>
        <pt x="-332" y="762" on="0"/>
        <pt x="-213" y="762" on="1"/>
        <pt x="-151" y="762" on="0"/>
        <pt x="-111" y="740" on="1"/>
      </contour>
      <contour>
        <pt x="-313" y="640" on="1"/>
        <pt x="-296" y="636" on="0"/>
        <pt x="-275" y="636" on="1"/>
        <pt x="-197" y="636" on="0"/>
        <pt x="-175" y="692" on="1"/>
        <pt x="-192" y="696" on="0"/>
        <pt x="-213" y="696" on="1"/>
        <pt x="-291" y="696" on="0"/>
      </contour>
    </TTGlyph>
    <TTGlyph name="u1036" xMin="-366" yMin="550" xMax="-184" yMax="732">
      <contour>
        <pt x="-275" y="732" on="1"/>
        <pt x="-184" y="732" on="0"/>
        <pt x="-184" y="641" on="1"/>
        <pt x="-184" y="550" on="0"/>
        <pt x="-275" y="550" on="1"/>
        <pt x="-366" y="550" on="0"/>
        <pt x="-366" y="641" on="1"/>
        <pt x="-366" y="732" on="0"/>
      </contour>
      <contour>
        <pt x="-245" y="641" on="1"/>
        <pt x="-245" y="671" on="0"/>
        <pt x="-275" y="671" on="1"/>
        <pt x="-305" y="671" on="0"/>
        <pt x="-305" y="641" on="1"/>
        <pt x="-305" y="611" on="0"/>
        <pt x="-275" y="611" on="1"/>
        <pt x="-245" y="611" on="0"/>
      </contour>
    </TTGlyph>
    <TTGlyph name="u1037" xMin="-366" yMin="-212" xMax="-184" yMax="-30">
      <contour>
        <pt x="-275" y="-30" on="1"/>
        <pt x="-184" y="-30" on="0"/>
        <pt x="-184" y="-121" on="1"/>
        <pt x="-184" y="-212" on="0"/>
        <pt x="-275" y="-212" on="1"/>
        <pt x="-366" y="-212" on="0"/>
        <pt x="-366" y="-121" on="1"/>
        <pt x="-366" y="-30" on="0"/>
      </contour>
      <contour>
        <pt x="-245" y="-121" on="1"/>
        <pt x="-245" y="-91" on="0"/>
        <pt x="-275" y="-91" on="1"/>
        <pt x="-305" y="-91" on="0"/>
        <pt x="-305" y="-121" on="1"/>
        <pt x="-305" y="-151" on="0"/>
        <pt x="-275" y="-151" on="1"/>
        <pt x="-245" y="-151" on="0"/>
      </contour>
    </TTGlyph>
    <TTGlyph name="u1037_alt" xMin="-156" yMin="-222" xMax="26" yMax="-40">
      <contour>
        <pt x="-65" y="-40" on="1"/>
        <pt x="26" y="-40" on="0"/>
        <pt x="26" y="-131" on="1"/>
        <pt x="26" y="-222" on="0"/>
        <pt x="-65" y="-222" on="1"/>
        <pt x="-156" y="-222" on="0"/>
        <pt x="-156" y="-131" on="1"/>
        <pt x="-156" y="-40" on="0"/>
      </contour>
      <contour>
        <pt x="-35" y="-131" on="1"/>
        <pt x="-35" y="-101" on="0"/>
        <pt x="-65" y="-101" on="1"/>
        <pt x="-95" y="-101" on="0"/>
        <pt x="-95" y="-131" on="1"/>
        <pt x="-95" y="-161" on="0"/>
        <pt x="-65" y="-161" on="1"/>
        <pt x="-35" y="-161" on="0"/>
      </contour>
    </TTGlyph>
    <TTGlyph name="u1037_alt2" xMin="-41" yMin="-192" xMax="141" yMax="-10">
      <contour>
        <pt x="50" y="-10" on="1"/>
        <pt x="141" y="-10" on="0"/>
        <pt x="141" y="-101" on="1"/>
        <pt x="141" y="-192" on="0"/>
        <pt x="50" y="-192" on="1"/>
        <pt x="-41" y="-192" on="0"/>
        <pt x="-41" y="-101" on="1"/>
        <pt x="-41" y="-10" on="0"/>
      </contour>
      <contour>
        <pt x="80" y="-101" on="1"/>
        <pt x="80" y="-71" on="0"/>
        <pt x="50" y="-71" on="1"/>
        <pt x="20" y="-71" on="0"/>
        <pt x="20" y="-101" on="1"/>
        <pt x="20" y="-131" on="0"/>
        <pt x="50" y="-131" on="1"/>
        <pt x="80" y="-131" on="0"/>
      </contour>
    </TTGlyph>
    <TTGlyph name="u1038" xMin="50" yMin="20" xMax="232" yMax="500">
      <contour>
        <pt x="141" y="500" on="1"/>
        <pt x="232" y="500" on="0"/>
        <pt x="232" y="409" on="1"/>
        <pt x="232" y="318" on="0"/>
        <pt x="141" y="318" on="1"/>
        <pt x="50" y="318" on="0"/>
        <pt x="50" y="409" on="1"/>
        <pt x="50" y="500" on="0"/>
      </contour>
      <contour>
        <pt x="171" y="409" on="1"/>
        <pt x="171" y="439" on="0"/>
        <pt x="141" y="439" on="1"/>
        <pt x="111" y="439" on="0"/>
        <pt x="111" y="409" on="1"/>
        <pt x="111" y="379" on="0"/>
        <pt x="141" y="379" on="1"/>
        <pt x="171" y="379" on="0"/>
      </contour>
      <contour>
        <pt x="141" y="202" on="1"/>
        <pt x="232" y="202" on="0"/>
        <pt x="232" y="111" on="1"/>
        <pt x="232" y="20" on="0"/>
        <pt x="141" y="20" on="1"/>
        <pt x="50" y="20" on="0"/>
        <pt x="50" y="111" on="1"/>
        <pt x="50" y="202" on="0"/>
      </contour>
      <contour>
        <pt x="171" y="111" on="1"/>
        <pt x="171" y="141" on="0"/>
        <pt x="141" y="141" on="1"/>
        <pt x="111" y="141" on="0"/>
        <pt x="111" y="111" on="1"/>
        <pt x="111" y="81" on="0"/>
        <pt x="141" y="81" on="1"/>
        <pt x="171" y="81" on="0"/>
      </contour>
    </TTGlyph>
    <TTGlyph name="u1039" xMin="-390" yMin="-250" xMax="-160" yMax="-20">
      <contour>
        <pt x="-308" y="-168" on="1"/>
        <pt x="-390" y="-168" on="1"/>
        <pt x="-390" y="-102" on="1"/>
        <pt x="-308" y="-102" on="1"/>
        <pt x="-308" y="-20" on="1"/>
        <pt x="-242" y="-20" on="1"/>
        <pt x="-242" y="-102" on="1"/>
        <pt x="-160" y="-102" on="1"/>
        <pt x="-160" y="-168" on="1"/>
        <pt x="-242" y="-168" on="1"/>
        <pt x="-242" y="-250" on="1"/>
        <pt x="-308" y="-250" on="1"/>
      </contour>
    </TTGlyph>
    <TTGlyph name="u1039_1000" xMin="-497" yMin="-273" xMax="-52" yMax="-23">
      <contour>
        <pt x="-247" y="-148" on="1"/>
        <pt x="-247" y="-250" on="0"/>
        <pt x="-317" y="-273" on="1"/>
        <pt x="-342" y="-221" on="1"/>
        <pt x="-302" y="-209" on="0"/>
        <pt x="-302" y="-148" on="1"/>
        <pt x="-302" y="-78" on="0"/>
        <pt x="-372" y="-78" on="1"/>
        <pt x="-442" y="-78" on="0"/>
        <pt x="-442" y="-148" on="1"/>
        <pt x="-442" y="-209" on="0"/>
        <pt x="-402" y="-221" on="1"/>
        <pt x="-427" y="-273" on="1"/>
        <pt x="-497" y="-250" on="0"/>
        <pt x="-497" y="-148" on="1"/>
        <pt x="-497" y="-23" on="0"/>
        <pt x="-372" y="-23" on="1"/>
        <pt x="-306" y="-23" on="0"/>
        <pt x="-275" y="-58" on="1"/>
        <pt x="-243" y="-23" on="0"/>
        <pt x="-177" y="-23" on="1"/>
        <pt x="-52" y="-23" on="0"/>
        <pt x="-52" y="-148" on="1"/>
        <pt x="-52" y="-273" on="0"/>
        <pt x="-177" y="-273" on="1"/>
        <pt x="-177" y="-218" on="1"/>
        <pt x="-107" y="-218" on="0"/>
        <pt x="-107" y="-148" on="1"/>
        <pt x="-107" y="-78" on="0"/>
        <pt x="-177" y="-78" on="1"/>
        <pt x="-247" y="-78" on="0"/>
      </contour>
    </TTGlyph>
    <TTGlyph name="u1039_1001" xMin="-419" yMin="-273" xMax="-129" yMax="-23">
      <contour>
        <pt x="-195" y="-197" on="1"/>
        <pt x="-215" y="-179" on="0"/>
        <pt x="-279" y="-179" on="1"/>
        <pt x="-341" y="-179" on="0"/>
        <pt x="-361" y="-195" on="1"/>
        <pt x="-344" y="-218" on="0"/>
        <pt x="-277" y="-218" on="1"/>
        <pt x="-212" y="-218" on="0"/>
      </contour>
      <contour>
        <pt x="-415" y="-197" on="1"/>
        <pt x="-418" y="-197" on="1"/>
        <pt x="-393" y="-134" on="0"/>
        <pt x="-279" y="-134" on="1"/>
        <pt x="-208" y="-134" on="0"/>
        <pt x="-182" y="-149" on="1"/>
        <pt x="-182" y="-148" on="1"/>
        <pt x="-182" y="-78" on="0"/>
        <pt x="-277" y="-78" on="1"/>
        <pt x="-351" y="-78" on="0"/>
        <pt x="-366" y="-110" on="1"/>
        <pt x="-417" y="-90" on="1"/>
        <pt x="-394" y="-23" on="0"/>
        <pt x="-277" y="-23" on="1"/>
        <pt x="-129" y="-23" on="0"/>
        <pt x="-129" y="-148" on="1"/>
        <pt x="-129" y="-273" on="0"/>
        <pt x="-277" y="-273" on="1"/>
        <pt x="-398" y="-273" on="0"/>
        <pt x="-419" y="-199" on="1"/>
      </contour>
    </TTGlyph>
    <TTGlyph name="u1039_1002" xMin="-419" yMin="-273" xMax="-129" yMax="-23">
      <contour>
        <pt x="-129" y="-148" on="1"/>
        <pt x="-129" y="-250" on="0"/>
        <pt x="-199" y="-273" on="1"/>
        <pt x="-224" y="-221" on="1"/>
        <pt x="-184" y="-209" on="0"/>
        <pt x="-184" y="-148" on="1"/>
        <pt x="-184" y="-78" on="0"/>
        <pt x="-274" y="-78" on="1"/>
        <pt x="-364" y="-78" on="0"/>
        <pt x="-364" y="-148" on="1"/>
        <pt x="-364" y="-209" on="0"/>
        <pt x="-324" y="-221" on="1"/>
        <pt x="-349" y="-273" on="1"/>
        <pt x="-419" y="-250" on="0"/>
        <pt x="-419" y="-148" on="1"/>
        <pt x="-419" y="-23" on="0"/>
        <pt x="-274" y="-23" on="1"/>
        <pt x="-129" y="-23" on="0"/>
      </contour>
    </TTGlyph>
    <TTGlyph name="u1039_1003" xMin="-497" yMin="-273" xMax="-52" yMax="-23">
      <contour>
        <pt x="-442" y="-158" on="1"/>
        <pt x="-442" y="-218" on="0"/>
        <pt x="-372" y="-218" on="1"/>
        <pt x="-302" y="-218" on="0"/>
        <pt x="-302" y="-148" on="1"/>
        <pt x="-302" y="-87" on="0"/>
        <pt x="-342" y="-75" on="1"/>
        <pt x="-317" y="-23" on="1"/>
        <pt x="-247" y="-46" on="0"/>
        <pt x="-247" y="-148" on="1"/>
        <pt x="-247" y="-218" on="0"/>
        <pt x="-177" y="-218" on="1"/>
        <pt x="-107" y="-218" on="0"/>
        <pt x="-107" y="-148" on="1"/>
        <pt x="-107" y="-78" on="0"/>
        <pt x="-177" y="-78" on="1"/>
        <pt x="-177" y="-23" on="1"/>
        <pt x="-52" y="-23" on="0"/>
        <pt x="-52" y="-148" on="1"/>
        <pt x="-52" y="-273" on="0"/>
        <pt x="-177" y="-273" on="1"/>
        <pt x="-243" y="-273" on="0"/>
        <pt x="-275" y="-238" on="1"/>
        <pt x="-306" y="-273" on="0"/>
        <pt x="-372" y="-273" on="1"/>
        <pt x="-497" y="-273" on="0"/>
        <pt x="-497" y="-158" on="1"/>
        <pt x="-497" y="-120" on="0"/>
        <pt x="-450" y="-102" on="1"/>
        <pt x="-429" y="-95" on="0"/>
        <pt x="-429" y="-83" on="1"/>
        <pt x="-429" y="-80" on="0"/>
        <pt x="-430" y="-77" on="1"/>
        <pt x="-432" y="-74" on="0"/>
        <pt x="-437" y="-74" on="1"/>
        <pt x="-450" y="-74" on="0"/>
        <pt x="-483" y="-91" on="1"/>
        <pt x="-497" y="-42" on="1"/>
        <pt x="-482" y="-23" on="0"/>
        <pt x="-428" y="-23" on="1"/>
        <pt x="-394" y="-23" on="0"/>
        <pt x="-379" y="-55" on="1"/>
        <pt x="-374" y="-67" on="0"/>
        <pt x="-374" y="-77" on="1"/>
        <pt x="-374" y="-117" on="0"/>
        <pt x="-442" y="-152" on="0"/>
      </contour>
    </TTGlyph>
    <TTGlyph name="u1039_1004" xMin="-420" yMin="-273" xMax="-130" yMax="-23">
      <contour>
        <pt x="-363" y="-148" on="1"/>
        <pt x="-363" y="-218" on="0"/>
        <pt x="-269" y="-218" on="1"/>
        <pt x="-203" y="-218" on="0"/>
        <pt x="-183" y="-184" on="1"/>
        <pt x="-130" y="-209" on="1"/>
        <pt x="-160" y="-273" on="0"/>
        <pt x="-269" y="-273" on="1"/>
        <pt x="-420" y="-273" on="0"/>
        <pt x="-420" y="-148" on="1"/>
        <pt x="-420" y="-23" on="0"/>
        <pt x="-269" y="-23" on="1"/>
        <pt x="-160" y="-23" on="0"/>
        <pt x="-130" y="-87" on="1"/>
        <pt x="-183" y="-112" on="1"/>
        <pt x="-203" y="-78" on="0"/>
        <pt x="-269" y="-78" on="1"/>
        <pt x="-363" y="-78" on="0"/>
      </contour>
    </TTGlyph>
    <TTGlyph name="u1039_1005" xMin="-419" yMin="-273" xMax="-129" yMax="-23">
      <contour>
        <pt x="-339" y="-94" on="1"/>
        <pt x="-364" y="-111" on="0"/>
        <pt x="-364" y="-148" on="1"/>
        <pt x="-364" y="-185" on="0"/>
        <pt x="-339" y="-202" on="1"/>
        <pt x="-314" y="-185" on="0"/>
        <pt x="-314" y="-148" on="1"/>
        <pt x="-314" y="-112" on="0"/>
      </contour>
      <contour>
        <pt x="-275" y="-218" on="1"/>
        <pt x="-274" y="-218" on="1"/>
        <pt x="-184" y="-218" on="0"/>
        <pt x="-184" y="-148" on="1"/>
        <pt x="-184" y="-78" on="0"/>
        <pt x="-274" y="-78" on="1"/>
        <pt x="-275" y="-78" on="1"/>
        <pt x="-259" y="-106" on="0"/>
        <pt x="-259" y="-148" on="1"/>
        <pt x="-259" y="-190" on="0"/>
      </contour>
      <contour>
        <pt x="-129" y="-148" on="1"/>
        <pt x="-129" y="-273" on="0"/>
        <pt x="-274" y="-273" on="1"/>
        <pt x="-419" y="-273" on="0"/>
        <pt x="-419" y="-148" on="1"/>
        <pt x="-419" y="-23" on="0"/>
        <pt x="-274" y="-23" on="1"/>
        <pt x="-129" y="-23" on="0"/>
      </contour>
    </TTGlyph>
    <TTGlyph name="u1039_1006" xMin="-509" yMin="-273" xMax="-41" yMax="-23">
      <contour>
        <pt x="-166" y="-78" on="1"/>
        <pt x="-236" y="-78" on="0"/>
        <pt x="-236" y="-148" on="1"/>
        <pt x="-236" y="-218" on="0"/>
        <pt x="-166" y="-218" on="1"/>
        <pt x="-96" y="-218" on="0"/>
        <pt x="-96" y="-148" on="1"/>
        <pt x="-96" y="-78" on="0"/>
      </contour>
      <contour>
        <pt x="-305" y="-197" on="1"/>
        <pt x="-325" y="-179" on="0"/>
        <pt x="-379" y="-179" on="1"/>
        <pt x="-431" y="-179" on="0"/>
        <pt x="-451" y="-195" on="1"/>
        <pt x="-434" y="-218" on="0"/>
        <pt x="-377" y="-218" on="1"/>
        <pt x="-322" y="-218" on="0"/>
      </contour>
      <contour>
        <pt x="-265" y="-65" on="1"/>
        <pt x="-230" y="-23" on="0"/>
        <pt x="-166" y="-23" on="1"/>
        <pt x="-41" y="-23" on="0"/>
        <pt x="-41" y="-148" on="1"/>
        <pt x="-41" y="-273" on="0"/>
        <pt x="-166" y="-273" on="1"/>
        <pt x="-230" y="-273" on="0"/>
        <pt x="-265" y="-231" on="1"/>
        <pt x="-301" y="-273" on="0"/>
        <pt x="-377" y="-273" on="1"/>
        <pt x="-488" y="-273" on="0"/>
        <pt x="-509" y="-199" on="1"/>
        <pt x="-505" y="-197" on="1"/>
        <pt x="-508" y="-197" on="1"/>
        <pt x="-483" y="-134" on="0"/>
        <pt x="-379" y="-134" on="1"/>
        <pt x="-318" y="-134" on="0"/>
        <pt x="-292" y="-149" on="1"/>
        <pt x="-292" y="-78" on="0"/>
        <pt x="-377" y="-78" on="1"/>
        <pt x="-441" y="-78" on="0"/>
        <pt x="-456" y="-110" on="1"/>
        <pt x="-507" y="-90" on="1"/>
        <pt x="-484" y="-23" on="0"/>
        <pt x="-377" y="-23" on="1"/>
        <pt x="-301" y="-23" on="0"/>
      </contour>
    </TTGlyph>
    <TTGlyph name="u1039_1007" xMin="-420" yMin="-273" xMax="-99" yMax="-23">
      <contour>
        <pt x="-183" y="-88" on="1"/>
        <pt x="-197" y="-88" on="0"/>
        <pt x="-197" y="-101" on="1"/>
        <pt x="-197" y="-114" on="0"/>
        <pt x="-183" y="-114" on="1"/>
        <pt x="-168" y="-114" on="0"/>
        <pt x="-168" y="-101" on="1"/>
        <pt x="-168" y="-88" on="0"/>
      </contour>
      <contour>
        <pt x="-363" y="-148" on="1"/>
        <pt x="-363" y="-218" on="0"/>
        <pt x="-269" y="-218" on="1"/>
        <pt x="-203" y="-218" on="0"/>
        <pt x="-183" y="-184" on="1"/>
        <pt x="-130" y="-209" on="1"/>
        <pt x="-160" y="-273" on="0"/>
        <pt x="-269" y="-273" on="1"/>
        <pt x="-420" y="-273" on="0"/>
        <pt x="-420" y="-148" on="1"/>
        <pt x="-420" y="-23" on="0"/>
        <pt x="-269" y="-23" on="1"/>
        <pt x="-154" y="-23" on="0"/>
        <pt x="-127" y="-83" on="1"/>
        <pt x="-125" y="-91" on="0"/>
        <pt x="-125" y="-101" on="1"/>
        <pt x="-125" y="-125" on="0"/>
        <pt x="-138" y="-133" on="1"/>
        <pt x="-122" y="-145" on="0"/>
        <pt x="-111" y="-145" on="1"/>
        <pt x="-105" y="-145" on="0"/>
        <pt x="-99" y="-144" on="1"/>
        <pt x="-99" y="-182" on="1"/>
        <pt x="-105" y="-183" on="0"/>
        <pt x="-110" y="-183" on="1"/>
        <pt x="-134" y="-183" on="0"/>
        <pt x="-189" y="-148" on="1"/>
        <pt x="-241" y="-145" on="0"/>
        <pt x="-241" y="-101" on="1"/>
        <pt x="-241" y="-89" on="0"/>
        <pt x="-233" y="-80" on="1"/>
        <pt x="-250" y="-78" on="0"/>
        <pt x="-269" y="-78" on="1"/>
        <pt x="-363" y="-78" on="0"/>
      </contour>
    </TTGlyph>
    <TTGlyph name="u1039_1008" xMin="-369" yMin="-273" xMax="132" yMax="520">
      <contour>
        <pt x="-289" y="-94" on="1"/>
        <pt x="-314" y="-111" on="0"/>
        <pt x="-314" y="-148" on="1"/>
        <pt x="-314" y="-185" on="0"/>
        <pt x="-289" y="-202" on="1"/>
        <pt x="-264" y="-185" on="0"/>
        <pt x="-264" y="-148" on="1"/>
        <pt x="-264" y="-112" on="0"/>
      </contour>
      <contour>
        <pt x="-225" y="-218" on="1"/>
        <pt x="-224" y="-218" on="1"/>
        <pt x="-134" y="-218" on="0"/>
        <pt x="-134" y="-148" on="1"/>
        <pt x="-134" y="-78" on="0"/>
        <pt x="-224" y="-78" on="1"/>
        <pt x="-225" y="-78" on="1"/>
        <pt x="-209" y="-106" on="0"/>
        <pt x="-209" y="-148" on="1"/>
        <pt x="-209" y="-190" on="0"/>
      </contour>
      <contour>
        <pt x="-79" y="-149" on="1"/>
        <pt x="50" y="-199" on="1"/>
        <pt x="50" y="520" on="1"/>
        <pt x="132" y="520" on="1"/>
        <pt x="132" y="-273" on="1"/>
        <pt x="55" y="-273" on="1"/>
        <pt x="-93" y="-215" on="1"/>
        <pt x="-125" y="-273" on="0"/>
        <pt x="-224" y="-273" on="1"/>
        <pt x="-369" y="-273" on="0"/>
        <pt x="-369" y="-148" on="1"/>
        <pt x="-369" y="-23" on="0"/>
        <pt x="-224" y="-23" on="1"/>
        <pt x="-79" y="-23" on="0"/>
        <pt x="-79" y="-148" on="1"/>
      </contour>
    </TTGlyph>
    <TTGlyph name="u1039_100B" xMin="-430" yMin="-273" xMax="-88" yMax="-3">
      <contour>
        <pt x="-421" y="-178" on="1"/>
        <pt x="-355" y="-225" on="0"/>
        <pt x="-275" y="-225" on="1"/>
        <pt x="-184" y="-225" on="0"/>
        <pt x="-135" y="-177" on="1"/>
        <pt x="-121" y="-177" on="1"/>
        <pt x="-121" y="-229" on="1"/>
        <pt x="-121" y="-240" on="0"/>
        <pt x="-99" y="-240" on="1"/>
        <pt x="-88" y="-240" on="1"/>
        <pt x="-88" y="-273" on="1"/>
        <pt x="-99" y="-273" on="1"/>
        <pt x="-160" y="-273" on="0"/>
        <pt x="-160" y="-239" on="1"/>
        <pt x="-160" y="-235" on="1"/>
        <pt x="-208" y="-258" on="0"/>
        <pt x="-275" y="-258" on="1"/>
        <pt x="-373" y="-258" on="0"/>
        <pt x="-430" y="-211" on="1"/>
      </contour>
      <contour>
        <pt x="-363" y="-100" on="1"/>
        <pt x="-363" y="-149" on="0"/>
        <pt x="-269" y="-149" on="1"/>
        <pt x="-203" y="-149" on="0"/>
        <pt x="-183" y="-119" on="1"/>
        <pt x="-130" y="-141" on="1"/>
        <pt x="-160" y="-197" on="0"/>
        <pt x="-269" y="-197" on="1"/>
        <pt x="-420" y="-197" on="0"/>
        <pt x="-420" y="-100" on="1"/>
        <pt x="-420" y="-3" on="0"/>
        <pt x="-269" y="-3" on="1"/>
        <pt x="-160" y="-3" on="0"/>
        <pt x="-130" y="-59" on="1"/>
        <pt x="-183" y="-81" on="1"/>
        <pt x="-203" y="-51" on="0"/>
        <pt x="-269" y="-51" on="1"/>
        <pt x="-363" y="-51" on="0"/>
      </contour>
    </TTGlyph>
    <TTGlyph name="u1039_100C" xMin="-522" yMin="-273" xMax="-27" yMax="-23">
      <contour>
        <pt x="-443" y="-273" on="1"/>
        <pt x="-522" y="-273" on="0"/>
        <pt x="-522" y="-188" on="1"/>
        <pt x="-522" y="-96" on="1"/>
        <pt x="-522" y="-23" on="0"/>
        <pt x="-442" y="-23" on="1"/>
        <pt x="-363" y="-23" on="0"/>
        <pt x="-363" y="-96" on="1"/>
        <pt x="-363" y="-173" on="1"/>
        <pt x="-413" y="-173" on="1"/>
        <pt x="-413" y="-96" on="1"/>
        <pt x="-413" y="-69" on="0"/>
        <pt x="-442" y="-69" on="1"/>
        <pt x="-473" y="-69" on="0"/>
        <pt x="-473" y="-96" on="1"/>
        <pt x="-473" y="-188" on="1"/>
        <pt x="-473" y="-228" on="0"/>
        <pt x="-443" y="-228" on="1"/>
        <pt x="-301" y="-228" on="1"/>
        <pt x="-317" y="-197" on="0"/>
        <pt x="-317" y="-148" on="1"/>
        <pt x="-317" y="-23" on="0"/>
        <pt x="-172" y="-23" on="1"/>
        <pt x="-27" y="-23" on="0"/>
        <pt x="-27" y="-148" on="1"/>
        <pt x="-27" y="-250" on="0"/>
        <pt x="-97" y="-273" on="1"/>
        <pt x="-122" y="-221" on="1"/>
        <pt x="-82" y="-209" on="0"/>
        <pt x="-82" y="-148" on="1"/>
        <pt x="-82" y="-78" on="0"/>
        <pt x="-172" y="-78" on="1"/>
        <pt x="-262" y="-78" on="0"/>
        <pt x="-262" y="-148" on="1"/>
        <pt x="-262" y="-209" on="0"/>
        <pt x="-222" y="-221" on="1"/>
        <pt x="-247" y="-273" on="1"/>
      </contour>
    </TTGlyph>
    <TTGlyph name="u1039_100F" xMin="-525" yMin="-273" xMax="-25" yMax="-23">
      <contour>
        <pt x="-350" y="-182" on="0"/>
        <pt x="-350" y="-148" on="1"/>
        <pt x="-350" y="-78" on="0"/>
        <pt x="-410" y="-78" on="1"/>
        <pt x="-470" y="-78" on="0"/>
        <pt x="-470" y="-148" on="1"/>
        <pt x="-470" y="-209" on="0"/>
        <pt x="-430" y="-221" on="1"/>
        <pt x="-455" y="-273" on="1"/>
        <pt x="-525" y="-250" on="0"/>
        <pt x="-525" y="-148" on="1"/>
        <pt x="-525" y="-23" on="0"/>
        <pt x="-410" y="-23" on="1"/>
        <pt x="-377" y="-23" on="0"/>
        <pt x="-342" y="-46" on="1"/>
        <pt x="-333" y="-39" on="0"/>
        <pt x="-323" y="-34" on="1"/>
        <pt x="-300" y="-23" on="0"/>
        <pt x="-275" y="-23" on="1"/>
        <pt x="-250" y="-23" on="0"/>
        <pt x="-227" y="-34" on="1"/>
        <pt x="-217" y="-39" on="0"/>
        <pt x="-208" y="-46" on="1"/>
        <pt x="-173" y="-23" on="0"/>
        <pt x="-140" y="-23" on="1"/>
        <pt x="-25" y="-23" on="0"/>
        <pt x="-25" y="-148" on="1"/>
        <pt x="-25" y="-250" on="0"/>
        <pt x="-95" y="-273" on="1"/>
        <pt x="-120" y="-221" on="1"/>
        <pt x="-80" y="-209" on="0"/>
        <pt x="-80" y="-148" on="1"/>
        <pt x="-80" y="-78" on="0"/>
        <pt x="-140" y="-78" on="1"/>
        <pt x="-200" y="-78" on="0"/>
        <pt x="-200" y="-148" on="1"/>
        <pt x="-200" y="-182" on="0"/>
        <pt x="-191" y="-204" on="1"/>
        <pt x="-190" y="-208" on="0"/>
        <pt x="-190" y="-213" on="1"/>
        <pt x="-190" y="-231" on="0"/>
        <pt x="-219" y="-254" on="1"/>
        <pt x="-244" y="-273" on="0"/>
        <pt x="-275" y="-273" on="1"/>
        <pt x="-306" y="-273" on="0"/>
        <pt x="-331" y="-254" on="1"/>
        <pt x="-360" y="-231" on="0"/>
        <pt x="-360" y="-213" on="1"/>
        <pt x="-360" y="-208" on="0"/>
        <pt x="-358" y="-204" on="1"/>
      </contour>
      <contour>
        <pt x="-307" y="-86" on="1"/>
        <pt x="-295" y="-112" on="0"/>
        <pt x="-295" y="-148" on="1"/>
        <pt x="-295" y="-184" on="0"/>
        <pt x="-304" y="-210" on="1"/>
        <pt x="-300" y="-217" on="0"/>
        <pt x="-285" y="-225" on="0"/>
        <pt x="-275" y="-225" on="1"/>
        <pt x="-265" y="-225" on="0"/>
        <pt x="-250" y="-217" on="0"/>
        <pt x="-246" y="-210" on="1"/>
        <pt x="-255" y="-184" on="0"/>
        <pt x="-255" y="-148" on="1"/>
        <pt x="-255" y="-112" on="0"/>
        <pt x="-243" y="-86" on="1"/>
        <pt x="-247" y="-82" on="0"/>
        <pt x="-254" y="-79" on="1"/>
        <pt x="-266" y="-73" on="0"/>
        <pt x="-275" y="-73" on="1"/>
        <pt x="-284" y="-73" on="0"/>
        <pt x="-296" y="-79" on="1"/>
        <pt x="-303" y="-82" on="0"/>
      </contour>
    </TTGlyph>
    <TTGlyph name="u1039_1010" xMin="-497" yMin="-273" xMax="-52" yMax="-23">
      <contour>
        <pt x="-372" y="-78" on="1"/>
        <pt x="-442" y="-78" on="0"/>
        <pt x="-442" y="-148" on="1"/>
        <pt x="-442" y="-218" on="0"/>
        <pt x="-372" y="-218" on="1"/>
        <pt x="-302" y="-218" on="0"/>
        <pt x="-302" y="-148" on="1"/>
        <pt x="-302" y="-78" on="0"/>
      </contour>
      <contour>
        <pt x="-107" y="-148" on="1"/>
        <pt x="-107" y="-78" on="0"/>
        <pt x="-177" y="-78" on="1"/>
        <pt x="-247" y="-78" on="0"/>
        <pt x="-247" y="-148" on="1"/>
        <pt x="-247" y="-273" on="0"/>
        <pt x="-372" y="-273" on="1"/>
        <pt x="-497" y="-273" on="0"/>
        <pt x="-497" y="-148" on="1"/>
        <pt x="-497" y="-23" on="0"/>
        <pt x="-372" y="-23" on="1"/>
        <pt x="-310" y="-23" on="0"/>
        <pt x="-274" y="-63" on="1"/>
        <pt x="-239" y="-23" on="0"/>
        <pt x="-177" y="-23" on="1"/>
        <pt x="-52" y="-23" on="0"/>
        <pt x="-52" y="-148" on="1"/>
        <pt x="-52" y="-273" on="0"/>
        <pt x="-177" y="-273" on="1"/>
        <pt x="-177" y="-218" on="1"/>
        <pt x="-107" y="-218" on="0"/>
      </contour>
    </TTGlyph>
    <TTGlyph name="u1039_1011" xMin="-497" yMin="-273" xMax="-52" yMax="-23">
      <contour>
        <pt x="-247" y="-148" on="1"/>
        <pt x="-247" y="-218" on="0"/>
        <pt x="-177" y="-218" on="1"/>
        <pt x="-107" y="-218" on="0"/>
        <pt x="-107" y="-148" on="1"/>
        <pt x="-107" y="-78" on="0"/>
        <pt x="-177" y="-78" on="1"/>
        <pt x="-247" y="-78" on="0"/>
      </contour>
      <contour>
        <pt x="-442" y="-148" on="1"/>
        <pt x="-442" y="-218" on="0"/>
        <pt x="-372" y="-218" on="1"/>
        <pt x="-302" y="-218" on="0"/>
        <pt x="-302" y="-148" on="1"/>
        <pt x="-302" y="-78" on="0"/>
        <pt x="-372" y="-78" on="1"/>
        <pt x="-442" y="-78" on="0"/>
      </contour>
      <contour>
        <pt x="-274" y="-58" on="1"/>
        <pt x="-243" y="-23" on="0"/>
        <pt x="-177" y="-23" on="1"/>
        <pt x="-52" y="-23" on="0"/>
        <pt x="-52" y="-148" on="1"/>
        <pt x="-52" y="-273" on="0"/>
        <pt x="-177" y="-273" on="1"/>
        <pt x="-243" y="-273" on="0"/>
        <pt x="-274" y="-238" on="1"/>
        <pt x="-306" y="-273" on="0"/>
        <pt x="-372" y="-273" on="1"/>
        <pt x="-497" y="-273" on="0"/>
        <pt x="-497" y="-148" on="1"/>
        <pt x="-497" y="-23" on="0"/>
        <pt x="-372" y="-23" on="1"/>
        <pt x="-306" y="-23" on="0"/>
      </contour>
    </TTGlyph>
    <TTGlyph name="u1039_1012" xMin="-420" yMin="-273" xMax="-130" yMax="-13">
      <contour>
        <pt x="-130" y="-188" on="1"/>
        <pt x="-130" y="-273" on="0"/>
        <pt x="-281" y="-273" on="1"/>
        <pt x="-390" y="-273" on="0"/>
        <pt x="-420" y="-209" on="1"/>
        <pt x="-367" y="-184" on="1"/>
        <pt x="-347" y="-218" on="0"/>
        <pt x="-281" y="-218" on="1"/>
        <pt x="-187" y="-218" on="0"/>
        <pt x="-187" y="-188" on="1"/>
        <pt x="-187" y="-165" on="0"/>
        <pt x="-265" y="-165" on="1"/>
        <pt x="-265" y="-120" on="1"/>
        <pt x="-187" y="-120" on="0"/>
        <pt x="-187" y="-98" on="1"/>
        <pt x="-187" y="-68" on="0"/>
        <pt x="-281" y="-68" on="1"/>
        <pt x="-347" y="-68" on="0"/>
        <pt x="-367" y="-102" on="1"/>
        <pt x="-420" y="-77" on="1"/>
        <pt x="-390" y="-13" on="0"/>
        <pt x="-281" y="-13" on="1"/>
        <pt x="-130" y="-13" on="0"/>
        <pt x="-130" y="-98" on="1"/>
        <pt x="-130" y="-129" on="0"/>
        <pt x="-172" y="-142" on="1"/>
        <pt x="-130" y="-156" on="0"/>
      </contour>
    </TTGlyph>
    <TTGlyph name="u1039_1013" xMin="-419" yMin="-273" xMax="-129" yMax="-23">
      <contour>
        <pt x="-184" y="-149" on="1"/>
        <pt x="-184" y="-148" on="1"/>
        <pt x="-184" y="-78" on="0"/>
        <pt x="-274" y="-78" on="1"/>
        <pt x="-364" y="-78" on="0"/>
        <pt x="-364" y="-148" on="1"/>
        <pt x="-328" y="-130" on="0"/>
        <pt x="-274" y="-130" on="1"/>
        <pt x="-219" y="-130" on="0"/>
      </contour>
      <contour>
        <pt x="-350" y="-193" on="1"/>
        <pt x="-328" y="-218" on="0"/>
        <pt x="-274" y="-218" on="1"/>
        <pt x="-220" y="-218" on="0"/>
        <pt x="-198" y="-193" on="1"/>
        <pt x="-226" y="-173" on="0"/>
        <pt x="-274" y="-173" on="1"/>
        <pt x="-322" y="-173" on="0"/>
      </contour>
      <contour>
        <pt x="-129" y="-148" on="1"/>
        <pt x="-129" y="-273" on="0"/>
        <pt x="-274" y="-273" on="1"/>
        <pt x="-419" y="-273" on="0"/>
        <pt x="-419" y="-148" on="1"/>
        <pt x="-419" y="-23" on="0"/>
        <pt x="-274" y="-23" on="1"/>
        <pt x="-129" y="-23" on="0"/>
      </contour>
    </TTGlyph>
    <TTGlyph name="u1039_1014" xMin="-420" yMin="-273" xMax="-130" yMax="-23">
      <contour>
        <pt x="-362" y="-209" on="1"/>
        <pt x="-362" y="-218" on="0"/>
        <pt x="-300" y="-221" on="1"/>
        <pt x="-306" y="-193" on="0"/>
        <pt x="-350" y="-193" on="1"/>
        <pt x="-362" y="-193" on="0"/>
      </contour>
      <contour>
        <pt x="-275" y="-273" on="1"/>
        <pt x="-420" y="-273" on="0"/>
        <pt x="-420" y="-209" on="1"/>
        <pt x="-420" y="-151" on="0"/>
        <pt x="-350" y="-151" on="1"/>
        <pt x="-258" y="-151" on="0"/>
        <pt x="-251" y="-221" on="1"/>
        <pt x="-188" y="-217" on="0"/>
        <pt x="-188" y="-193" on="1"/>
        <pt x="-188" y="-172" on="0"/>
        <pt x="-218" y="-164" on="1"/>
        <pt x="-282" y="-145" on="1"/>
        <pt x="-375" y="-119" on="0"/>
        <pt x="-375" y="-76" on="1"/>
        <pt x="-375" y="-67" on="0"/>
        <pt x="-371" y="-58" on="1"/>
        <pt x="-358" y="-23" on="0"/>
        <pt x="-308" y="-23" on="1"/>
        <pt x="-269" y="-23" on="0"/>
        <pt x="-229" y="-34" on="1"/>
        <pt x="-244" y="-84" on="1"/>
        <pt x="-286" y="-72" on="0"/>
        <pt x="-304" y="-72" on="1"/>
        <pt x="-314" y="-72" on="0"/>
        <pt x="-316" y="-76" on="1"/>
        <pt x="-317" y="-77" on="0"/>
        <pt x="-317" y="-78" on="1"/>
        <pt x="-317" y="-89" on="0"/>
        <pt x="-257" y="-106" on="1"/>
        <pt x="-193" y="-124" on="1"/>
        <pt x="-130" y="-142" on="0"/>
        <pt x="-130" y="-193" on="1"/>
        <pt x="-130" y="-273" on="0"/>
      </contour>
    </TTGlyph>
    <TTGlyph name="u1039_1015" xMin="-419" yMin="-273" xMax="-129" yMax="-23">
      <contour>
        <pt x="-129" y="-273" on="0"/>
        <pt x="-274" y="-273" on="1"/>
        <pt x="-419" y="-273" on="0"/>
        <pt x="-419" y="-148" on="1"/>
        <pt x="-419" y="-46" on="0"/>
        <pt x="-349" y="-23" on="1"/>
        <pt x="-324" y="-75" on="1"/>
        <pt x="-364" y="-87" on="0"/>
        <pt x="-364" y="-148" on="1"/>
        <pt x="-364" y="-218" on="0"/>
        <pt x="-274" y="-218" on="1"/>
        <pt x="-184" y="-218" on="0"/>
        <pt x="-184" y="-148" on="1"/>
        <pt x="-184" y="-87" on="0"/>
        <pt x="-224" y="-75" on="1"/>
        <pt x="-199" y="-23" on="1"/>
        <pt x="-129" y="-46" on="0"/>
        <pt x="-129" y="-148" on="1"/>
      </contour>
    </TTGlyph>
    <TTGlyph name="u1039_1016" xMin="-419" yMin="-273" xMax="-129" yMax="-23">
      <contour>
        <pt x="-254" y="-217" on="1"/>
        <pt x="-263" y="-193" on="0"/>
        <pt x="-266" y="-162" on="1"/>
        <pt x="-267" y="-149" on="0"/>
        <pt x="-267" y="-136" on="1"/>
        <pt x="-267" y="-59" on="0"/>
        <pt x="-219" y="-23" on="1"/>
        <pt x="-199" y="-23" on="1"/>
        <pt x="-129" y="-46" on="0"/>
        <pt x="-129" y="-148" on="1"/>
        <pt x="-129" y="-273" on="0"/>
        <pt x="-274" y="-273" on="1"/>
        <pt x="-419" y="-273" on="0"/>
        <pt x="-419" y="-148" on="1"/>
        <pt x="-419" y="-46" on="0"/>
        <pt x="-349" y="-23" on="1"/>
        <pt x="-324" y="-75" on="1"/>
        <pt x="-364" y="-87" on="0"/>
        <pt x="-364" y="-148" on="1"/>
        <pt x="-364" y="-218" on="0"/>
        <pt x="-274" y="-218" on="1"/>
        <pt x="-263" y="-218" on="0"/>
      </contour>
      <contour>
        <pt x="-209" y="-82" on="1"/>
        <pt x="-224" y="-113" on="0"/>
        <pt x="-224" y="-144" on="1"/>
        <pt x="-224" y="-151" on="0"/>
        <pt x="-223" y="-158" on="1"/>
        <pt x="-220" y="-184" on="0"/>
        <pt x="-212" y="-204" on="1"/>
        <pt x="-184" y="-187" on="0"/>
        <pt x="-184" y="-148" on="1"/>
        <pt x="-184" y="-99" on="0"/>
      </contour>
    </TTGlyph>
    <TTGlyph name="u1039_1017" xMin="-419" yMin="-273" xMax="-129" yMax="-23">
      <contour>
        <pt x="-199" y="-23" on="1"/>
        <pt x="-129" y="-46" on="0"/>
        <pt x="-129" y="-148" on="1"/>
        <pt x="-129" y="-273" on="0"/>
        <pt x="-274" y="-273" on="1"/>
        <pt x="-419" y="-273" on="0"/>
        <pt x="-419" y="-148" on="1"/>
        <pt x="-419" y="-46" on="0"/>
        <pt x="-349" y="-23" on="1"/>
        <pt x="-341" y="-23" on="1"/>
        <pt x="-307" y="-89" on="0"/>
        <pt x="-282" y="-98" on="0"/>
        <pt x="-274" y="-98" on="1"/>
        <pt x="-265" y="-98" on="0"/>
        <pt x="-240" y="-89" on="0"/>
        <pt x="-207" y="-23" on="1"/>
      </contour>
      <contour>
        <pt x="-355" y="-100" on="1"/>
        <pt x="-364" y="-118" on="0"/>
        <pt x="-364" y="-148" on="1"/>
        <pt x="-364" y="-218" on="0"/>
        <pt x="-274" y="-218" on="1"/>
        <pt x="-184" y="-218" on="0"/>
        <pt x="-184" y="-148" on="1"/>
        <pt x="-184" y="-118" on="0"/>
        <pt x="-193" y="-100" on="1"/>
        <pt x="-195" y="-103" on="0"/>
        <pt x="-196" y="-106" on="1"/>
        <pt x="-208" y="-128" on="0"/>
        <pt x="-251" y="-151" on="0"/>
        <pt x="-274" y="-151" on="1"/>
        <pt x="-297" y="-151" on="0"/>
        <pt x="-340" y="-128" on="0"/>
        <pt x="-352" y="-106" on="1"/>
        <pt x="-353" y="-103" on="0"/>
      </contour>
    </TTGlyph>
    <TTGlyph name="u1039_1018" xMin="-497" yMin="-273" xMax="-52" yMax="-23">
      <contour>
        <pt x="-372" y="-78" on="1"/>
        <pt x="-424" y="-78" on="0"/>
        <pt x="-444" y="-112" on="1"/>
        <pt x="-497" y="-87" on="1"/>
        <pt x="-467" y="-23" on="0"/>
        <pt x="-372" y="-23" on="1"/>
        <pt x="-310" y="-23" on="0"/>
        <pt x="-274" y="-63" on="1"/>
        <pt x="-239" y="-23" on="0"/>
        <pt x="-177" y="-23" on="1"/>
        <pt x="-52" y="-23" on="0"/>
        <pt x="-52" y="-148" on="1"/>
        <pt x="-52" y="-273" on="0"/>
        <pt x="-177" y="-273" on="1"/>
        <pt x="-177" y="-218" on="1"/>
        <pt x="-107" y="-218" on="0"/>
        <pt x="-107" y="-148" on="1"/>
        <pt x="-107" y="-78" on="0"/>
        <pt x="-177" y="-78" on="1"/>
        <pt x="-247" y="-78" on="0"/>
        <pt x="-247" y="-148" on="1"/>
        <pt x="-247" y="-273" on="0"/>
        <pt x="-372" y="-273" on="1"/>
        <pt x="-467" y="-273" on="0"/>
        <pt x="-497" y="-209" on="1"/>
        <pt x="-444" y="-184" on="1"/>
        <pt x="-424" y="-218" on="0"/>
        <pt x="-372" y="-218" on="1"/>
        <pt x="-302" y="-218" on="0"/>
        <pt x="-302" y="-148" on="1"/>
        <pt x="-302" y="-78" on="0"/>
      </contour>
    </TTGlyph>
    <TTGlyph name="u1039_1019" xMin="-419" yMin="-273" xMax="-129" yMax="-23">
      <contour>
        <pt x="-184" y="-140" on="1"/>
        <pt x="-187" y="-86" on="0"/>
        <pt x="-224" y="-75" on="1"/>
        <pt x="-199" y="-23" on="1"/>
        <pt x="-129" y="-46" on="0"/>
        <pt x="-129" y="-148" on="1"/>
        <pt x="-129" y="-273" on="0"/>
        <pt x="-274" y="-273" on="1"/>
        <pt x="-419" y="-273" on="0"/>
        <pt x="-419" y="-148" on="1"/>
        <pt x="-419" y="-46" on="0"/>
        <pt x="-349" y="-23" on="1"/>
        <pt x="-324" y="-75" on="1"/>
        <pt x="-361" y="-86" on="0"/>
        <pt x="-364" y="-140" on="1"/>
        <pt x="-328" y="-122" on="0"/>
        <pt x="-274" y="-122" on="1"/>
        <pt x="-219" y="-122" on="0"/>
      </contour>
      <contour>
        <pt x="-353" y="-188" on="1"/>
        <pt x="-333" y="-218" on="0"/>
        <pt x="-274" y="-218" on="1"/>
        <pt x="-215" y="-218" on="0"/>
        <pt x="-195" y="-188" on="1"/>
        <pt x="-223" y="-165" on="0"/>
        <pt x="-274" y="-165" on="1"/>
        <pt x="-325" y="-165" on="0"/>
      </contour>
    </TTGlyph>
    <TTGlyph name="u1039_101C" xMin="-497" yMin="-273" xMax="-52" yMax="-23">
      <contour>
        <pt x="-372" y="-23" on="1"/>
        <pt x="-247" y="-23" on="0"/>
        <pt x="-247" y="-148" on="1"/>
        <pt x="-247" y="-218" on="0"/>
        <pt x="-177" y="-218" on="1"/>
        <pt x="-107" y="-218" on="0"/>
        <pt x="-107" y="-148" on="1"/>
        <pt x="-107" y="-78" on="0"/>
        <pt x="-177" y="-78" on="1"/>
        <pt x="-177" y="-23" on="1"/>
        <pt x="-52" y="-23" on="0"/>
        <pt x="-52" y="-148" on="1"/>
        <pt x="-52" y="-273" on="0"/>
        <pt x="-177" y="-273" on="1"/>
        <pt x="-302" y="-273" on="0"/>
        <pt x="-302" y="-148" on="1"/>
        <pt x="-302" y="-78" on="0"/>
        <pt x="-372" y="-78" on="1"/>
        <pt x="-442" y="-78" on="0"/>
        <pt x="-442" y="-148" on="1"/>
        <pt x="-442" y="-218" on="0"/>
        <pt x="-372" y="-218" on="1"/>
        <pt x="-372" y="-273" on="1"/>
        <pt x="-497" y="-273" on="0"/>
        <pt x="-497" y="-148" on="1"/>
        <pt x="-497" y="-23" on="0"/>
      </contour>
    </TTGlyph>
    <TTGlyph name="u1039_101D" xMin="-419" yMin="-273" xMax="-129" yMax="-23">
      <contour>
        <pt x="-129" y="-148" on="1"/>
        <pt x="-129" y="-273" on="0"/>
        <pt x="-274" y="-273" on="1"/>
        <pt x="-419" y="-273" on="0"/>
        <pt x="-419" y="-148" on="1"/>
        <pt x="-419" y="-23" on="0"/>
        <pt x="-274" y="-23" on="1"/>
        <pt x="-129" y="-23" on="0"/>
      </contour>
      <contour>
        <pt x="-364" y="-148" on="1"/>
        <pt x="-364" y="-218" on="0"/>
        <pt x="-274" y="-218" on="1"/>
        <pt x="-184" y="-218" on="0"/>
        <pt x="-184" y="-148" on="1"/>
        <pt x="-184" y="-78" on="0"/>
        <pt x="-274" y="-78" on="1"/>
        <pt x="-364" y="-78" on="0"/>
      </contour>
    </TTGlyph>
    <TTGlyph name="u1039_101D_103E" xMin="-573" yMin="-273" xMax="-129" yMax="-23">
      <contour>
        <pt x="-364" y="-148" on="1"/>
        <pt x="-364" y="-218" on="0"/>
        <pt x="-274" y="-218" on="1"/>
        <pt x="-184" y="-218" on="0"/>
        <pt x="-184" y="-148" on="1"/>
        <pt x="-184" y="-78" on="0"/>
        <pt x="-274" y="-78" on="1"/>
        <pt x="-364" y="-78" on="0"/>
      </contour>
      <contour>
        <pt x="-406" y="-211" on="1"/>
        <pt x="-438" y="-273" on="1"/>
        <pt x="-573" y="-204" on="1"/>
        <pt x="-549" y="-157" on="1"/>
        <pt x="-460" y="-203" on="1"/>
        <pt x="-417" y="-118" on="1"/>
        <pt x="-401" y="-23" on="0"/>
        <pt x="-274" y="-23" on="1"/>
        <pt x="-129" y="-23" on="0"/>
        <pt x="-129" y="-148" on="1"/>
        <pt x="-129" y="-273" on="0"/>
        <pt x="-274" y="-273" on="1"/>
        <pt x="-376" y="-273" on="0"/>
      </contour>
    </TTGlyph>
    <TTGlyph name="u103A" xMin="-387" yMin="570" xMax="-50" yMax="920">
      <contour>
        <pt x="-135" y="854" on="0"/>
        <pt x="-212" y="854" on="1"/>
        <pt x="-321" y="854" on="0"/>
        <pt x="-321" y="745" on="1"/>
        <pt x="-321" y="636" on="0"/>
        <pt x="-212" y="636" on="1"/>
        <pt x="-212" y="570" on="1"/>
        <pt x="-387" y="570" on="0"/>
        <pt x="-387" y="745" on="1"/>
        <pt x="-387" y="920" on="0"/>
        <pt x="-212" y="920" on="1"/>
        <pt x="-84" y="920" on="0"/>
        <pt x="-50" y="827" on="1"/>
        <pt x="-112" y="799" on="1"/>
      </contour>
    </TTGlyph>
    <TTGlyph name="u103B" xMin="-182" yMin="-273" xMax="132" yMax="520">
      <contour>
        <pt x="-182" y="-180" on="1"/>
        <pt x="-182" y="-30" on="1"/>
        <pt x="-100" y="-30" on="1"/>
        <pt x="-100" y="-141" on="1"/>
        <pt x="50" y="-199" on="1"/>
        <pt x="50" y="520" on="1"/>
        <pt x="132" y="520" on="1"/>
        <pt x="132" y="-273" on="1"/>
        <pt x="55" y="-273" on="1"/>
      </contour>
    </TTGlyph>
    <TTGlyph name="u103B_alt" xMin="-152" yMin="-273" xMax="132" yMax="520">
      <contour>
        <pt x="-152" y="-130" on="1"/>
        <pt x="-100" y="-71" on="1"/>
        <pt x="50" y="-179" on="1"/>
        <pt x="50" y="520" on="1"/>
        <pt x="132" y="520" on="1"/>
        <pt x="132" y="-273" on="1"/>
        <pt x="55" y="-273" on="1"/>
      </contour>
    </TTGlyph>
    <TTGlyph name="u103C" xMin="50" yMin="-273" xMax="682" yMax="893">
      <contour>
        <pt x="204" y="-273" on="1"/>
        <pt x="50" y="-273" on="0"/>
        <pt x="50" y="-140" on="1"/>
        <pt x="50" y="760" on="1"/>
        <pt x="50" y="893" on="0"/>
        <pt x="204" y="893" on="1"/>
        <pt x="529" y="893" on="1"/>
        <pt x="682" y="893" on="0"/>
        <pt x="682" y="760" on="1"/>
        <pt x="682" y="650" on="1"/>
        <pt x="600" y="650" on="1"/>
        <pt x="600" y="760" on="1"/>
        <pt x="600" y="827" on="0"/>
        <pt x="529" y="827" on="1"/>
        <pt x="204" y="827" on="1"/>
        <pt x="132" y="827" on="0"/>
        <pt x="132" y="760" on="1"/>
        <pt x="132" y="-140" on="1"/>
        <pt x="132" y="-207" on="0"/>
        <pt x="204" y="-207" on="1"/>
        <pt x="529" y="-207" on="1"/>
        <pt x="600" y="-207" on="0"/>
        <pt x="600" y="-140" on="1"/>
        <pt x="600" y="100" on="1"/>
        <pt x="682" y="100" on="1"/>
        <pt x="682" y="-140" on="1"/>
        <pt x="682" y="-273" on="0"/>
        <pt x="529" y="-273" on="1"/>
      </contour>
    </TTGlyph>
    <TTGlyph name="u103C_1" xMin="50" yMin="-273" xMax="682" yMax="893">
      <contour>
        <pt x="332" y="-273" on="1"/>
        <pt x="204" y="-273" on="1"/>
        <pt x="50" y="-273" on="0"/>
        <pt x="50" y="-140" on="1"/>
        <pt x="50" y="760" on="1"/>
        <pt x="50" y="893" on="0"/>
        <pt x="204" y="893" on="1"/>
        <pt x="529" y="893" on="1"/>
        <pt x="682" y="893" on="0"/>
        <pt x="682" y="760" on="1"/>
        <pt x="682" y="650" on="1"/>
        <pt x="600" y="650" on="1"/>
        <pt x="600" y="760" on="1"/>
        <pt x="600" y="827" on="0"/>
        <pt x="529" y="827" on="1"/>
        <pt x="204" y="827" on="1"/>
        <pt x="132" y="827" on="0"/>
        <pt x="132" y="760" on="1"/>
        <pt x="132" y="-140" on="1"/>
        <pt x="132" y="-207" on="0"/>
        <pt x="204" y="-207" on="1"/>
        <pt x="332" y="-207" on="1"/>
      </contour>
    </TTGlyph>
    <TTGlyph name="u103C_2" xMin="50" yMin="-273" xMax="682" yMax="893">
      <contour>
        <pt x="204" y="-273" on="1"/>
        <pt x="50" y="-273" on="0"/>
        <pt x="50" y="-140" on="1"/>
        <pt x="50" y="760" on="1"/>
        <pt x="50" y="893" on="0"/>
        <pt x="204" y="893" on="1"/>
        <pt x="332" y="893" on="1"/>
        <pt x="332" y="827" on="1"/>
        <pt x="204" y="827" on="1"/>
        <pt x="132" y="827" on="0"/>
        <pt x="132" y="760" on="1"/>
        <pt x="132" y="-140" on="1"/>
        <pt x="132" y="-207" on="0"/>
        <pt x="204" y="-207" on="1"/>
        <pt x="529" y="-207" on="1"/>
        <pt x="600" y="-207" on="0"/>
        <pt x="600" y="-140" on="1"/>
        <pt x="600" y="100" on="1"/>
        <pt x="682" y="100" on="1"/>
        <pt x="682" y="-140" on="1"/>
        <pt x="682" y="-273" on="0"/>
        <pt x="529" y="-273" on="1"/>
      </contour>
    </TTGlyph>
    <TTGlyph name="u103C_3" xMin="50" yMin="-273" xMax="333" yMax="893">
      <contour>
        <pt x="204" y="-273" on="1"/>
        <pt x="50" y="-273" on="0"/>
        <pt x="50" y="-140" on="1"/>
        <pt x="50" y="760" on="1"/>
        <pt x="50" y="893" on="0"/>
        <pt x="204" y="893" on="1"/>
        <pt x="333" y="893" on="1"/>
        <pt x="333" y="827" on="1"/>
        <pt x="204" y="827" on="1"/>
        <pt x="132" y="827" on="0"/>
        <pt x="132" y="760" on="1"/>
        <pt x="132" y="-140" on="1"/>
        <pt x="132" y="-207" on="0"/>
        <pt x="204" y="-207" on="1"/>
        <pt x="333" y="-207" on="1"/>
        <pt x="333" y="-273" on="1"/>
      </contour>
    </TTGlyph>
    <TTGlyph name="u103C_big" xMin="50" yMin="-273" xMax="1015" yMax="893">
      <contour>
        <pt x="862" y="-207" on="1"/>
        <pt x="933" y="-207" on="0"/>
        <pt x="933" y="-140" on="1"/>
        <pt x="933" y="100" on="1"/>
        <pt x="1015" y="100" on="1"/>
        <pt x="1015" y="-140" on="1"/>
        <pt x="1015" y="-273" on="0"/>
        <pt x="862" y="-273" on="1"/>
        <pt x="204" y="-273" on="1"/>
        <pt x="50" y="-273" on="0"/>
        <pt x="50" y="-140" on="1"/>
        <pt x="50" y="760" on="1"/>
        <pt x="50" y="893" on="0"/>
        <pt x="204" y="893" on="1"/>
        <pt x="862" y="893" on="1"/>
        <pt x="1015" y="893" on="0"/>
        <pt x="1015" y="760" on="1"/>
        <pt x="1015" y="650" on="1"/>
        <pt x="933" y="650" on="1"/>
        <pt x="933" y="760" on="1"/>
        <pt x="933" y="827" on="0"/>
        <pt x="862" y="827" on="1"/>
        <pt x="204" y="827" on="1"/>
        <pt x="132" y="827" on="0"/>
        <pt x="132" y="760" on="1"/>
        <pt x="132" y="-140" on="1"/>
        <pt x="132" y="-207" on="0"/>
        <pt x="204" y="-207" on="1"/>
      </contour>
    </TTGlyph>
    <TTGlyph name="u103C_big_1" xMin="50" yMin="-273" xMax="1015" yMax="893">
      <contour>
        <pt x="732" y="-273" on="1"/>
        <pt x="204" y="-273" on="1"/>
        <pt x="50" y="-273" on="0"/>
        <pt x="50" y="-140" on="1"/>
        <pt x="50" y="760" on="1"/>
        <pt x="50" y="893" on="0"/>
        <pt x="204" y="893" on="1"/>
        <pt x="862" y="893" on="1"/>
        <pt x="1015" y="893" on="0"/>
        <pt x="1015" y="760" on="1"/>
        <pt x="1015" y="650" on="1"/>
        <pt x="933" y="650" on="1"/>
        <pt x="933" y="760" on="1"/>
        <pt x="933" y="827" on="0"/>
        <pt x="862" y="827" on="1"/>
        <pt x="204" y="827" on="1"/>
        <pt x="132" y="827" on="0"/>
        <pt x="132" y="760" on="1"/>
        <pt x="132" y="-140" on="1"/>
        <pt x="132" y="-207" on="0"/>
        <pt x="204" y="-207" on="1"/>
        <pt x="732" y="-207" on="1"/>
      </contour>
    </TTGlyph>
    <TTGlyph name="u103C_big_2" xMin="50" yMin="-273" xMax="1015" yMax="893">
      <contour>
        <pt x="862" y="-207" on="1"/>
        <pt x="933" y="-207" on="0"/>
        <pt x="933" y="-140" on="1"/>
        <pt x="933" y="100" on="1"/>
        <pt x="1015" y="100" on="1"/>
        <pt x="1015" y="-140" on="1"/>
        <pt x="1015" y="-273" on="0"/>
        <pt x="862" y="-273" on="1"/>
        <pt x="204" y="-273" on="1"/>
        <pt x="50" y="-273" on="0"/>
        <pt x="50" y="-140" on="1"/>
        <pt x="50" y="760" on="1"/>
        <pt x="50" y="893" on="0"/>
        <pt x="204" y="893" on="1"/>
        <pt x="682" y="893" on="1"/>
        <pt x="682" y="827" on="1"/>
        <pt x="204" y="827" on="1"/>
        <pt x="132" y="827" on="0"/>
        <pt x="132" y="760" on="1"/>
        <pt x="132" y="-140" on="1"/>
        <pt x="132" y="-207" on="0"/>
        <pt x="204" y="-207" on="1"/>
      </contour>
    </TTGlyph>
    <TTGlyph name="u103C_big_3" xMin="50" yMin="-273" xMax="682" yMax="893">
      <contour>
        <pt x="682" y="-207" on="1"/>
        <pt x="682" y="-273" on="1"/>
        <pt x="204" y="-273" on="1"/>
        <pt x="50" y="-273" on="0"/>
        <pt x="50" y="-140" on="1"/>
        <pt x="50" y="760" on="1"/>
        <pt x="50" y="893" on="0"/>
        <pt x="204" y="893" on="1"/>
        <pt x="682" y="893" on="1"/>
        <pt x="682" y="827" on="1"/>
        <pt x="204" y="827" on="1"/>
        <pt x="132" y="827" on="0"/>
        <pt x="132" y="760" on="1"/>
        <pt x="132" y="-140" on="1"/>
        <pt x="132" y="-207" on="0"/>
        <pt x="204" y="-207" on="1"/>
      </contour>
    </TTGlyph>
    <TTGlyph name="u103D" xMin="-419" yMin="-273" xMax="-129" yMax="-23">
      <contour>
        <pt x="-129" y="-148" on="1"/>
        <pt x="-129" y="-273" on="0"/>
        <pt x="-274" y="-273" on="1"/>
        <pt x="-419" y="-273" on="0"/>
        <pt x="-419" y="-148" on="1"/>
        <pt x="-419" y="-23" on="0"/>
        <pt x="-274" y="-23" on="1"/>
        <pt x="-129" y="-23" on="0"/>
      </contour>
      <contour>
        <pt x="-364" y="-148" on="1"/>
        <pt x="-364" y="-218" on="0"/>
        <pt x="-274" y="-218" on="1"/>
        <pt x="-184" y="-218" on="0"/>
        <pt x="-184" y="-148" on="1"/>
        <pt x="-184" y="-78" on="0"/>
        <pt x="-274" y="-78" on="1"/>
        <pt x="-364" y="-78" on="0"/>
      </contour>
    </TTGlyph>
    <TTGlyph name="u103D_1037" xMin="-429" yMin="-273" xMax="-3" yMax="-23">
      <contour>
        <pt x="-179" y="-148" on="1"/>
        <pt x="-179" y="-273" on="0"/>
        <pt x="-304" y="-273" on="1"/>
        <pt x="-429" y="-273" on="0"/>
        <pt x="-429" y="-148" on="1"/>
        <pt x="-429" y="-23" on="0"/>
        <pt x="-304" y="-23" on="1"/>
        <pt x="-179" y="-23" on="0"/>
      </contour>
      <contour>
        <pt x="-374" y="-148" on="1"/>
        <pt x="-374" y="-218" on="0"/>
        <pt x="-304" y="-218" on="1"/>
        <pt x="-234" y="-218" on="0"/>
        <pt x="-234" y="-148" on="1"/>
        <pt x="-234" y="-78" on="0"/>
        <pt x="-304" y="-78" on="1"/>
        <pt x="-374" y="-78" on="0"/>
      </contour>
      <contour>
        <pt x="-83" y="-48" on="1"/>
        <pt x="-3" y="-48" on="0"/>
        <pt x="-3" y="-128" on="1"/>
        <pt x="-3" y="-208" on="0"/>
        <pt x="-83" y="-208" on="1"/>
        <pt x="-163" y="-208" on="0"/>
        <pt x="-163" y="-128" on="1"/>
        <pt x="-163" y="-48" on="0"/>
      </contour>
      <contour>
        <pt x="-53" y="-128" on="1"/>
        <pt x="-53" y="-98" on="0"/>
        <pt x="-83" y="-98" on="1"/>
        <pt x="-113" y="-98" on="0"/>
        <pt x="-113" y="-128" on="1"/>
        <pt x="-113" y="-158" on="0"/>
        <pt x="-83" y="-158" on="1"/>
        <pt x="-53" y="-158" on="0"/>
      </contour>
    </TTGlyph>
    <TTGlyph name="u103E" xMin="-386" yMin="-273" xMax="-234" yMax="-30">
      <contour>
        <pt x="-234" y="-273" on="1"/>
        <pt x="-386" y="-273" on="1"/>
        <pt x="-386" y="-207" on="1"/>
        <pt x="-316" y="-207" on="1"/>
        <pt x="-316" y="-30" on="1"/>
        <pt x="-234" y="-30" on="1"/>
      </contour>
    </TTGlyph>
    <TTGlyph name="u103E_102F" xMin="-461" yMin="-273" xMax="-89" yMax="-30">
      <contour>
        <pt x="-241" y="-30" on="1"/>
        <pt x="-159" y="-30" on="1"/>
        <pt x="-159" y="-207" on="1"/>
        <pt x="-89" y="-207" on="1"/>
        <pt x="-89" y="-273" on="1"/>
        <pt x="-241" y="-273" on="1"/>
      </contour>
      <contour>
        <pt x="-309" y="-273" on="1"/>
        <pt x="-461" y="-273" on="1"/>
        <pt x="-461" y="-207" on="1"/>
        <pt x="-391" y="-207" on="1"/>
        <pt x="-391" y="-30" on="1"/>
        <pt x="-309" y="-30" on="1"/>
      </contour>
    </TTGlyph>
    <TTGlyph name="u103E_1030" xMin="-490" yMin="-273" xMax="-60" yMax="-30">
      <contour>
        <pt x="-312" y="-30" on="1"/>
        <pt x="-238" y="-30" on="1"/>
        <pt x="-238" y="-273" on="1"/>
        <pt x="-312" y="-273" on="1"/>
      </contour>
      <contour>
        <pt x="-430" y="-30" on="1"/>
        <pt x="-355" y="-30" on="1"/>
        <pt x="-355" y="-273" on="1"/>
        <pt x="-490" y="-273" on="1"/>
        <pt x="-490" y="-207" on="1"/>
        <pt x="-430" y="-207" on="1"/>
      </contour>
      <contour>
        <pt x="-120" y="-207" on="1"/>
        <pt x="-60" y="-207" on="1"/>
        <pt x="-60" y="-273" on="1"/>
        <pt x="-195" y="-273" on="1"/>
        <pt x="-195" y="-30" on="1"/>
        <pt x="-120" y="-30" on="1"/>
      </contour>
    </TTGlyph>
    <TTGlyph name="u103E_alt" xMin="-341" yMin="-273" xMax="-60" yMax="-23">
      <contour>
        <pt x="-185" y="-273" on="1"/>
        <pt x="-341" y="-180" on="1"/>
        <pt x="-307" y="-124" on="1"/>
        <pt x="-221" y="-175" on="1"/>
        <pt x="-131" y="-23" on="1"/>
        <pt x="-60" y="-65" on="1"/>
      </contour>
    </TTGlyph>
    <TTGlyph name="u103F" xMin="50" yMin="0" xMax="1166" yMax="520">
      <contour>
        <pt x="751" y="260" on="1"/>
        <pt x="751" y="454" on="0"/>
        <pt x="608" y="454" on="1"/>
        <pt x="608" y="520" on="1"/>
        <pt x="833" y="520" on="0"/>
        <pt x="833" y="260" on="1"/>
        <pt x="833" y="192" on="0"/>
        <pt x="818" y="142" on="1"/>
        <pt x="852" y="66" on="0"/>
        <pt x="941" y="66" on="1"/>
        <pt x="1084" y="66" on="0"/>
        <pt x="1084" y="260" on="1"/>
        <pt x="1084" y="454" on="0"/>
        <pt x="941" y="454" on="1"/>
        <pt x="941" y="520" on="1"/>
        <pt x="1166" y="520" on="0"/>
        <pt x="1166" y="260" on="1"/>
        <pt x="1166" y="0" on="0"/>
        <pt x="941" y="0" on="1"/>
        <pt x="831" y="0" on="0"/>
        <pt x="774" y="62" on="1"/>
        <pt x="718" y="0" on="0"/>
        <pt x="608" y="0" on="1"/>
        <pt x="498" y="0" on="0"/>
        <pt x="441" y="62" on="1"/>
        <pt x="385" y="0" on="0"/>
        <pt x="266" y="0" on="1"/>
        <pt x="98" y="0" on="0"/>
        <pt x="51" y="128" on="1"/>
        <pt x="129" y="153" on="1"/>
        <pt x="160" y="66" on="0"/>
        <pt x="266" y="66" on="1"/>
        <pt x="418" y="66" on="0"/>
        <pt x="418" y="260" on="1"/>
        <pt x="418" y="454" on="0"/>
        <pt x="265" y="454" on="1"/>
        <pt x="159" y="454" on="0"/>
        <pt x="128" y="367" on="1"/>
        <pt x="50" y="392" on="1"/>
        <pt x="97" y="520" on="0"/>
        <pt x="265" y="520" on="1"/>
        <pt x="500" y="520" on="0"/>
        <pt x="500" y="260" on="1"/>
        <pt x="500" y="192" on="0"/>
        <pt x="485" y="142" on="1"/>
        <pt x="519" y="66" on="0"/>
        <pt x="608" y="66" on="1"/>
        <pt x="751" y="66" on="0"/>
      </contour>
    </TTGlyph>
    <TTGlyph name="u1040" xMin="50" yMin="0" xMax="500" yMax="520">
      <contour>
        <pt x="275" y="454" on="1"/>
        <pt x="132" y="454" on="0"/>
        <pt x="132" y="260" on="1"/>
        <pt x="132" y="66" on="0"/>
        <pt x="275" y="66" on="1"/>
        <pt x="418" y="66" on="0"/>
        <pt x="418" y="260" on="1"/>
        <pt x="418" y="454" on="0"/>
      </contour>
      <contour>
        <pt x="275" y="520" on="1"/>
        <pt x="500" y="520" on="0"/>
        <pt x="500" y="260" on="1"/>
        <pt x="500" y="0" on="0"/>
        <pt x="275" y="0" on="1"/>
        <pt x="50" y="0" on="0"/>
        <pt x="50" y="260" on="1"/>
        <pt x="50" y="520" on="0"/>
      </contour>
    </TTGlyph>
    <TTGlyph name="u1041" xMin="50" yMin="0" xMax="500" yMax="520">
      <contour>
        <pt x="500" y="260" on="1"/>
        <pt x="500" y="0" on="0"/>
        <pt x="265" y="0" on="1"/>
        <pt x="97" y="0" on="0"/>
        <pt x="50" y="128" on="1"/>
        <pt x="128" y="153" on="1"/>
        <pt x="159" y="66" on="0"/>
        <pt x="265" y="66" on="1"/>
        <pt x="418" y="66" on="0"/>
        <pt x="418" y="260" on="1"/>
        <pt x="418" y="454" on="0"/>
        <pt x="265" y="454" on="1"/>
        <pt x="159" y="454" on="0"/>
        <pt x="128" y="367" on="1"/>
        <pt x="50" y="392" on="1"/>
        <pt x="97" y="520" on="0"/>
        <pt x="265" y="520" on="1"/>
        <pt x="500" y="520" on="0"/>
      </contour>
    </TTGlyph>
    <TTGlyph name="u1042" xMin="10" yMin="-225" xMax="360" yMax="520">
      <contour>
        <pt x="360" y="-50" on="1"/>
        <pt x="360" y="-225" on="0"/>
        <pt x="185" y="-225" on="1"/>
        <pt x="10" y="-225" on="0"/>
        <pt x="10" y="-50" on="1"/>
        <pt x="76" y="-50" on="1"/>
        <pt x="76" y="-159" on="0"/>
        <pt x="185" y="-159" on="1"/>
        <pt x="278" y="-159" on="0"/>
        <pt x="278" y="-50" on="1"/>
        <pt x="278" y="520" on="1"/>
        <pt x="360" y="520" on="1"/>
      </contour>
    </TTGlyph>
    <TTGlyph name="u1043" xMin="50" yMin="-273" xMax="500" yMax="520">
      <contour>
        <pt x="119" y="37" on="1"/>
        <pt x="72" y="69" on="0"/>
        <pt x="50" y="128" on="1"/>
        <pt x="128" y="153" on="1"/>
        <pt x="159" y="66" on="0"/>
        <pt x="265" y="66" on="1"/>
        <pt x="418" y="66" on="0"/>
        <pt x="418" y="260" on="1"/>
        <pt x="418" y="454" on="0"/>
        <pt x="265" y="454" on="1"/>
        <pt x="159" y="454" on="0"/>
        <pt x="128" y="367" on="1"/>
        <pt x="50" y="392" on="1"/>
        <pt x="97" y="520" on="0"/>
        <pt x="265" y="520" on="1"/>
        <pt x="500" y="520" on="0"/>
        <pt x="500" y="260" on="1"/>
        <pt x="500" y="0" on="0"/>
        <pt x="265" y="0" on="1"/>
        <pt x="249" y="0" on="0"/>
        <pt x="233" y="1" on="1"/>
        <pt x="424" y="-231" on="1"/>
        <pt x="373" y="-273" on="1"/>
      </contour>
    </TTGlyph>
    <TTGlyph name="u1044" xMin="50" yMin="-273" xMax="500" yMax="520">
      <contour>
        <pt x="177" y="-273" on="1"/>
        <pt x="126" y="-231" on="1"/>
        <pt x="317" y="1" on="1"/>
        <pt x="301" y="0" on="0"/>
        <pt x="285" y="0" on="1"/>
        <pt x="50" y="0" on="0"/>
        <pt x="50" y="260" on="1"/>
        <pt x="50" y="520" on="0"/>
        <pt x="285" y="520" on="1"/>
        <pt x="453" y="520" on="0"/>
        <pt x="500" y="392" on="1"/>
        <pt x="422" y="367" on="1"/>
        <pt x="391" y="454" on="0"/>
        <pt x="285" y="454" on="1"/>
        <pt x="132" y="454" on="0"/>
        <pt x="132" y="260" on="1"/>
        <pt x="132" y="66" on="0"/>
        <pt x="285" y="66" on="1"/>
        <pt x="391" y="66" on="0"/>
        <pt x="422" y="153" on="1"/>
        <pt x="500" y="128" on="1"/>
        <pt x="478" y="69" on="0"/>
        <pt x="431" y="37" on="1"/>
      </contour>
    </TTGlyph>
    <TTGlyph name="u1045" xMin="50" yMin="-273" xMax="500" yMax="520">
      <contour>
        <pt x="50" y="320" on="1"/>
        <pt x="50" y="520" on="0"/>
        <pt x="275" y="520" on="1"/>
        <pt x="500" y="520" on="0"/>
        <pt x="500" y="260" on="1"/>
        <pt x="500" y="-13" on="1"/>
        <pt x="500" y="-273" on="0"/>
        <pt x="275" y="-273" on="1"/>
        <pt x="98" y="-273" on="0"/>
        <pt x="60" y="-111" on="1"/>
        <pt x="139" y="-89" on="1"/>
        <pt x="163" y="-207" on="0"/>
        <pt x="275" y="-207" on="1"/>
        <pt x="418" y="-207" on="0"/>
        <pt x="418" y="-13" on="1"/>
        <pt x="418" y="260" on="1"/>
        <pt x="418" y="454" on="0"/>
        <pt x="275" y="454" on="1"/>
        <pt x="194" y="454" on="0"/>
        <pt x="159" y="411" on="1"/>
        <pt x="161" y="411" on="1"/>
        <pt x="252" y="411" on="0"/>
        <pt x="252" y="320" on="1"/>
        <pt x="252" y="229" on="0"/>
        <pt x="161" y="229" on="1"/>
        <pt x="50" y="229" on="0"/>
      </contour>
      <contour>
        <pt x="191" y="320" on="1"/>
        <pt x="191" y="350" on="0"/>
        <pt x="161" y="350" on="1"/>
        <pt x="131" y="350" on="0"/>
        <pt x="131" y="320" on="1"/>
        <pt x="131" y="290" on="0"/>
        <pt x="161" y="290" on="1"/>
        <pt x="191" y="290" on="0"/>
      </contour>
    </TTGlyph>
    <TTGlyph name="u1046" xMin="50" yMin="0" xMax="500" yMax="793">
      <contour>
        <pt x="490" y="631" on="1"/>
        <pt x="411" y="609" on="1"/>
        <pt x="387" y="727" on="0"/>
        <pt x="275" y="727" on="1"/>
        <pt x="132" y="727" on="0"/>
        <pt x="132" y="533" on="1"/>
        <pt x="132" y="260" on="1"/>
        <pt x="132" y="66" on="0"/>
        <pt x="275" y="66" on="1"/>
        <pt x="418" y="66" on="0"/>
        <pt x="418" y="260" on="1"/>
        <pt x="418" y="300" on="0"/>
        <pt x="240" y="347" on="0"/>
        <pt x="240" y="420" on="1"/>
        <pt x="240" y="520" on="0"/>
        <pt x="340" y="520" on="1"/>
        <pt x="440" y="520" on="0"/>
        <pt x="440" y="420" on="1"/>
        <pt x="374" y="420" on="1"/>
        <pt x="374" y="454" on="0"/>
        <pt x="340" y="454" on="1"/>
        <pt x="306" y="454" on="0"/>
        <pt x="306" y="420" on="1"/>
        <pt x="306" y="389" on="0"/>
        <pt x="500" y="342" on="0"/>
        <pt x="500" y="260" on="1"/>
        <pt x="500" y="0" on="0"/>
        <pt x="275" y="0" on="1"/>
        <pt x="50" y="0" on="0"/>
        <pt x="50" y="260" on="1"/>
        <pt x="50" y="533" on="1"/>
        <pt x="50" y="793" on="0"/>
        <pt x="275" y="793" on="1"/>
        <pt x="452" y="793" on="0"/>
      </contour>
    </TTGlyph>
    <TTGlyph name="u1047" xMin="50" yMin="-273" xMax="500" yMax="520">
      <contour>
        <pt x="418" y="177" on="0"/>
        <pt x="418" y="300" on="1"/>
        <pt x="418" y="454" on="0"/>
        <pt x="275" y="454" on="1"/>
        <pt x="132" y="454" on="0"/>
        <pt x="132" y="270" on="1"/>
        <pt x="132" y="182" on="0"/>
        <pt x="153" y="134" on="1"/>
        <pt x="80" y="98" on="1"/>
        <pt x="50" y="161" on="0"/>
        <pt x="50" y="270" on="1"/>
        <pt x="50" y="520" on="0"/>
        <pt x="275" y="520" on="1"/>
        <pt x="500" y="520" on="0"/>
        <pt x="500" y="300" on="1"/>
        <pt x="500" y="132" on="0"/>
        <pt x="297" y="0" on="1"/>
        <pt x="212" y="-55" on="0"/>
        <pt x="212" y="-138" on="1"/>
        <pt x="212" y="-207" on="0"/>
        <pt x="275" y="-207" on="1"/>
        <pt x="338" y="-207" on="0"/>
        <pt x="338" y="-138" on="1"/>
        <pt x="420" y="-138" on="1"/>
        <pt x="420" y="-273" on="0"/>
        <pt x="275" y="-273" on="1"/>
        <pt x="130" y="-273" on="0"/>
        <pt x="130" y="-138" on="1"/>
        <pt x="130" y="-11" on="0"/>
        <pt x="252" y="69" on="1"/>
      </contour>
    </TTGlyph>
    <TTGlyph name="u1048" xMin="50" yMin="0" xMax="500" yMax="520">
      <contour>
        <pt x="195" y="0" on="1"/>
        <pt x="50" y="42" on="0"/>
        <pt x="50" y="260" on="1"/>
        <pt x="50" y="520" on="0"/>
        <pt x="275" y="520" on="1"/>
        <pt x="500" y="520" on="0"/>
        <pt x="500" y="260" on="1"/>
        <pt x="500" y="42" on="0"/>
        <pt x="355" y="0" on="1"/>
        <pt x="328" y="64" on="1"/>
        <pt x="418" y="96" on="0"/>
        <pt x="418" y="260" on="1"/>
        <pt x="418" y="454" on="0"/>
        <pt x="275" y="454" on="1"/>
        <pt x="180" y="454" on="0"/>
        <pt x="148" y="368" on="1"/>
        <pt x="188" y="353" on="0"/>
        <pt x="220" y="319" on="1"/>
        <pt x="276" y="261" on="0"/>
        <pt x="276" y="178" on="1"/>
        <pt x="276" y="76" on="0"/>
      </contour>
      <contour>
        <pt x="180" y="91" on="1"/>
        <pt x="210" y="128" on="0"/>
        <pt x="210" y="178" on="1"/>
        <pt x="210" y="234" on="0"/>
        <pt x="173" y="273" on="1"/>
        <pt x="155" y="292" on="0"/>
        <pt x="134" y="302" on="1"/>
        <pt x="132" y="282" on="0"/>
        <pt x="132" y="260" on="1"/>
        <pt x="132" y="140" on="0"/>
      </contour>
    </TTGlyph>
    <TTGlyph name="u1049" xMin="50" yMin="-273" xMax="500" yMax="520">
      <contour>
        <pt x="452" y="-273" on="0"/>
        <pt x="275" y="-273" on="1"/>
        <pt x="50" y="-273" on="0"/>
        <pt x="50" y="-13" on="1"/>
        <pt x="50" y="260" on="1"/>
        <pt x="50" y="520" on="0"/>
        <pt x="275" y="520" on="1"/>
        <pt x="500" y="520" on="0"/>
        <pt x="500" y="260" on="1"/>
        <pt x="500" y="178" on="0"/>
        <pt x="306" y="131" on="0"/>
        <pt x="306" y="100" on="1"/>
        <pt x="306" y="66" on="0"/>
        <pt x="340" y="66" on="1"/>
        <pt x="374" y="66" on="0"/>
        <pt x="374" y="100" on="1"/>
        <pt x="440" y="100" on="1"/>
        <pt x="440" y="0" on="0"/>
        <pt x="340" y="0" on="1"/>
        <pt x="240" y="0" on="0"/>
        <pt x="240" y="100" on="1"/>
        <pt x="240" y="173" on="0"/>
        <pt x="418" y="220" on="0"/>
        <pt x="418" y="260" on="1"/>
        <pt x="418" y="454" on="0"/>
        <pt x="275" y="454" on="1"/>
        <pt x="132" y="454" on="0"/>
        <pt x="132" y="260" on="1"/>
        <pt x="132" y="-13" on="1"/>
        <pt x="132" y="-207" on="0"/>
        <pt x="275" y="-207" on="1"/>
        <pt x="387" y="-207" on="0"/>
        <pt x="411" y="-89" on="1"/>
        <pt x="490" y="-111" on="1"/>
      </contour>
    </TTGlyph>
    <TTGlyph name="u104A" xMin="50" yMin="0" xMax="132" yMax="520">
      <contour>
        <pt x="132" y="520" on="1"/>
        <pt x="132" y="0" on="1"/>
        <pt x="50" y="0" on="1"/>
        <pt x="50" y="520" on="1"/>
      </contour>
    </TTGlyph>
    <TTGlyph name="u104B" xMin="50" yMin="0" xMax="282" yMax="520">
      <contour>
        <pt x="282" y="520" on="1"/>
        <pt x="282" y="0" on="1"/>
        <pt x="200" y="0" on="1"/>
        <pt x="200" y="520" on="1"/>
      </contour>
      <contour>
        <pt x="132" y="520" on="1"/>
        <pt x="132" y="0" on="1"/>
        <pt x="50" y="0" on="1"/>
        <pt x="50" y="520" on="1"/>
      </contour>
    </TTGlyph>
    <TTGlyph name="u104C" xMin="50" yMin="-273" xMax="500" yMax="920">
      <contour>
        <pt x="368" y="-207" on="1"/>
        <pt x="418" y="-207" on="0"/>
        <pt x="418" y="-170" on="1"/>
        <pt x="418" y="-87" on="1"/>
        <pt x="357" y="-110" on="0"/>
        <pt x="275" y="-110" on="1"/>
        <pt x="131" y="-110" on="0"/>
        <pt x="50" y="-39" on="1"/>
        <pt x="50" y="128" on="1"/>
        <pt x="128" y="153" on="1"/>
        <pt x="159" y="66" on="0"/>
        <pt x="265" y="66" on="1"/>
        <pt x="418" y="66" on="0"/>
        <pt x="418" y="260" on="1"/>
        <pt x="418" y="454" on="0"/>
        <pt x="265" y="454" on="1"/>
        <pt x="159" y="454" on="0"/>
        <pt x="128" y="367" on="1"/>
        <pt x="50" y="392" on="1"/>
        <pt x="97" y="520" on="0"/>
        <pt x="265" y="520" on="1"/>
        <pt x="500" y="520" on="0"/>
        <pt x="500" y="260" on="1"/>
        <pt x="500" y="0" on="0"/>
        <pt x="265" y="0" on="1"/>
        <pt x="185" y="0" on="0"/>
        <pt x="132" y="29" on="1"/>
        <pt x="132" y="-19" on="1"/>
        <pt x="190" y="-50" on="0"/>
        <pt x="275" y="-50" on="1"/>
        <pt x="372" y="-50" on="0"/>
        <pt x="433" y="0" on="1"/>
        <pt x="500" y="-30" on="1"/>
        <pt x="500" y="-170" on="1"/>
        <pt x="500" y="-273" on="0"/>
        <pt x="368" y="-273" on="1"/>
        <pt x="173" y="-273" on="1"/>
        <pt x="50" y="-273" on="0"/>
        <pt x="50" y="-170" on="1"/>
        <pt x="50" y="-130" on="1"/>
        <pt x="132" y="-130" on="1"/>
        <pt x="132" y="-170" on="1"/>
        <pt x="132" y="-207" on="0"/>
        <pt x="173" y="-207" on="1"/>
      </contour>
      <contour>
        <pt x="395" y="854" on="0"/>
        <pt x="318" y="854" on="1"/>
        <pt x="209" y="854" on="0"/>
        <pt x="209" y="745" on="1"/>
        <pt x="209" y="636" on="0"/>
        <pt x="318" y="636" on="1"/>
        <pt x="318" y="570" on="1"/>
        <pt x="143" y="570" on="0"/>
        <pt x="143" y="745" on="1"/>
        <pt x="143" y="920" on="0"/>
        <pt x="318" y="920" on="1"/>
        <pt x="446" y="920" on="0"/>
        <pt x="480" y="827" on="1"/>
        <pt x="418" y="799" on="1"/>
      </contour>
    </TTGlyph>
    <TTGlyph name="u104D" xMin="50" yMin="-273" xMax="715" yMax="979">
      <contour>
        <pt x="233" y="71" on="1"/>
        <pt x="242" y="103" on="0"/>
        <pt x="242" y="130" on="1"/>
        <pt x="242" y="158" on="0"/>
        <pt x="232" y="180" on="1"/>
        <pt x="210" y="232" on="0"/>
        <pt x="160" y="253" on="1"/>
        <pt x="146" y="259" on="0"/>
        <pt x="132" y="262" on="1"/>
        <pt x="132" y="260" on="1"/>
        <pt x="132" y="97" on="0"/>
      </contour>
      <contour>
        <pt x="275" y="0" on="1"/>
        <pt x="50" y="0" on="0"/>
        <pt x="50" y="260" on="1"/>
        <pt x="50" y="520" on="0"/>
        <pt x="275" y="520" on="1"/>
        <pt x="500" y="520" on="0"/>
        <pt x="500" y="260" on="1"/>
        <pt x="500" y="-147" on="1"/>
        <pt x="418" y="-147" on="1"/>
        <pt x="418" y="260" on="1"/>
        <pt x="418" y="454" on="0"/>
        <pt x="275" y="454" on="1"/>
        <pt x="160" y="454" on="0"/>
        <pt x="137" y="328" on="1"/>
        <pt x="161" y="324" on="0"/>
        <pt x="185" y="314" on="1"/>
        <pt x="259" y="283" on="0"/>
        <pt x="292" y="207" on="1"/>
        <pt x="309" y="168" on="0"/>
        <pt x="309" y="126" on="1"/>
        <pt x="309" y="66" on="0"/>
      </contour>
      <contour>
        <pt x="665" y="-140" on="1"/>
        <pt x="665" y="-273" on="0"/>
        <pt x="511" y="-273" on="1"/>
        <pt x="200" y="-273" on="1"/>
        <pt x="50" y="-273" on="0"/>
        <pt x="50" y="-166" on="1"/>
        <pt x="50" y="-60" on="0"/>
        <pt x="200" y="-60" on="1"/>
        <pt x="262" y="-60" on="1"/>
        <pt x="262" y="-126" on="1"/>
        <pt x="200" y="-126" on="1"/>
        <pt x="132" y="-126" on="0"/>
        <pt x="132" y="-166" on="1"/>
        <pt x="132" y="-207" on="0"/>
        <pt x="200" y="-207" on="1"/>
        <pt x="511" y="-207" on="1"/>
        <pt x="583" y="-207" on="0"/>
        <pt x="583" y="-140" on="1"/>
        <pt x="583" y="300" on="1"/>
        <pt x="583" y="461" on="0"/>
        <pt x="439" y="530" on="1"/>
        <pt x="294" y="600" on="0"/>
        <pt x="294" y="754" on="1"/>
        <pt x="294" y="979" on="0"/>
        <pt x="519" y="979" on="1"/>
        <pt x="672" y="979" on="0"/>
        <pt x="715" y="868" on="1"/>
        <pt x="662" y="838" on="1"/>
        <pt x="628" y="913" on="0"/>
        <pt x="519" y="913" on="1"/>
        <pt x="360" y="913" on="0"/>
        <pt x="360" y="754" on="1"/>
        <pt x="360" y="641" on="0"/>
        <pt x="467" y="590" on="1"/>
        <pt x="665" y="495" on="0"/>
        <pt x="665" y="300" on="1"/>
      </contour>
    </TTGlyph>
    <TTGlyph name="u104E" xMin="50" yMin="-273" xMax="500" yMax="520">
      <contour>
        <pt x="418" y="29" on="1"/>
        <pt x="365" y="0" on="0"/>
        <pt x="285" y="0" on="1"/>
        <pt x="50" y="0" on="0"/>
        <pt x="50" y="260" on="1"/>
        <pt x="50" y="520" on="0"/>
        <pt x="285" y="520" on="1"/>
        <pt x="453" y="520" on="0"/>
        <pt x="500" y="392" on="1"/>
        <pt x="422" y="367" on="1"/>
        <pt x="391" y="454" on="0"/>
        <pt x="285" y="454" on="1"/>
        <pt x="132" y="454" on="0"/>
        <pt x="132" y="260" on="1"/>
        <pt x="132" y="66" on="0"/>
        <pt x="285" y="66" on="1"/>
        <pt x="391" y="66" on="0"/>
        <pt x="422" y="153" on="1"/>
        <pt x="500" y="128" on="1"/>
        <pt x="500" y="-273" on="1"/>
        <pt x="418" y="-273" on="1"/>
      </contour>
    </TTGlyph>
    <TTGlyph name="u104F" xMin="50" yMin="0" xMax="875" yMax="979">
      <contour>
        <pt x="743" y="345" on="1"/>
        <pt x="743" y="491" on="0"/>
        <pt x="599" y="560" on="1"/>
        <pt x="454" y="630" on="0"/>
        <pt x="454" y="754" on="1"/>
        <pt x="454" y="979" on="0"/>
        <pt x="679" y="979" on="1"/>
        <pt x="832" y="979" on="0"/>
        <pt x="875" y="868" on="1"/>
        <pt x="822" y="838" on="1"/>
        <pt x="788" y="913" on="0"/>
        <pt x="679" y="913" on="1"/>
        <pt x="520" y="913" on="0"/>
        <pt x="520" y="754" on="1"/>
        <pt x="520" y="671" on="0"/>
        <pt x="627" y="620" on="1"/>
        <pt x="825" y="525" on="0"/>
        <pt x="825" y="345" on="1"/>
        <pt x="825" y="0" on="1"/>
        <pt x="743" y="0" on="1"/>
      </contour>
      <contour>
        <pt x="413" y="385" on="1"/>
        <pt x="376" y="454" on="0"/>
        <pt x="285" y="454" on="1"/>
        <pt x="220" y="454" on="0"/>
        <pt x="182" y="419" on="1"/>
        <pt x="208" y="374" on="0"/>
        <pt x="276" y="357" on="1"/>
        <pt x="303" y="350" on="0"/>
        <pt x="327" y="350" on="1"/>
        <pt x="379" y="350" on="0"/>
      </contour>
      <contour>
        <pt x="327" y="170" on="1"/>
        <pt x="303" y="170" on="0"/>
        <pt x="276" y="163" on="1"/>
        <pt x="208" y="146" on="0"/>
        <pt x="182" y="101" on="1"/>
        <pt x="220" y="66" on="0"/>
        <pt x="285" y="66" on="1"/>
        <pt x="376" y="66" on="0"/>
        <pt x="413" y="135" on="1"/>
        <pt x="379" y="170" on="0"/>
      </contour>
      <contour>
        <pt x="418" y="486" on="1"/>
        <pt x="453" y="520" on="0"/>
        <pt x="517" y="520" on="1"/>
        <pt x="662" y="520" on="0"/>
        <pt x="662" y="345" on="1"/>
        <pt x="662" y="0" on="1"/>
        <pt x="580" y="0" on="1"/>
        <pt x="580" y="345" on="1"/>
        <pt x="580" y="454" on="0"/>
        <pt x="509" y="454" on="1"/>
        <pt x="483" y="454" on="0"/>
        <pt x="466" y="439" on="1"/>
        <pt x="488" y="408" on="0"/>
        <pt x="500" y="364" on="1"/>
        <pt x="444" y="282" on="0"/>
        <pt x="341" y="282" on="1"/>
        <pt x="304" y="282" on="0"/>
        <pt x="260" y="293" on="1"/>
        <pt x="184" y="312" on="0"/>
        <pt x="142" y="348" on="1"/>
        <pt x="132" y="311" on="0"/>
        <pt x="132" y="260" on="1"/>
        <pt x="132" y="209" on="0"/>
        <pt x="142" y="172" on="1"/>
        <pt x="184" y="208" on="0"/>
        <pt x="260" y="227" on="1"/>
        <pt x="304" y="238" on="0"/>
        <pt x="341" y="238" on="1"/>
        <pt x="444" y="238" on="0"/>
        <pt x="500" y="156" on="1"/>
        <pt x="458" y="0" on="0"/>
        <pt x="285" y="0" on="1"/>
        <pt x="50" y="0" on="0"/>
        <pt x="50" y="260" on="1"/>
        <pt x="50" y="520" on="0"/>
        <pt x="285" y="520" on="1"/>
        <pt x="365" y="520" on="0"/>
      </contour>
    </TTGlyph>
    <TTGlyph name="u1050" xMin="50" yMin="0" xMax="500" yMax="520">
      <contour>
        <pt x="275" y="520" on="1"/>
        <pt x="500" y="520" on="0"/>
        <pt x="500" y="260" on="1"/>
        <pt x="500" y="42" on="0"/>
        <pt x="355" y="0" on="1"/>
        <pt x="328" y="64" on="1"/>
        <pt x="418" y="96" on="0"/>
        <pt x="418" y="260" on="1"/>
        <pt x="418" y="454" on="0"/>
        <pt x="275" y="454" on="1"/>
        <pt x="132" y="454" on="0"/>
        <pt x="132" y="260" on="1"/>
        <pt x="132" y="96" on="0"/>
        <pt x="222" y="64" on="1"/>
        <pt x="195" y="0" on="1"/>
        <pt x="50" y="42" on="0"/>
        <pt x="50" y="260" on="1"/>
        <pt x="50" y="520" on="0"/>
      </contour>
      <contour>
        <pt x="275" y="310" on="1"/>
        <pt x="325" y="310" on="0"/>
        <pt x="325" y="260" on="1"/>
        <pt x="325" y="210" on="0"/>
        <pt x="275" y="210" on="1"/>
        <pt x="225" y="210" on="0"/>
        <pt x="225" y="260" on="1"/>
        <pt x="225" y="310" on="0"/>
      </contour>
    </TTGlyph>
    <TTGlyph name="u1051" xMin="50" yMin="0" xMax="500" yMax="520">
      <contour>
        <pt x="50" y="0" on="0"/>
        <pt x="50" y="260" on="1"/>
        <pt x="50" y="478" on="0"/>
        <pt x="195" y="520" on="1"/>
        <pt x="222" y="456" on="1"/>
        <pt x="132" y="424" on="0"/>
        <pt x="132" y="260" on="1"/>
        <pt x="132" y="66" on="0"/>
        <pt x="275" y="66" on="1"/>
        <pt x="418" y="66" on="0"/>
        <pt x="418" y="260" on="1"/>
        <pt x="418" y="424" on="0"/>
        <pt x="328" y="456" on="1"/>
        <pt x="355" y="520" on="1"/>
        <pt x="500" y="478" on="0"/>
        <pt x="500" y="260" on="1"/>
        <pt x="500" y="0" on="0"/>
        <pt x="275" y="0" on="1"/>
      </contour>
      <contour>
        <pt x="225" y="210" on="0"/>
        <pt x="225" y="260" on="1"/>
        <pt x="225" y="310" on="0"/>
        <pt x="275" y="310" on="1"/>
        <pt x="325" y="310" on="0"/>
        <pt x="325" y="260" on="1"/>
        <pt x="325" y="210" on="0"/>
        <pt x="275" y="210" on="1"/>
      </contour>
    </TTGlyph>
    <TTGlyph name="u1052" xMin="50" yMin="0" xMax="500" yMax="520">
      <contour>
        <pt x="418" y="294" on="0"/>
        <pt x="365" y="314" on="1"/>
        <pt x="284" y="346" on="0"/>
        <pt x="284" y="408" on="1"/>
        <pt x="284" y="429" on="0"/>
        <pt x="293" y="453" on="1"/>
        <pt x="318" y="520" on="0"/>
        <pt x="378" y="520" on="1"/>
        <pt x="404" y="520" on="0"/>
        <pt x="437" y="507" on="1"/>
        <pt x="500" y="481" on="1"/>
        <pt x="475" y="421" on="1"/>
        <pt x="412" y="445" on="1"/>
        <pt x="396" y="452" on="0"/>
        <pt x="384" y="452" on="1"/>
        <pt x="362" y="452" on="0"/>
        <pt x="354" y="429" on="1"/>
        <pt x="352" y="422" on="0"/>
        <pt x="352" y="416" on="1"/>
        <pt x="352" y="391" on="0"/>
        <pt x="389" y="377" on="1"/>
        <pt x="500" y="338" on="0"/>
        <pt x="500" y="260" on="1"/>
        <pt x="500" y="0" on="0"/>
        <pt x="275" y="0" on="1"/>
        <pt x="50" y="0" on="0"/>
        <pt x="50" y="260" on="1"/>
        <pt x="50" y="478" on="0"/>
        <pt x="195" y="520" on="1"/>
        <pt x="222" y="456" on="1"/>
        <pt x="132" y="424" on="0"/>
        <pt x="132" y="260" on="1"/>
        <pt x="132" y="66" on="0"/>
        <pt x="275" y="66" on="1"/>
        <pt x="418" y="66" on="0"/>
        <pt x="418" y="260" on="1"/>
      </contour>
    </TTGlyph>
    <TTGlyph name="u1053" xMin="50" yMin="0" xMax="500" yMax="520">
      <contour>
        <pt x="418" y="260" on="1"/>
        <pt x="418" y="301" on="0"/>
        <pt x="385" y="314" on="1"/>
        <pt x="304" y="346" on="0"/>
        <pt x="304" y="408" on="1"/>
        <pt x="304" y="429" on="0"/>
        <pt x="313" y="453" on="1"/>
        <pt x="338" y="520" on="0"/>
        <pt x="398" y="520" on="1"/>
        <pt x="424" y="520" on="0"/>
        <pt x="457" y="507" on="1"/>
        <pt x="500" y="489" on="1"/>
        <pt x="476" y="428" on="1"/>
        <pt x="432" y="445" on="1"/>
        <pt x="416" y="452" on="0"/>
        <pt x="404" y="452" on="1"/>
        <pt x="382" y="452" on="0"/>
        <pt x="374" y="429" on="1"/>
        <pt x="372" y="422" on="0"/>
        <pt x="372" y="416" on="1"/>
        <pt x="372" y="391" on="0"/>
        <pt x="409" y="377" on="1"/>
        <pt x="500" y="342" on="0"/>
        <pt x="500" y="260" on="1"/>
        <pt x="500" y="0" on="0"/>
        <pt x="275" y="0" on="1"/>
        <pt x="50" y="0" on="0"/>
        <pt x="50" y="260" on="1"/>
        <pt x="50" y="342" on="0"/>
        <pt x="141" y="377" on="1"/>
        <pt x="178" y="391" on="0"/>
        <pt x="178" y="416" on="1"/>
        <pt x="178" y="422" on="0"/>
        <pt x="176" y="429" on="1"/>
        <pt x="168" y="452" on="0"/>
        <pt x="146" y="452" on="1"/>
        <pt x="134" y="452" on="0"/>
        <pt x="118" y="445" on="1"/>
        <pt x="74" y="428" on="1"/>
        <pt x="50" y="489" on="1"/>
        <pt x="93" y="507" on="1"/>
        <pt x="126" y="520" on="0"/>
        <pt x="152" y="520" on="1"/>
        <pt x="212" y="520" on="0"/>
        <pt x="237" y="453" on="1"/>
        <pt x="246" y="429" on="0"/>
        <pt x="246" y="408" on="1"/>
        <pt x="246" y="346" on="0"/>
        <pt x="165" y="314" on="1"/>
        <pt x="132" y="301" on="0"/>
        <pt x="132" y="260" on="1"/>
        <pt x="132" y="66" on="0"/>
        <pt x="275" y="66" on="1"/>
        <pt x="418" y="66" on="0"/>
      </contour>
    </TTGlyph>
    <TTGlyph name="u1054" xMin="50" yMin="0" xMax="500" yMax="520">
      <contour>
        <pt x="142" y="348" on="1"/>
        <pt x="132" y="311" on="0"/>
        <pt x="132" y="260" on="1"/>
        <pt x="132" y="66" on="0"/>
        <pt x="285" y="66" on="1"/>
        <pt x="391" y="66" on="0"/>
        <pt x="422" y="153" on="1"/>
        <pt x="500" y="128" on="1"/>
        <pt x="453" y="0" on="0"/>
        <pt x="285" y="0" on="1"/>
        <pt x="50" y="0" on="0"/>
        <pt x="50" y="260" on="1"/>
        <pt x="50" y="520" on="0"/>
        <pt x="285" y="520" on="1"/>
        <pt x="458" y="520" on="0"/>
        <pt x="500" y="364" on="1"/>
        <pt x="444" y="282" on="0"/>
        <pt x="341" y="282" on="1"/>
        <pt x="304" y="282" on="0"/>
        <pt x="260" y="293" on="1"/>
        <pt x="184" y="312" on="0"/>
      </contour>
      <contour>
        <pt x="413" y="385" on="1"/>
        <pt x="376" y="454" on="0"/>
        <pt x="285" y="454" on="1"/>
        <pt x="220" y="454" on="0"/>
        <pt x="182" y="419" on="1"/>
        <pt x="208" y="374" on="0"/>
        <pt x="276" y="357" on="1"/>
        <pt x="303" y="350" on="0"/>
        <pt x="327" y="350" on="1"/>
        <pt x="379" y="350" on="0"/>
      </contour>
    </TTGlyph>
    <TTGlyph name="u1055" xMin="50" yMin="0" xMax="500" yMax="520">
      <contour>
        <pt x="413" y="385" on="1"/>
        <pt x="376" y="454" on="0"/>
        <pt x="285" y="454" on="1"/>
        <pt x="220" y="454" on="0"/>
        <pt x="182" y="419" on="1"/>
        <pt x="208" y="374" on="0"/>
        <pt x="276" y="357" on="1"/>
        <pt x="303" y="350" on="0"/>
        <pt x="327" y="350" on="1"/>
        <pt x="379" y="350" on="0"/>
      </contour>
      <contour>
        <pt x="50" y="260" on="1"/>
        <pt x="50" y="520" on="0"/>
        <pt x="285" y="520" on="1"/>
        <pt x="458" y="520" on="0"/>
        <pt x="500" y="364" on="1"/>
        <pt x="444" y="282" on="0"/>
        <pt x="341" y="282" on="1"/>
        <pt x="304" y="282" on="0"/>
        <pt x="260" y="293" on="1"/>
        <pt x="184" y="312" on="0"/>
        <pt x="142" y="348" on="1"/>
        <pt x="132" y="311" on="0"/>
        <pt x="132" y="260" on="1"/>
        <pt x="132" y="66" on="0"/>
        <pt x="200" y="66" on="1"/>
        <pt x="248" y="66" on="0"/>
        <pt x="262" y="180" on="1"/>
        <pt x="332" y="180" on="1"/>
        <pt x="332" y="66" on="0"/>
        <pt x="372" y="66" on="1"/>
        <pt x="411" y="66" on="0"/>
        <pt x="422" y="193" on="1"/>
        <pt x="500" y="178" on="1"/>
        <pt x="473" y="0" on="0"/>
        <pt x="372" y="0" on="1"/>
        <pt x="319" y="0" on="0"/>
        <pt x="291" y="49" on="1"/>
        <pt x="257" y="0" on="0"/>
        <pt x="200" y="0" on="1"/>
        <pt x="50" y="0" on="0"/>
      </contour>
    </TTGlyph>
    <TTGlyph name="u1056" xMin="-132" yMin="0" xMax="318" yMax="520">
      <contour>
        <pt x="236" y="294" on="0"/>
        <pt x="183" y="314" on="1"/>
        <pt x="102" y="346" on="0"/>
        <pt x="102" y="408" on="1"/>
        <pt x="102" y="429" on="0"/>
        <pt x="111" y="453" on="1"/>
        <pt x="136" y="520" on="0"/>
        <pt x="196" y="520" on="1"/>
        <pt x="222" y="520" on="0"/>
        <pt x="255" y="507" on="1"/>
        <pt x="318" y="481" on="1"/>
        <pt x="293" y="421" on="1"/>
        <pt x="230" y="445" on="1"/>
        <pt x="214" y="452" on="0"/>
        <pt x="202" y="452" on="1"/>
        <pt x="180" y="452" on="0"/>
        <pt x="172" y="429" on="1"/>
        <pt x="170" y="422" on="0"/>
        <pt x="170" y="416" on="1"/>
        <pt x="170" y="391" on="0"/>
        <pt x="207" y="377" on="1"/>
        <pt x="318" y="338" on="0"/>
        <pt x="318" y="260" on="1"/>
        <pt x="318" y="0" on="0"/>
        <pt x="93" y="0" on="1"/>
        <pt x="-132" y="0" on="0"/>
        <pt x="-132" y="260" on="1"/>
        <pt x="-50" y="260" on="1"/>
        <pt x="-50" y="66" on="0"/>
        <pt x="93" y="66" on="1"/>
        <pt x="236" y="66" on="0"/>
        <pt x="236" y="260" on="1"/>
      </contour>
    </TTGlyph>
    <TTGlyph name="u1057" xMin="-132" yMin="0" xMax="318" yMax="520">
      <contour>
        <pt x="236" y="260" on="1"/>
        <pt x="236" y="294" on="0"/>
        <pt x="183" y="314" on="1"/>
        <pt x="102" y="346" on="0"/>
        <pt x="102" y="408" on="1"/>
        <pt x="102" y="429" on="0"/>
        <pt x="111" y="453" on="1"/>
        <pt x="136" y="520" on="0"/>
        <pt x="196" y="520" on="1"/>
        <pt x="222" y="520" on="0"/>
        <pt x="255" y="507" on="1"/>
        <pt x="318" y="481" on="1"/>
        <pt x="293" y="421" on="1"/>
        <pt x="230" y="445" on="1"/>
        <pt x="214" y="452" on="0"/>
        <pt x="202" y="452" on="1"/>
        <pt x="180" y="452" on="0"/>
        <pt x="172" y="429" on="1"/>
        <pt x="170" y="422" on="0"/>
        <pt x="170" y="416" on="1"/>
        <pt x="170" y="391" on="0"/>
        <pt x="207" y="377" on="1"/>
        <pt x="318" y="338" on="0"/>
        <pt x="318" y="260" on="1"/>
        <pt x="318" y="0" on="0"/>
        <pt x="168" y="0" on="1"/>
        <pt x="111" y="0" on="0"/>
        <pt x="77" y="49" on="1"/>
        <pt x="49" y="0" on="0"/>
        <pt x="-4" y="0" on="1"/>
        <pt x="-105" y="0" on="0"/>
        <pt x="-132" y="178" on="1"/>
        <pt x="-54" y="193" on="1"/>
        <pt x="-43" y="66" on="0"/>
        <pt x="-4" y="66" on="1"/>
        <pt x="36" y="66" on="0"/>
        <pt x="36" y="180" on="1"/>
        <pt x="106" y="180" on="1"/>
        <pt x="120" y="66" on="0"/>
        <pt x="168" y="66" on="1"/>
        <pt x="236" y="66" on="0"/>
      </contour>
    </TTGlyph>
    <TTGlyph name="u1058" xMin="-447" yMin="-273" xMax="-102" yMax="-23">
      <contour>
        <pt x="-158" y="-160" on="0"/>
        <pt x="-251" y="-160" on="1"/>
        <pt x="-335" y="-160" on="0"/>
        <pt x="-374" y="-123" on="1"/>
        <pt x="-377" y="-134" on="0"/>
        <pt x="-377" y="-148" on="1"/>
        <pt x="-377" y="-223" on="0"/>
        <pt x="-272" y="-223" on="1"/>
        <pt x="-192" y="-223" on="0"/>
        <pt x="-153" y="-179" on="1"/>
        <pt x="-112" y="-211" on="1"/>
        <pt x="-149" y="-273" on="0"/>
        <pt x="-272" y="-273" on="1"/>
        <pt x="-447" y="-273" on="0"/>
        <pt x="-447" y="-148" on="1"/>
        <pt x="-447" y="-23" on="0"/>
        <pt x="-272" y="-23" on="1"/>
        <pt x="-127" y="-23" on="0"/>
        <pt x="-102" y="-109" on="1"/>
      </contour>
      <contour>
        <pt x="-332" y="-82" on="1"/>
        <pt x="-309" y="-120" on="0"/>
        <pt x="-251" y="-120" on="1"/>
        <pt x="-210" y="-120" on="0"/>
        <pt x="-187" y="-96" on="1"/>
        <pt x="-213" y="-73" on="0"/>
        <pt x="-272" y="-73" on="1"/>
        <pt x="-308" y="-73" on="0"/>
      </contour>
    </TTGlyph>
    <TTGlyph name="u1059" xMin="-447" yMin="-273" xMax="-102" yMax="-23">
      <contour>
        <pt x="-332" y="-82" on="1"/>
        <pt x="-309" y="-120" on="0"/>
        <pt x="-251" y="-120" on="1"/>
        <pt x="-210" y="-120" on="0"/>
        <pt x="-187" y="-96" on="1"/>
        <pt x="-213" y="-73" on="0"/>
        <pt x="-272" y="-73" on="1"/>
        <pt x="-308" y="-73" on="0"/>
      </contour>
      <contour>
        <pt x="-447" y="-148" on="1"/>
        <pt x="-447" y="-23" on="0"/>
        <pt x="-272" y="-23" on="1"/>
        <pt x="-127" y="-23" on="0"/>
        <pt x="-102" y="-109" on="1"/>
        <pt x="-158" y="-160" on="0"/>
        <pt x="-251" y="-160" on="1"/>
        <pt x="-335" y="-160" on="0"/>
        <pt x="-374" y="-123" on="1"/>
        <pt x="-377" y="-134" on="0"/>
        <pt x="-377" y="-148" on="1"/>
        <pt x="-377" y="-223" on="0"/>
        <pt x="-322" y="-223" on="1"/>
        <pt x="-302" y="-223" on="0"/>
        <pt x="-283" y="-188" on="1"/>
        <pt x="-237" y="-188" on="1"/>
        <pt x="-227" y="-223" on="0"/>
        <pt x="-192" y="-223" on="1"/>
        <pt x="-152" y="-223" on="0"/>
        <pt x="-143" y="-179" on="1"/>
        <pt x="-102" y="-191" on="1"/>
        <pt x="-109" y="-273" on="0"/>
        <pt x="-192" y="-273" on="1"/>
        <pt x="-236" y="-273" on="0"/>
        <pt x="-257" y="-234" on="1"/>
        <pt x="-279" y="-273" on="0"/>
        <pt x="-322" y="-273" on="1"/>
        <pt x="-447" y="-273" on="0"/>
      </contour>
    </TTGlyph>
    <TTGlyph name="u105A" xMin="50" yMin="-273" xMax="500" yMax="520">
      <contour>
        <pt x="50" y="520" on="0"/>
        <pt x="285" y="520" on="1"/>
        <pt x="453" y="520" on="0"/>
        <pt x="500" y="392" on="1"/>
        <pt x="422" y="367" on="1"/>
        <pt x="391" y="454" on="0"/>
        <pt x="285" y="454" on="1"/>
        <pt x="132" y="454" on="0"/>
        <pt x="132" y="260" on="1"/>
        <pt x="132" y="66" on="0"/>
        <pt x="285" y="66" on="1"/>
        <pt x="391" y="66" on="0"/>
        <pt x="422" y="153" on="1"/>
        <pt x="500" y="128" on="1"/>
        <pt x="453" y="0" on="0"/>
        <pt x="285" y="0" on="1"/>
        <pt x="50" y="0" on="0"/>
        <pt x="50" y="260" on="1"/>
      </contour>
      <contour>
        <pt x="308" y="-105" on="0"/>
        <pt x="308" y="-92" on="1"/>
        <pt x="308" y="-75" on="0"/>
        <pt x="275" y="-75" on="1"/>
        <pt x="242" y="-75" on="0"/>
        <pt x="242" y="-92" on="1"/>
        <pt x="160" y="-92" on="1"/>
        <pt x="160" y="-14" on="0"/>
        <pt x="275" y="-14" on="1"/>
        <pt x="390" y="-14" on="0"/>
        <pt x="390" y="-92" on="1"/>
        <pt x="390" y="-131" on="0"/>
        <pt x="292" y="-186" on="0"/>
        <pt x="292" y="-200" on="1"/>
        <pt x="292" y="-217" on="0"/>
        <pt x="325" y="-217" on="1"/>
        <pt x="358" y="-217" on="1"/>
        <pt x="358" y="-273" on="1"/>
        <pt x="325" y="-273" on="1"/>
        <pt x="210" y="-273" on="0"/>
        <pt x="210" y="-200" on="1"/>
        <pt x="210" y="-163" on="0"/>
      </contour>
    </TTGlyph>
    <TTGlyph name="u105B" xMin="50" yMin="-273" xMax="682" yMax="520">
      <contour>
        <pt x="404" y="386" on="1"/>
        <pt x="370" y="386" on="0"/>
        <pt x="370" y="352" on="1"/>
        <pt x="370" y="318" on="0"/>
        <pt x="404" y="318" on="1"/>
        <pt x="438" y="318" on="0"/>
        <pt x="438" y="352" on="1"/>
        <pt x="438" y="386" on="0"/>
      </contour>
      <contour>
        <pt x="357" y="7" on="1"/>
        <pt x="357" y="-150" on="1"/>
        <pt x="357" y="-207" on="0"/>
        <pt x="418" y="-207" on="1"/>
        <pt x="540" y="-207" on="1"/>
        <pt x="600" y="-207" on="0"/>
        <pt x="600" y="-150" on="1"/>
        <pt x="600" y="194" on="1"/>
        <pt x="564" y="177" on="0"/>
        <pt x="529" y="177" on="1"/>
        <pt x="454" y="177" on="0"/>
        <pt x="393" y="252" on="1"/>
        <pt x="304" y="258" on="0"/>
        <pt x="304" y="352" on="1"/>
        <pt x="304" y="421" on="0"/>
        <pt x="352" y="443" on="1"/>
        <pt x="323" y="454" on="0"/>
        <pt x="285" y="454" on="1"/>
        <pt x="132" y="454" on="0"/>
        <pt x="132" y="260" on="1"/>
        <pt x="132" y="66" on="0"/>
        <pt x="285" y="66" on="1"/>
        <pt x="369" y="66" on="0"/>
        <pt x="406" y="120" on="1"/>
        <pt x="475" y="80" on="1"/>
        <pt x="435" y="24" on="0"/>
      </contour>
      <contour>
        <pt x="275" y="0" on="1"/>
        <pt x="50" y="6" on="0"/>
        <pt x="50" y="260" on="1"/>
        <pt x="50" y="520" on="0"/>
        <pt x="285" y="520" on="1"/>
        <pt x="453" y="520" on="0"/>
        <pt x="500" y="392" on="1"/>
        <pt x="504" y="374" on="0"/>
        <pt x="504" y="352" on="1"/>
        <pt x="504" y="287" on="0"/>
        <pt x="461" y="264" on="1"/>
        <pt x="491" y="236" on="0"/>
        <pt x="527" y="236" on="1"/>
        <pt x="563" y="236" on="0"/>
        <pt x="600" y="254" on="1"/>
        <pt x="600" y="520" on="1"/>
        <pt x="682" y="520" on="1"/>
        <pt x="682" y="-150" on="1"/>
        <pt x="682" y="-273" on="0"/>
        <pt x="540" y="-273" on="1"/>
        <pt x="418" y="-273" on="1"/>
        <pt x="275" y="-273" on="0"/>
        <pt x="275" y="-150" on="1"/>
      </contour>
    </TTGlyph>
    <TTGlyph name="u105C" xMin="50" yMin="0" xMax="500" yMax="520">
      <contour>
        <pt x="275" y="349" on="1"/>
        <pt x="237" y="349" on="0"/>
        <pt x="237" y="260" on="1"/>
        <pt x="237" y="171" on="0"/>
        <pt x="275" y="171" on="1"/>
        <pt x="313" y="171" on="0"/>
        <pt x="313" y="260" on="1"/>
        <pt x="313" y="349" on="0"/>
      </contour>
      <contour>
        <pt x="275" y="520" on="1"/>
        <pt x="500" y="520" on="0"/>
        <pt x="500" y="260" on="1"/>
        <pt x="500" y="0" on="0"/>
        <pt x="275" y="0" on="1"/>
        <pt x="50" y="0" on="0"/>
        <pt x="50" y="260" on="1"/>
        <pt x="50" y="520" on="0"/>
      </contour>
      <contour>
        <pt x="275" y="454" on="1"/>
        <pt x="132" y="454" on="0"/>
        <pt x="132" y="260" on="1"/>
        <pt x="132" y="66" on="0"/>
        <pt x="275" y="66" on="1"/>
        <pt x="418" y="66" on="0"/>
        <pt x="418" y="260" on="1"/>
        <pt x="418" y="454" on="0"/>
      </contour>
      <contour>
        <pt x="368" y="404" on="0"/>
        <pt x="368" y="260" on="1"/>
        <pt x="368" y="116" on="0"/>
        <pt x="275" y="116" on="1"/>
        <pt x="182" y="116" on="0"/>
        <pt x="182" y="260" on="1"/>
        <pt x="182" y="404" on="0"/>
        <pt x="275" y="404" on="1"/>
      </contour>
    </TTGlyph>
</ttFont>
